<svg width="261" height="34" viewBox="0 0 261 34" fill="none" xmlns="http://www.w3.org/2000/svg">
<path d="M110.751 29.2219H57.4632V34.0001H110.751V29.2219Z" fill="#F7B600"/>
<path d="M110.751 0.829102H57.4632V5.60731H110.751V0.829102Z" fill="#1A1F71"/>
<path d="M78.792 10.8706L73.2867 23.9933H69.6857L66.985 13.502C66.8119 12.8442 66.6734 12.6364 66.1886 12.3594C65.1219 11.846 63.9929 11.4735 62.83 11.2514L62.8993 10.8706H68.6816C69.0599 10.8723 69.425 11.0094 69.7108 11.2571C69.9967 11.5048 70.1843 11.8468 70.2397 12.2209L71.6594 19.8037L75.1911 10.8706H78.792ZM92.8843 19.6999C92.8843 16.2374 88.1061 16.0296 88.1407 14.5061C88.1407 14.0214 88.5908 13.5367 89.595 13.3982C90.747 13.2906 91.9068 13.4939 92.9536 13.9868L93.5422 11.2168C92.5256 10.8264 91.4457 10.6269 90.3567 10.6282C86.9981 10.6282 84.6436 12.4287 84.609 14.9563C84.5744 16.8606 86.3056 17.8994 87.5867 18.5226C88.8678 19.1459 89.3526 19.596 89.3526 20.15C89.3526 21.0156 88.2792 21.4311 87.3097 21.4311C86.0914 21.4648 84.8856 21.1782 83.8126 20.6001L83.1894 23.474C84.3884 23.9552 85.6718 24.1907 86.9635 24.1664C90.5298 24.2011 92.8497 22.4352 92.8843 19.6999ZM101.748 23.9933H104.899L102.164 10.8706H99.2553C98.9434 10.8668 98.6377 10.9574 98.3782 11.1304C98.1187 11.3034 97.9175 11.5507 97.801 11.84L92.6766 23.9933H96.2429L96.9354 22.0197H101.298L101.748 23.9933ZM97.9395 19.3536L99.74 14.4369L100.779 19.3536H97.9395ZM83.6395 10.8706L80.8349 23.9933H77.4417L80.2463 10.8706H83.6395Z" fill="#1A1F71"/>
<path d="M26.6939 4.22192H14.6792V23.8195H26.6939V4.22192Z" fill="#FF5F00"/>
<path d="M7.78885 32.7532V30.6758C7.80471 30.502 7.78275 30.3268 7.72447 30.1623C7.66619 29.9979 7.57297 29.8479 7.45124 29.7229C7.3295 29.5979 7.18213 29.5007 7.01926 29.4381C6.85639 29.3754 6.68188 29.3488 6.50774 29.36C6.27779 29.3509 6.04927 29.4 5.84343 29.503C5.6376 29.6059 5.46115 29.7592 5.33049 29.9486C5.2171 29.7588 5.05391 29.6035 4.8586 29.4998C4.66329 29.396 4.44332 29.3477 4.2225 29.36C4.02811 29.3515 3.83465 29.3914 3.65942 29.476C3.48419 29.5606 3.33266 29.6873 3.21839 29.8448V29.4293H2.56052V32.7532H3.21839V30.8489C3.20471 30.7349 3.2165 30.6193 3.25291 30.5104C3.28932 30.4016 3.34945 30.3021 3.42895 30.2193C3.50845 30.1365 3.60534 30.0724 3.71263 30.0316C3.81992 29.9907 3.93494 29.9742 4.04938 29.9833C4.53413 29.9833 4.81112 30.2949 4.81112 30.8489V32.7532H5.46899V30.8489C5.45531 30.7349 5.46711 30.6193 5.50352 30.5104C5.53993 30.4016 5.60006 30.3021 5.67956 30.2193C5.75906 30.1365 5.85595 30.0724 5.96324 30.0316C6.07053 29.9907 6.18555 29.9742 6.29999 29.9833C6.78473 29.9833 7.06173 30.2949 7.06173 30.8489V32.7532H7.78885ZM18.5918 29.4639H17.3799V28.4598H16.722V29.4639H16.0295V30.0525H16.722V31.6106C16.722 32.3724 16.999 32.8225 17.83 32.8225C18.1454 32.8163 18.4544 32.7331 18.7303 32.5801L18.5225 31.9915C18.3359 32.1082 18.1194 32.1683 17.8993 32.1646C17.8265 32.1706 17.7533 32.1601 17.6852 32.1339C17.6171 32.1076 17.5557 32.0663 17.5058 32.013C17.4559 31.9598 17.4186 31.8959 17.3968 31.8262C17.375 31.7566 17.3692 31.6829 17.3799 31.6106V30.0179H18.5918V29.4639ZM24.755 29.36C24.5758 29.3563 24.3988 29.399 24.2411 29.484C24.0833 29.5689 23.9502 29.6932 23.8547 29.8448V29.4293H23.1969V32.7532H23.8547V30.8835C23.8547 30.3295 24.1317 29.9833 24.5818 29.9833C24.734 29.9893 24.885 30.0126 25.032 30.0525L25.2397 29.4293C25.081 29.3893 24.9185 29.3661 24.755 29.36ZM15.4409 29.7063C15.0356 29.4584 14.5652 29.3378 14.0906 29.36C13.2596 29.36 12.7402 29.7409 12.7402 30.3988C12.7402 30.9528 13.1211 31.2644 13.8482 31.3682L14.1944 31.4029C14.5753 31.4721 14.8177 31.6106 14.8177 31.7837C14.8177 32.0261 14.5407 32.1992 14.0213 32.1992C13.6241 32.2075 13.2351 32.0859 12.9133 31.853L12.5671 32.3724C12.9877 32.6505 13.4825 32.7953 13.9867 32.7879C14.9562 32.7879 15.4755 32.3377 15.4755 31.7145C15.4755 31.0913 15.06 30.8489 14.3329 30.745L13.9867 30.7104C13.6751 30.6758 13.3981 30.5719 13.3981 30.3641C13.3981 30.1564 13.6751 29.9486 14.0559 29.9486C14.4182 29.9644 14.7726 30.059 15.0947 30.2256L15.4409 29.7063ZM25.5167 31.0913C25.5025 31.3223 25.5376 31.5537 25.6196 31.7702C25.7016 31.9866 25.8286 32.1832 25.9923 32.3469C26.156 32.5106 26.3526 32.6376 26.569 32.7196C26.7855 32.8016 27.0169 32.8367 27.2479 32.8225C27.6739 32.8449 28.0931 32.7093 28.4252 32.4416L28.0789 31.9222C27.8343 32.1217 27.5289 32.2317 27.2133 32.2339C26.9346 32.2118 26.6744 32.0855 26.4847 31.8802C26.2949 31.6748 26.1895 31.4055 26.1895 31.1259C26.1895 30.8463 26.2949 30.5769 26.4847 30.3716C26.6744 30.1662 26.9346 30.0399 27.2133 30.0179C27.5289 30.0201 27.8343 30.13 28.0789 30.3295L28.4252 29.8101C28.0931 29.5425 27.6739 29.4069 27.2479 29.4293C27.02 29.4019 26.7888 29.4255 26.5711 29.4983C26.3533 29.5711 26.1545 29.6914 25.9889 29.8504C25.8232 30.0094 25.695 30.2032 25.6133 30.4178C25.5317 30.6323 25.4987 30.8624 25.5167 31.0913ZM20.8424 29.36C19.8729 29.36 19.215 30.0525 19.215 31.0913C19.2002 31.3195 19.2336 31.5483 19.3132 31.7627C19.3927 31.9772 19.5166 32.1724 19.6767 32.3358C19.8368 32.4991 20.0295 32.6269 20.2423 32.7108C20.4551 32.7946 20.6831 32.8327 20.9116 32.8225C21.4002 32.8326 21.8772 32.6736 22.262 32.3724L21.9157 31.8876C21.6376 32.1032 21.298 32.2244 20.9462 32.2339C20.7005 32.2432 20.4602 32.1591 20.2739 31.9985C20.0876 31.8379 19.9691 31.6127 19.9421 31.3682H22.4005V31.0913C22.4005 30.0525 21.7772 29.36 20.8424 29.36ZM20.8424 29.9833C20.9545 29.9781 21.0665 29.9958 21.1716 30.0353C21.2767 30.0748 21.3726 30.1352 21.4536 30.2129C21.5345 30.2907 21.5989 30.3841 21.6426 30.4874C21.6863 30.5908 21.7086 30.702 21.708 30.8143H19.9075C19.9227 30.5806 20.0293 30.3623 20.2043 30.2068C20.3793 30.0512 20.6086 29.9709 20.8424 29.9833ZM11.8746 31.0913V29.4293H11.2167V29.8448C11.09 29.6836 10.9262 29.5553 10.7394 29.4709C10.5525 29.3865 10.348 29.3485 10.1433 29.36C9.68418 29.36 9.24383 29.5424 8.91916 29.8671C8.59449 30.1918 8.4121 30.6321 8.4121 31.0913C8.4121 31.5504 8.59449 31.9908 8.91916 32.3154C9.24383 32.6401 9.68418 32.8225 10.1433 32.8225C10.348 32.834 10.5525 32.796 10.7394 32.7116C10.9262 32.6272 11.09 32.4989 11.2167 32.3377V32.7532H11.8746V31.0913ZM9.17384 31.0913C9.18733 30.8893 9.25953 30.6957 9.38156 30.5342C9.50358 30.3728 9.67013 30.2505 9.86072 30.1823C10.0513 30.1142 10.2576 30.1033 10.4544 30.1509C10.6511 30.1984 10.8296 30.3024 10.9681 30.4501C11.1065 30.5977 11.1988 30.7826 11.2336 30.982C11.2683 31.1814 11.2441 31.3866 11.1639 31.5724C11.0836 31.7582 10.9508 31.9165 10.7818 32.0279C10.6128 32.1392 10.415 32.1988 10.2126 32.1992C10.0692 32.2027 9.92678 32.1759 9.79452 32.1205C9.66227 32.0651 9.54321 31.9824 9.44515 31.8778C9.34708 31.7732 9.27222 31.6491 9.22546 31.5135C9.17871 31.378 9.16112 31.2341 9.17384 31.0913ZM34.7615 29.36C34.5824 29.3563 34.4054 29.399 34.2476 29.484C34.0899 29.5689 33.9568 29.6932 33.8613 29.8448V29.4293H33.2034V32.7532H33.8613V30.8835C33.8613 30.3295 34.1383 29.9833 34.5884 29.9833C34.7406 29.9893 34.8916 30.0126 35.0385 30.0525L35.2463 29.4293C35.0876 29.3893 34.9251 29.3661 34.7615 29.36ZM32.1993 31.0913V29.4293H31.5414V29.8448C31.4147 29.6836 31.251 29.5553 31.0641 29.4709C30.8772 29.3865 30.6728 29.3485 30.4681 29.36C30.0089 29.36 29.5685 29.5424 29.2439 29.8671C28.9192 30.1918 28.7368 30.6321 28.7368 31.0913C28.7368 31.5504 28.9192 31.9908 29.2439 32.3154C29.5685 32.6401 30.0089 32.8225 30.4681 32.8225C30.6728 32.834 30.8772 32.796 31.0641 32.7116C31.251 32.6272 31.4147 32.4989 31.5414 32.3377V32.7532H32.1993V31.0913ZM29.5332 31.0913C29.5467 30.8893 29.6189 30.6957 29.7409 30.5342C29.8629 30.3728 30.0295 30.2505 30.2201 30.1823C30.4106 30.1142 30.617 30.1033 30.8137 30.1509C31.0104 30.1984 31.189 30.3024 31.3274 30.4501C31.4658 30.5977 31.5581 30.7826 31.5929 30.982C31.6277 31.1814 31.6035 31.3866 31.5232 31.5724C31.443 31.7582 31.3102 31.9165 31.1412 32.0279C30.9722 32.1392 30.7743 32.1988 30.5719 32.1992C29.9141 32.2339 29.5332 31.7145 29.5332 31.0913ZM38.9165 31.0913V28.1135H38.2586V29.8448C38.1319 29.6836 37.9682 29.5553 37.7813 29.4709C37.5944 29.3865 37.39 29.3485 37.1852 29.36C36.7261 29.36 36.2857 29.5424 35.9611 29.8671C35.6364 30.1918 35.454 30.6321 35.454 31.0913C35.454 31.5504 35.6364 31.9908 35.9611 32.3154C36.2857 32.6401 36.7261 32.8225 37.1852 32.8225C37.39 32.834 37.5944 32.796 37.7813 32.7116C37.9682 32.6272 38.1319 32.4989 38.2586 32.3377V32.7532H38.9165V31.0913ZM36.2158 31.0913C36.2292 30.8893 36.3014 30.6957 36.4235 30.5342C36.5455 30.3728 36.712 30.2505 36.9026 30.1823C37.0932 30.1142 37.2996 30.1033 37.4963 30.1509C37.693 30.1984 37.8716 30.3024 38.01 30.4501C38.1484 30.5977 38.2407 30.7826 38.2755 30.982C38.3103 31.1814 38.286 31.3866 38.2058 31.5724C38.1255 31.7582 37.9927 31.9165 37.8237 32.0279C37.6547 32.1392 37.4569 32.1988 37.2545 32.1992C37.1112 32.2027 36.9687 32.1759 36.8364 32.1205C36.7042 32.0651 36.5851 31.9824 36.4871 31.8778C36.389 31.7732 36.3141 31.6491 36.2674 31.5135C36.2206 31.378 36.203 31.2341 36.2158 31.0913Z" fill="black"/>
<path d="M15.9257 14.0213C15.9262 12.136 16.3532 10.2752 17.1746 8.57833C17.9961 6.88142 19.1908 5.39231 20.6693 4.22249C19.1066 2.99383 17.2727 2.15673 15.3207 1.78104C13.3687 1.40535 11.3551 1.50196 9.44804 2.06281C7.54096 2.62366 5.79567 3.63249 4.35781 5.00511C2.91995 6.37773 1.83122 8.07433 1.18248 9.95334C0.533742 11.8323 0.343804 13.8393 0.628517 15.8066C0.91323 17.774 1.66434 19.6447 2.81916 21.2627C3.97398 22.8807 5.49903 24.199 7.26703 25.1077C9.03504 26.0164 10.9947 26.489 12.9826 26.4862C15.7719 26.4882 18.4802 25.5488 20.6693 23.8201C19.1908 22.6503 17.9961 21.1612 17.1746 19.4642C16.3532 17.7673 15.9262 15.9066 15.9257 14.0213Z" fill="#EB001B"/>
<path d="M40.8555 14.0214C40.8529 16.3573 40.1939 18.6455 38.9538 20.6251C37.7136 22.6046 35.9422 24.1959 33.8414 25.2174C31.7407 26.2389 29.3952 26.6495 27.0723 26.4025C24.7495 26.1554 22.5428 25.2607 20.7039 23.8202C22.1827 22.6507 23.3777 21.1616 24.1991 19.4646C25.0206 17.7676 25.4474 15.9067 25.4474 14.0214C25.4474 12.136 25.0206 10.2751 24.1991 8.57807C23.3777 6.88108 22.1827 5.39204 20.7039 4.22255C22.5428 2.78205 24.7495 1.88727 27.0723 1.64022C29.3952 1.39318 31.7407 1.80382 33.8414 2.82532C35.9422 3.84682 37.7136 5.43807 38.9538 7.41764C40.1939 9.3972 40.8529 11.6854 40.8555 14.0214Z" fill="#F79E1B"/>
<path fill-rule="evenodd" clip-rule="evenodd" d="M169.999 6.37296H169.941V14.0219C169.941 14.66 170.462 15.1822 171.098 15.1822H172.095V17.8482C172.095 18.4886 172.613 19.008 173.252 19.008C173.89 19.008 174.408 18.4886 174.408 17.8482V15.1822H175.966V17.8482C175.967 18.4886 176.484 19.008 177.123 19.008C177.762 19.008 178.279 18.4886 178.28 17.8482V15.1822H179.251C179.888 15.1822 180.408 14.66 180.408 14.0219V6.37296H169.999ZM172.303 3.6174C172.303 3.88974 172.523 4.11054 172.794 4.11054C173.066 4.11054 173.286 3.88974 173.286 3.6174C173.286 3.34506 173.066 3.12425 172.794 3.12425C172.523 3.12425 172.303 3.34506 172.303 3.6174ZM177.064 3.6174C177.064 3.88974 177.284 4.11054 177.555 4.11054C177.827 4.11054 178.047 3.88974 178.047 3.6174C178.047 3.34506 177.827 3.12425 177.555 3.12425C177.284 3.12425 177.064 3.34506 177.064 3.6174ZM169.954 5.96705C169.952 5.91409 169.951 5.86114 169.951 5.80795C169.951 5.45215 169.996 5.10582 170.08 4.77296C170.405 3.48974 171.32 2.40699 172.557 1.7642L171.755 0.278618C171.705 0.186892 171.739 0.0724711 171.83 0.0228256C171.921 -0.02682 172.035 0.0072227 172.085 0.0987123L172.897 1.60179C173.588 1.30132 174.364 1.13276 175.184 1.13276C175.998 1.13276 176.769 1.29919 177.456 1.59541L178.264 0.0987123C178.314 0.0072227 178.428 -0.02682 178.519 0.0228256C178.61 0.0724711 178.644 0.186892 178.595 0.278618L177.797 1.75616C179.094 2.42543 180.04 3.57815 180.327 4.93868C180.359 5.09258 180.383 5.24884 180.398 5.40771V5.96705H169.954ZM183.129 7.33041C183.129 6.68975 182.611 6.17036 181.973 6.17036C181.334 6.17036 180.816 6.68975 180.816 7.33041V12.2039C180.816 12.8446 181.334 13.364 181.973 13.364C182.611 13.364 183.129 12.8446 183.129 12.2039V7.33041ZM169.527 7.33041V12.2039C169.527 12.8446 169.009 13.364 168.37 13.364C167.732 13.364 167.214 12.8446 167.214 12.2039V7.33041C167.214 6.68975 167.732 6.17036 168.37 6.17036C169.009 6.17036 169.527 6.68975 169.527 7.33041Z" fill="#70B958"/>
<path d="M190.273 21.5719H188.781L185.539 29.3603H186.202L182.969 21.5809H181.433L185.098 30.1135L184.806 30.7781C184.48 31.5135 183.861 31.8324 183.27 31.8324H182.784V33.1705H183.252C184.568 33.1705 185.61 32.4618 186.166 31.1149L190.273 21.5719ZM180.638 30.4414V21.5809H179.313V22.591C178.571 21.8466 177.547 21.4036 176.381 21.4036C173.855 21.4036 171.868 23.4594 171.868 26.0022C171.868 28.5542 173.855 30.6187 176.381 30.6187C177.547 30.6187 178.571 30.1667 179.313 29.4312V30.4414H180.638ZM176.478 29.3251C174.667 29.3251 173.201 27.8364 173.201 26.0022C173.201 24.1771 174.667 22.6884 176.478 22.6884C177.608 22.6884 178.677 23.2201 179.225 24.1327C179.251 24.1858 179.313 24.2745 179.313 24.4251V27.5705C179.304 27.7301 179.251 27.8277 179.216 27.8719C178.624 28.758 177.608 29.3251 176.478 29.3251ZM163.531 33.0996V29.4312C164.272 30.1757 165.297 30.6275 166.463 30.6275C168.98 30.6275 170.976 28.5629 170.976 26.0201C170.976 23.4681 168.98 21.4036 166.463 21.4036C165.297 21.4036 164.272 21.8556 163.531 22.591V21.5809H162.206V33.0996H163.531ZM166.366 29.3338C165.235 29.3338 164.184 28.7934 163.619 27.8896C163.584 27.8364 163.531 27.7478 163.531 27.5972V24.4163C163.539 24.2655 163.592 24.1681 163.628 24.1239C164.219 23.2378 165.235 22.6972 166.366 22.6972C168.167 22.6972 169.633 24.1858 169.633 26.0201C169.633 27.8452 168.167 29.3338 166.366 29.3338Z" fill="#777776"/>
<path d="M216.835 9.41424C216.203 10.1425 215.192 10.7169 214.182 10.6349C214.055 9.65016 214.55 8.60392 215.129 7.95771C215.761 7.20893 216.867 6.67555 217.762 6.63452C217.867 7.66025 217.456 8.66546 216.835 9.41424ZM217.751 10.8297C216.287 10.7477 215.035 11.6401 214.34 11.6401C213.634 11.6401 212.571 10.8708 211.413 10.8913C209.907 10.9118 208.507 11.7426 207.738 13.0658C206.159 15.7122 207.327 19.6305 208.854 21.7845C209.602 22.8513 210.497 24.0206 211.676 23.9796C212.792 23.9385 213.234 23.2718 214.582 23.2718C215.94 23.2718 216.33 23.9796 217.509 23.9591C218.73 23.9385 219.499 22.8923 220.246 21.8255C221.099 20.6152 221.447 19.4356 221.468 19.3741C221.447 19.3535 219.109 18.4817 219.088 15.8558C219.067 13.6608 220.931 12.6145 221.015 12.553C219.962 11.0349 218.32 10.8708 217.751 10.8297ZM226.206 7.85514V23.8462H228.754V18.3791H232.281C235.503 18.3791 237.767 16.2251 237.767 13.1069C237.767 9.98865 235.545 7.85514 232.365 7.85514H226.206ZM228.754 9.94762H231.691C233.902 9.94762 235.166 11.0964 235.166 13.1171C235.166 15.1378 233.902 16.2969 231.681 16.2969H228.754V9.94762ZM242.42 23.9693C244.021 23.9693 245.505 23.1795 246.179 21.9281H246.232V23.8462H248.59V15.8866C248.59 13.5787 246.695 12.0914 243.779 12.0914C241.073 12.0914 239.072 13.5992 238.998 15.6712H241.294C241.483 14.6865 242.42 14.0403 243.705 14.0403C245.263 14.0403 246.137 14.748 246.137 16.0507V16.9328L242.957 17.1175C239.999 17.2918 238.398 18.4714 238.398 20.5229C238.398 22.5948 240.051 23.9693 242.42 23.9693ZM243.105 22.0717C241.746 22.0717 240.883 21.4358 240.883 20.4613C240.883 19.4561 241.715 18.8715 243.305 18.7791L246.137 18.6048V19.5074C246.137 21.005 244.831 22.0717 243.105 22.0717ZM251.738 28.1953C254.223 28.1953 255.392 27.2722 256.413 24.4719L260.888 12.2453H258.298L255.297 21.6922H255.245L252.244 12.2453H249.58L253.897 23.8873L253.665 24.595C253.276 25.7951 252.644 26.2567 251.517 26.2567C251.317 26.2567 250.928 26.2362 250.77 26.2157V28.1338C250.917 28.1748 251.549 28.1953 251.738 28.1953Z" fill="black"/>
<path d="M127.623 13.7403C127.921 14.1409 128.153 14.5875 128.309 15.0627C128.64 16.0503 128.64 17.1198 128.308 18.1072C128.152 18.5824 127.921 19.029 127.623 19.4296C127.526 19.5586 127.455 19.7056 127.415 19.8621C127.375 20.0187 127.366 20.1816 127.389 20.3416C127.412 20.5016 127.467 20.6554 127.549 20.7941C127.632 20.9329 127.741 21.0538 127.87 21.1499C128 21.2459 128.147 21.3153 128.303 21.3539C128.459 21.3926 128.621 21.3997 128.78 21.3749C128.939 21.3501 129.091 21.2938 129.229 21.2095C129.366 21.1251 129.485 21.0142 129.579 20.8832C130.027 20.2785 130.377 19.6066 130.616 18.8923C131.112 17.3944 131.112 15.7754 130.616 14.2774C130.379 13.5619 130.028 12.8892 129.579 12.2848C129.386 12.0277 129.1 11.8577 128.782 11.8117C128.465 11.7657 128.142 11.8475 127.884 12.0392C127.627 12.2309 127.455 12.5172 127.406 12.8357C127.357 13.1542 127.435 13.4793 127.623 13.7403Z" fill="#231F20"/>
<path d="M131.798 11.456C132.736 13.0001 133.232 14.774 133.232 16.5828C133.232 18.3917 132.736 20.1656 131.798 21.7097C131.713 21.846 131.655 21.9981 131.628 22.1571C131.601 22.3161 131.606 22.4788 131.642 22.6359C131.679 22.793 131.745 22.9413 131.839 23.0722C131.933 23.2031 132.051 23.3141 132.188 23.3987C132.324 23.4833 132.476 23.5398 132.635 23.565C132.793 23.5903 132.955 23.5836 133.111 23.5456C133.267 23.5075 133.414 23.4388 133.543 23.3433C133.672 23.2479 133.781 23.1276 133.864 22.9894C135.044 21.0616 135.668 18.8427 135.668 16.5795C135.668 14.3162 135.044 12.0973 133.864 10.1695C133.78 10.033 133.67 9.91438 133.541 9.82055C133.411 9.72672 133.264 9.6595 133.109 9.6227C132.953 9.5859 132.792 9.58025 132.635 9.60609C132.477 9.63192 132.326 9.68874 132.19 9.77328C132.055 9.85782 131.937 9.96842 131.844 10.0988C131.75 10.2291 131.684 10.3766 131.647 10.5329C131.611 10.6892 131.605 10.8512 131.631 11.0096C131.657 11.168 131.714 11.3197 131.798 11.456Z" fill="#231F20"/>
<path d="M136.212 9.14132C137.523 11.4009 138.214 13.9701 138.213 16.5861C138.213 19.2021 137.52 21.771 136.208 24.0298C136.044 24.3107 135.999 24.6452 136.081 24.9599C136.163 25.2745 136.366 25.5434 136.646 25.7075C136.925 25.8716 137.258 25.9174 137.571 25.8348C137.884 25.7522 138.152 25.548 138.315 25.2671C139.842 22.6304 140.646 19.634 140.646 16.5831C140.646 13.5323 139.842 10.5359 138.315 7.89916C138.234 7.76036 138.126 7.63898 137.998 7.54195C137.871 7.44492 137.725 7.37414 137.57 7.33366C137.415 7.29318 137.253 7.2838 137.095 7.30604C136.936 7.32827 136.783 7.38169 136.645 7.46325C136.507 7.54481 136.387 7.65291 136.29 7.78138C136.193 7.90985 136.123 8.05619 136.083 8.21201C136.043 8.36783 136.033 8.53009 136.055 8.68955C136.077 8.849 136.131 9.00251 136.212 9.14132Z" fill="#231F20"/>
<path d="M140.622 6.80228C142.305 9.78431 143.189 13.154 143.189 16.5822C143.189 20.0105 142.305 23.3801 140.622 26.3622C140.542 26.5017 140.49 26.6557 140.47 26.8153C140.449 26.9749 140.461 27.1371 140.502 27.2924C140.544 27.4477 140.616 27.5932 140.714 27.7205C140.812 27.8478 140.934 27.9544 141.074 28.0342C141.213 28.114 141.366 28.1654 141.525 28.1856C141.684 28.2057 141.845 28.1941 141.999 28.1514C142.154 28.1088 142.298 28.0359 142.425 27.937C142.551 27.8381 142.657 27.7152 142.736 27.5751C144.627 24.2235 145.621 20.4362 145.621 16.5831C145.621 12.73 144.627 8.94277 142.736 5.59115C142.575 5.31002 142.311 5.10424 142 5.01897C141.689 4.93369 141.357 4.97589 141.077 5.13632C140.797 5.29674 140.592 5.56227 140.507 5.87462C140.421 6.18696 140.463 6.52059 140.622 6.80228Z" fill="#231F20"/>
</svg>
