<svg width="29" height="34" viewBox="0 0 29 34" fill="none" xmlns="http://www.w3.org/2000/svg">
<g id="android pay">
<path id="Fill 5" fill-rule="evenodd" clip-rule="evenodd" d="M7.99878 6.37296H7.94129V14.0219C7.94129 14.66 8.46181 15.1822 9.0978 15.1822H10.095V17.8482C10.0953 18.4886 10.6129 19.008 11.2515 19.008C11.8901 19.008 12.4078 18.4886 12.408 17.8482V15.1822H13.9663V17.8482C13.9668 18.4886 14.4845 19.008 15.1231 19.008C15.7616 19.008 16.2791 18.4886 16.2796 17.8482V15.1822H17.2513C17.8876 15.1822 18.4079 14.66 18.4079 14.0219V6.37296H7.99878ZM10.3026 3.6174C10.3026 3.88974 10.5227 4.11054 10.7942 4.11054C11.0656 4.11054 11.2857 3.88974 11.2857 3.6174C11.2857 3.34506 11.0656 3.12425 10.7942 3.12425C10.5227 3.12425 10.3026 3.34506 10.3026 3.6174ZM15.0637 3.6174C15.0637 3.88974 15.2838 4.11054 15.5552 4.11054C15.8267 4.11054 16.0468 3.88974 16.0468 3.6174C16.0468 3.34506 15.8267 3.12425 15.5552 3.12425C15.2838 3.12425 15.0637 3.34506 15.0637 3.6174ZM7.95425 5.96705C7.95236 5.91409 7.95095 5.86114 7.95095 5.80795C7.95095 5.45215 7.99572 5.10582 8.07984 4.77296C8.40455 3.48974 9.31977 2.40699 10.5571 1.7642L9.75452 0.278618C9.7048 0.186892 9.73873 0.0724711 9.83016 0.0228256C9.92135 -0.02682 10.0354 0.0072227 10.0849 0.0987123L10.8969 1.60179C11.5878 1.30132 12.364 1.13276 13.1842 1.13276C13.9984 1.13276 14.7689 1.29919 15.4558 1.59541L16.2645 0.0987123C16.314 0.0072227 16.428 -0.02682 16.5192 0.0228256C16.6104 0.0724711 16.6443 0.186892 16.5949 0.278618L15.7965 1.75616C17.0944 2.42543 18.0405 3.57815 18.3268 4.93868C18.3593 5.09258 18.3831 5.24884 18.3982 5.40771V5.96705H7.95425ZM21.1292 7.33041C21.129 6.68975 20.6113 6.17036 19.9727 6.17036C19.3341 6.17036 18.8164 6.68975 18.8162 7.33041V12.2039C18.8164 12.8446 19.3341 13.364 19.9727 13.364C20.6113 13.364 21.129 12.8446 21.1292 12.2039V7.33041ZM7.52703 7.33041V12.2039C7.52656 12.8446 7.00887 13.364 6.37029 13.364C5.73171 13.364 5.21425 12.8446 5.21378 12.2039V7.33041C5.21425 6.68975 5.73171 6.17036 6.37029 6.17036C7.00887 6.17036 7.52656 6.68975 7.52703 7.33041Z" fill="#70B958"/>
<path id="Fill 6" d="M28.2732 21.5719H26.7806L23.5392 29.3603H24.2016L20.9693 21.5809H19.4325L23.0976 30.1135L22.8061 30.7781C22.4795 31.5135 21.8612 31.8324 21.2695 31.8324H20.7837V33.1705H21.2519C22.5677 33.1705 23.6099 32.4618 24.1662 31.1149L28.2732 21.5719ZM18.6377 30.4414V21.5809H17.313V22.591C16.5709 21.8466 15.5466 21.4036 14.3807 21.4036C11.8549 21.4036 9.86773 23.4594 9.86773 26.0022C9.86773 28.5542 11.8549 30.6187 14.3807 30.6187C15.5466 30.6187 16.5709 30.1667 17.313 29.4312V30.4414H18.6377ZM14.478 29.3251C12.6673 29.3251 11.2014 27.8364 11.2014 26.0022C11.2014 24.1771 12.6673 22.6884 14.478 22.6884C15.6083 22.6884 16.677 23.2201 17.2246 24.1327C17.251 24.1858 17.313 24.2745 17.313 24.4251V27.5705C17.304 27.7301 17.251 27.8277 17.2159 27.8719C16.6239 28.758 15.6083 29.3251 14.478 29.3251ZM1.53063 33.0996V29.4312C2.27242 30.1757 3.29697 30.6275 4.46267 30.6275C6.97976 30.6275 8.97584 28.5629 8.97584 26.0201C8.97584 23.4681 6.97976 21.4036 4.46267 21.4036C3.29697 21.4036 2.27242 21.8556 1.53063 22.591V21.5809H0.205872V33.0996H1.53063ZM4.36559 29.3338C3.23523 29.3338 2.18405 28.7934 1.61899 27.8896C1.58365 27.8364 1.53063 27.7478 1.53063 27.5972V24.4163C1.53935 24.2655 1.59237 24.1681 1.62771 24.1239C2.2194 23.2378 3.23523 22.6972 4.36559 22.6972C6.16728 22.6972 7.63342 24.1858 7.63342 26.0201C7.63342 27.8452 6.16728 29.3338 4.36559 29.3338Z" fill="#777776"/>
</g>
</svg>
