<svg width="41" height="32" viewBox="0 0 41 32" fill="none" xmlns="http://www.w3.org/2000/svg">
<g id="mastercard">
<path id="Vector" d="M26.6939 3.22192H14.6792V22.8195H26.6939V3.22192Z" fill="#FF5F00"/>
<path id="&#60;Compound Path&#62;" d="M7.78885 31.7532V29.6758C7.80471 29.502 7.78275 29.3268 7.72447 29.1623C7.66619 28.9979 7.57297 28.8479 7.45124 28.7229C7.3295 28.5979 7.18213 28.5007 7.01926 28.4381C6.85639 28.3754 6.68188 28.3488 6.50774 28.36C6.27779 28.3509 6.04927 28.4 5.84343 28.503C5.6376 28.6059 5.46115 28.7592 5.33049 28.9486C5.2171 28.7588 5.05391 28.6035 4.8586 28.4998C4.66329 28.396 4.44332 28.3477 4.2225 28.36C4.02811 28.3515 3.83465 28.3914 3.65942 28.476C3.48419 28.5606 3.33266 28.6873 3.21839 28.8448V28.4293H2.56052V31.7532H3.21839V29.8489C3.20471 29.7349 3.2165 29.6193 3.25291 29.5104C3.28932 29.4016 3.34945 29.3021 3.42895 29.2193C3.50845 29.1365 3.60534 29.0724 3.71263 29.0316C3.81992 28.9907 3.93494 28.9742 4.04938 28.9833C4.53413 28.9833 4.81112 29.2949 4.81112 29.8489V31.7532H5.46899V29.8489C5.45531 29.7349 5.46711 29.6193 5.50352 29.5104C5.53993 29.4016 5.60006 29.3021 5.67956 29.2193C5.75906 29.1365 5.85595 29.0724 5.96324 29.0316C6.07053 28.9907 6.18555 28.9742 6.29999 28.9833C6.78473 28.9833 7.06173 29.2949 7.06173 29.8489V31.7532H7.78885ZM18.5918 28.4639H17.3799V27.4598H16.722V28.4639H16.0295V29.0525H16.722V30.6106C16.722 31.3724 16.999 31.8225 17.83 31.8225C18.1454 31.8163 18.4544 31.7331 18.7303 31.5801L18.5225 30.9915C18.3359 31.1082 18.1194 31.1683 17.8993 31.1646C17.8265 31.1706 17.7533 31.1601 17.6852 31.1339C17.6171 31.1076 17.5557 31.0663 17.5058 31.013C17.4559 30.9598 17.4186 30.8959 17.3968 30.8262C17.375 30.7566 17.3692 30.6829 17.3799 30.6106V29.0179H18.5918V28.4639ZM24.755 28.36C24.5758 28.3563 24.3988 28.399 24.2411 28.484C24.0833 28.5689 23.9502 28.6932 23.8547 28.8448V28.4293H23.1969V31.7532H23.8547V29.8835C23.8547 29.3295 24.1317 28.9833 24.5818 28.9833C24.734 28.9893 24.885 29.0126 25.032 29.0525L25.2397 28.4293C25.081 28.3893 24.9185 28.3661 24.755 28.36ZM15.4409 28.7063C15.0356 28.4584 14.5652 28.3378 14.0906 28.36C13.2596 28.36 12.7402 28.7409 12.7402 29.3988C12.7402 29.9528 13.1211 30.2644 13.8482 30.3682L14.1944 30.4029C14.5753 30.4721 14.8177 30.6106 14.8177 30.7837C14.8177 31.0261 14.5407 31.1992 14.0213 31.1992C13.6241 31.2075 13.2351 31.0859 12.9133 30.853L12.5671 31.3724C12.9877 31.6505 13.4825 31.7953 13.9867 31.7879C14.9562 31.7879 15.4755 31.3377 15.4755 30.7145C15.4755 30.0913 15.06 29.8489 14.3329 29.745L13.9867 29.7104C13.6751 29.6758 13.3981 29.5719 13.3981 29.3641C13.3981 29.1564 13.6751 28.9486 14.0559 28.9486C14.4182 28.9644 14.7726 29.059 15.0947 29.2256L15.4409 28.7063ZM25.5167 30.0913C25.5025 30.3223 25.5376 30.5537 25.6196 30.7702C25.7016 30.9866 25.8286 31.1832 25.9923 31.3469C26.156 31.5106 26.3526 31.6376 26.569 31.7196C26.7855 31.8016 27.0169 31.8367 27.2479 31.8225C27.6739 31.8449 28.0931 31.7093 28.4252 31.4416L28.0789 30.9222C27.8343 31.1217 27.5289 31.2317 27.2133 31.2339C26.9346 31.2118 26.6744 31.0855 26.4847 30.8802C26.2949 30.6748 26.1895 30.4055 26.1895 30.1259C26.1895 29.8463 26.2949 29.5769 26.4847 29.3716C26.6744 29.1662 26.9346 29.0399 27.2133 29.0179C27.5289 29.0201 27.8343 29.13 28.0789 29.3295L28.4252 28.8101C28.0931 28.5425 27.6739 28.4069 27.2479 28.4293C27.02 28.4019 26.7888 28.4255 26.5711 28.4983C26.3533 28.5711 26.1545 28.6914 25.9889 28.8504C25.8232 29.0094 25.695 29.2032 25.6133 29.4178C25.5317 29.6323 25.4987 29.8624 25.5167 30.0913ZM20.8424 28.36C19.8729 28.36 19.215 29.0525 19.215 30.0913C19.2002 30.3195 19.2336 30.5483 19.3132 30.7627C19.3927 30.9772 19.5166 31.1724 19.6767 31.3358C19.8368 31.4991 20.0295 31.6269 20.2423 31.7108C20.4551 31.7946 20.6831 31.8327 20.9116 31.8225C21.4002 31.8326 21.8772 31.6736 22.262 31.3724L21.9157 30.8876C21.6376 31.1032 21.298 31.2244 20.9462 31.2339C20.7005 31.2432 20.4602 31.1591 20.2739 30.9985C20.0876 30.8379 19.9691 30.6127 19.9421 30.3682H22.4005V30.0913C22.4005 29.0525 21.7772 28.36 20.8424 28.36ZM20.8424 28.9833C20.9545 28.9781 21.0665 28.9958 21.1716 29.0353C21.2767 29.0748 21.3726 29.1352 21.4536 29.2129C21.5345 29.2907 21.5989 29.3841 21.6426 29.4874C21.6863 29.5908 21.7086 29.702 21.708 29.8143H19.9075C19.9227 29.5806 20.0293 29.3623 20.2043 29.2068C20.3793 29.0512 20.6086 28.9709 20.8424 28.9833ZM11.8746 30.0913V28.4293H11.2167V28.8448C11.09 28.6836 10.9262 28.5553 10.7394 28.4709C10.5525 28.3865 10.348 28.3485 10.1433 28.36C9.68418 28.36 9.24383 28.5424 8.91916 28.8671C8.59449 29.1918 8.4121 29.6321 8.4121 30.0913C8.4121 30.5504 8.59449 30.9908 8.91916 31.3154C9.24383 31.6401 9.68418 31.8225 10.1433 31.8225C10.348 31.834 10.5525 31.796 10.7394 31.7116C10.9262 31.6272 11.09 31.4989 11.2167 31.3377V31.7532H11.8746V30.0913ZM9.17384 30.0913C9.18733 29.8893 9.25953 29.6957 9.38156 29.5342C9.50358 29.3728 9.67013 29.2505 9.86072 29.1823C10.0513 29.1142 10.2576 29.1033 10.4544 29.1509C10.6511 29.1984 10.8296 29.3024 10.9681 29.4501C11.1065 29.5977 11.1988 29.7826 11.2336 29.982C11.2683 30.1814 11.2441 30.3866 11.1639 30.5724C11.0836 30.7582 10.9508 30.9165 10.7818 31.0279C10.6128 31.1392 10.415 31.1988 10.2126 31.1992C10.0692 31.2027 9.92678 31.1759 9.79452 31.1205C9.66227 31.0651 9.54321 30.9824 9.44515 30.8778C9.34708 30.7732 9.27222 30.6491 9.22546 30.5135C9.17871 30.378 9.16112 30.2341 9.17384 30.0913ZM34.7615 28.36C34.5824 28.3563 34.4054 28.399 34.2476 28.484C34.0899 28.5689 33.9568 28.6932 33.8613 28.8448V28.4293H33.2034V31.7532H33.8613V29.8835C33.8613 29.3295 34.1383 28.9833 34.5884 28.9833C34.7406 28.9893 34.8916 29.0126 35.0385 29.0525L35.2463 28.4293C35.0876 28.3893 34.9251 28.3661 34.7615 28.36ZM32.1993 30.0913V28.4293H31.5414V28.8448C31.4147 28.6836 31.251 28.5553 31.0641 28.4709C30.8772 28.3865 30.6728 28.3485 30.4681 28.36C30.0089 28.36 29.5685 28.5424 29.2439 28.8671C28.9192 29.1918 28.7368 29.6321 28.7368 30.0913C28.7368 30.5504 28.9192 30.9908 29.2439 31.3154C29.5685 31.6401 30.0089 31.8225 30.4681 31.8225C30.6728 31.834 30.8772 31.796 31.0641 31.7116C31.251 31.6272 31.4147 31.4989 31.5414 31.3377V31.7532H32.1993V30.0913ZM29.5332 30.0913C29.5467 29.8893 29.6189 29.6957 29.7409 29.5342C29.8629 29.3728 30.0295 29.2505 30.2201 29.1823C30.4106 29.1142 30.617 29.1033 30.8137 29.1509C31.0104 29.1984 31.189 29.3024 31.3274 29.4501C31.4658 29.5977 31.5581 29.7826 31.5929 29.982C31.6277 30.1814 31.6035 30.3866 31.5232 30.5724C31.443 30.7582 31.3102 30.9165 31.1412 31.0279C30.9722 31.1392 30.7743 31.1988 30.5719 31.1992C29.9141 31.2339 29.5332 30.7145 29.5332 30.0913ZM38.9165 30.0913V27.1135H38.2586V28.8448C38.1319 28.6836 37.9682 28.5553 37.7813 28.4709C37.5944 28.3865 37.39 28.3485 37.1852 28.36C36.7261 28.36 36.2857 28.5424 35.9611 28.8671C35.6364 29.1918 35.454 29.6321 35.454 30.0913C35.454 30.5504 35.6364 30.9908 35.9611 31.3154C36.2857 31.6401 36.7261 31.8225 37.1852 31.8225C37.39 31.834 37.5944 31.796 37.7813 31.7116C37.9682 31.6272 38.1319 31.4989 38.2586 31.3377V31.7532H38.9165V30.0913ZM36.2158 30.0913C36.2292 29.8893 36.3014 29.6957 36.4235 29.5342C36.5455 29.3728 36.712 29.2505 36.9026 29.1823C37.0932 29.1142 37.2996 29.1033 37.4963 29.1509C37.693 29.1984 37.8716 29.3024 38.01 29.4501C38.1484 29.5977 38.2407 29.7826 38.2755 29.982C38.3103 30.1814 38.286 30.3866 38.2058 30.5724C38.1255 30.7582 37.9927 30.9165 37.8237 31.0279C37.6547 31.1392 37.4569 31.1988 37.2545 31.1992C37.1112 31.2027 36.9687 31.1759 36.8364 31.1205C36.7042 31.0651 36.5851 30.9824 36.4871 30.8778C36.389 30.7732 36.3141 30.6491 36.2674 30.5135C36.2206 30.378 36.203 30.2341 36.2158 30.0913Z" fill="black"/>
<path id="&#60;Path&#62;" d="M15.9257 13.0213C15.9262 11.136 16.3532 9.27524 17.1746 7.57833C17.9961 5.88142 19.1908 4.39231 20.6693 3.22249C19.1066 1.99383 17.2727 1.15673 15.3207 0.78104C13.3687 0.405346 11.3551 0.501957 9.44804 1.06281C7.54096 1.62366 5.79567 2.63249 4.35781 4.00511C2.91995 5.37773 1.83122 7.07433 1.18248 8.95334C0.533742 10.8323 0.343804 12.8393 0.628517 14.8066C0.91323 16.774 1.66434 18.6447 2.81916 20.2627C3.97398 21.8807 5.49903 23.199 7.26703 24.1077C9.03504 25.0164 10.9947 25.489 12.9826 25.4862C15.7719 25.4882 18.4802 24.5488 20.6693 22.8201C19.1908 21.6503 17.9961 20.1612 17.1746 18.4642C16.3532 16.7673 15.9262 14.9066 15.9257 13.0213Z" fill="#EB001B"/>
<path id="Vector_2" d="M40.8555 13.0214C40.8529 15.3573 40.1939 17.6455 38.9538 19.6251C37.7136 21.6046 35.9422 23.1959 33.8414 24.2174C31.7407 25.2389 29.3952 25.6495 27.0723 25.4025C24.7495 25.1554 22.5428 24.2607 20.7039 22.8202C22.1827 21.6507 23.3777 20.1616 24.1991 18.4646C25.0206 16.7676 25.4474 14.9067 25.4474 13.0214C25.4474 11.136 25.0206 9.27506 24.1991 7.57807C23.3777 5.88108 22.1827 4.39204 20.7039 3.22255C22.5428 1.78205 24.7495 0.887267 27.0723 0.640223C29.3952 0.393179 31.7407 0.803819 33.8414 1.82532C35.9422 2.84682 37.7136 4.43807 38.9538 6.41764C40.1939 8.3972 40.8529 10.6854 40.8555 13.0214Z" fill="#F79E1B"/>
</g>
</svg>
