<svg width="51" height="38" viewBox="0 0 51 38" fill="none" xmlns="http://www.w3.org/2000/svg">
<path d="M50.7178 4.82036V37.5014H0V4.7853C0 2.01384 2.14424 0 4.789 0H45.9269C48.5716 0 50.7158 1.99631 50.7158 4.7853C50.7178 4.79698 50.7178 4.80867 50.7178 4.82036Z" fill="#D3D1C8"/>
<path d="M50.7177 17.554H0.00187683V21.3343H50.7177V17.554Z" fill="url(#paint0_linear)"/>
<path d="M2.11301 26.0377V8.09235V6.26938C2.11301 6.10968 2.11301 5.95192 2.11301 5.79222C2.11301 5.65783 2.11495 5.52539 2.11885 5.39101C2.12664 5.09886 2.14417 4.80672 2.1948 4.51847C2.24739 4.22633 2.33308 3.95366 2.46941 3.68879C2.60184 3.42781 2.77517 3.18825 2.98356 2.9818C3.19194 2.77535 3.43149 2.60202 3.69246 2.46958C3.95732 2.33519 4.22998 2.2495 4.52406 2.19691C4.81229 2.14433 5.10637 2.12875 5.3985 2.12096C5.53288 2.11706 5.66532 2.11511 5.7997 2.11511C5.95939 2.11511 6.11714 2.11511 6.27684 2.11511H8.10169H44.3103H42.6179H44.4427C44.6024 2.11511 44.7602 2.11511 44.9199 2.11511C45.0543 2.11511 45.1867 2.11706 45.3211 2.12096C45.6132 2.12875 45.9073 2.14627 46.1955 2.19691C46.4877 2.2495 46.7603 2.33519 47.0271 2.46958C47.2881 2.60202 47.5276 2.77536 47.7341 2.98375C47.9405 3.1902 48.1158 3.42975 48.2482 3.69074C48.3846 3.95561 48.4702 4.22828 48.5228 4.52042C48.5754 4.80867 48.591 5.10276 48.5988 5.39295C48.6027 5.52734 48.6046 5.65978 48.6046 5.79416C48.6046 5.95387 48.6046 6.11162 48.6046 6.27133V8.0943V26.0397H2.11301V26.0377Z" fill="#319DCC"/>
<path d="M2.11301 30.2601V12.3148V10.4918C2.11301 10.3321 2.11301 10.1743 2.11301 10.0146C2.11301 9.88024 2.11495 9.7478 2.11885 9.61341C2.12664 9.32127 2.14417 9.02913 2.1948 8.74088C2.24739 8.44874 2.33308 8.17607 2.46941 7.91119C2.60184 7.65021 2.77517 7.41066 2.98356 7.20421C3.18999 6.99776 3.42954 6.82442 3.69051 6.69004C3.95538 6.55565 4.22803 6.46996 4.52211 6.41737C4.81035 6.36479 5.10443 6.34921 5.39656 6.34141C5.53094 6.33752 5.66337 6.33557 5.79775 6.33557C5.95745 6.33557 6.1152 6.33557 6.2749 6.33557H8.09974H44.3084H42.616H44.4408C44.6005 6.33557 44.7583 6.33557 44.918 6.33557C45.0523 6.33557 45.1848 6.33752 45.3191 6.34141C45.6113 6.34921 45.9054 6.36673 46.1936 6.41737C46.4857 6.46996 46.7584 6.55565 47.0252 6.69004C47.2862 6.82248 47.5257 6.99581 47.7321 7.20421C47.9386 7.41066 48.1139 7.65021 48.2463 7.91119C48.3826 8.17607 48.4683 8.44874 48.5209 8.74088C48.5735 9.02913 48.5891 9.32322 48.5969 9.61341C48.6007 9.7478 48.6027 9.88024 48.6027 10.0146C48.6027 10.1743 48.6027 10.3321 48.6027 10.4918V12.3148V30.2601H2.11301Z" fill="white"/>
<path d="M2.11301 30.2601V12.3148V10.4918C2.11301 10.3321 2.11301 10.1743 2.11301 10.0146C2.11301 9.88024 2.11495 9.7478 2.11885 9.61341C2.12664 9.32127 2.14417 9.02913 2.1948 8.74088C2.24739 8.44874 2.33308 8.17607 2.46941 7.91119C2.60184 7.65021 2.77517 7.41066 2.98356 7.20421C3.18999 6.99776 3.42954 6.82442 3.69051 6.69004C3.95538 6.55565 4.22803 6.46996 4.52211 6.41737C4.81035 6.36479 5.10443 6.34921 5.39656 6.34141C5.53094 6.33752 5.66337 6.33557 5.79775 6.33557C5.95745 6.33557 6.1152 6.33557 6.2749 6.33557H8.09974H44.3084H42.616H44.4408C44.6005 6.33557 44.7583 6.33557 44.918 6.33557C45.0523 6.33557 45.1848 6.33752 45.3191 6.34141C45.6113 6.34921 45.9054 6.36673 46.1936 6.41737C46.4857 6.46996 46.7584 6.55565 47.0252 6.69004C47.2862 6.82248 47.5257 6.99581 47.7321 7.20421C47.9386 7.41066 48.1139 7.65021 48.2463 7.91119C48.3826 8.17607 48.4683 8.44874 48.5209 8.74088C48.5735 9.02913 48.5891 9.32322 48.5969 9.61341C48.6007 9.7478 48.6027 9.88024 48.6027 10.0146C48.6027 10.1743 48.6027 10.3321 48.6027 10.4918V12.3148V30.2601H2.11301Z" fill="#FDB921"/>
<path d="M2.11304 34.4825V16.5372V14.7142C2.11304 14.5545 2.11304 14.3967 2.11304 14.237C2.11304 14.1026 2.11499 13.9702 2.11888 13.8358C2.12667 13.5437 2.1442 13.2515 2.19483 12.9633C2.24742 12.6711 2.33311 12.3985 2.46944 12.1336C2.60187 11.8726 2.7752 11.6331 2.98359 11.4266C3.19002 11.2202 3.42957 11.0468 3.69054 10.9125C3.95541 10.7781 4.22806 10.6924 4.52214 10.6398C4.81038 10.5872 5.10446 10.5716 5.39659 10.5638C5.53097 10.5599 5.6634 10.558 5.79778 10.558C5.95748 10.558 6.11523 10.558 6.27493 10.558H8.09977H44.3084H42.616H44.4408C44.6005 10.558 44.7583 10.558 44.918 10.558C45.0524 10.558 45.1848 10.5599 45.3192 10.5638C45.6113 10.5716 45.9054 10.5891 46.1936 10.6398C46.4858 10.6924 46.7584 10.7781 47.0252 10.9125C47.2862 11.0449 47.5257 11.2182 47.7322 11.4266C47.9386 11.6331 48.1139 11.8726 48.2463 12.1336C48.3827 12.3985 48.4683 12.6711 48.5209 12.9633C48.5735 13.2515 48.5891 13.5456 48.5969 13.8358C48.6008 13.9702 48.6027 14.1026 48.6027 14.237C48.6027 14.3967 48.6027 14.5545 48.6027 14.7142V16.5372V34.4825H2.11304Z" fill="white"/>
<path d="M2.11301 34.4827V16.5373V14.7143C2.11301 14.5546 2.11301 14.3969 2.11301 14.2372C2.11301 14.1028 2.11495 13.9703 2.11885 13.8359C2.12664 13.5438 2.14417 13.2517 2.1948 12.9634C2.24739 12.6713 2.33308 12.3986 2.46941 12.1337C2.60184 11.8727 2.77517 11.6332 2.98356 11.4267C3.18999 11.2203 3.42954 11.047 3.69051 10.9126C3.95538 10.7782 4.22803 10.6925 4.52211 10.6399C4.81035 10.5873 5.10443 10.5717 5.39656 10.5639C5.53094 10.5601 5.66337 10.5581 5.79775 10.5581C5.95745 10.5581 6.1152 10.5581 6.2749 10.5581H8.09974H44.3084H42.616H44.4408C44.6005 10.5581 44.7583 10.5581 44.918 10.5581C45.0523 10.5581 45.1848 10.5601 45.3191 10.5639C45.6113 10.5717 45.9054 10.5893 46.1936 10.6399C46.4857 10.6925 46.7584 10.7782 47.0252 10.9126C47.2862 11.045 47.5257 11.2183 47.7321 11.4267C47.9386 11.6332 48.1139 11.8727 48.2463 12.1337C48.3826 12.3986 48.4683 12.6713 48.5209 12.9634C48.5735 13.2517 48.5891 13.5458 48.5969 13.8359C48.6007 13.9703 48.6027 14.1028 48.6027 14.2372C48.6027 14.3969 48.6027 14.5546 48.6027 14.7143V16.5373V34.4827H2.11301Z" fill="#71BF49"/>
<path d="M2.11304 34.4825V20.7596V18.9366C2.11304 18.7769 2.11304 18.6191 2.11304 18.4594C2.11304 18.3251 2.11499 18.1926 2.11888 18.0582C2.12667 17.7661 2.1442 17.474 2.19483 17.1857C2.24742 16.8936 2.33311 16.6209 2.46944 16.356C2.60187 16.095 2.7752 15.8555 2.98359 15.649C3.19002 15.4426 3.42957 15.2692 3.69054 15.1349C3.95541 15.0005 4.22806 14.9148 4.52214 14.8622C4.81038 14.8096 5.10446 14.794 5.39659 14.7862C5.53097 14.7823 5.6634 14.7804 5.79778 14.7804C5.95748 14.7804 6.11523 14.7804 6.27493 14.7804H8.09977H44.3084H42.616H44.4408C44.6005 14.7804 44.7583 14.7804 44.918 14.7804C45.0524 14.7804 45.1848 14.7823 45.3192 14.7862C45.6113 14.794 45.9054 14.8116 46.1936 14.8622C46.4858 14.9148 46.7584 15.0005 47.0252 15.1349C47.2862 15.2673 47.5257 15.4406 47.7322 15.649C47.9386 15.8555 48.1139 16.095 48.2463 16.356C48.3827 16.6209 48.4683 16.8936 48.5209 17.1857C48.5735 17.474 48.5891 17.768 48.5969 18.0582C48.6008 18.1926 48.6027 18.3251 48.6027 18.4594C48.6027 18.6191 48.6027 18.7769 48.6027 18.9366V20.7596V34.4825H2.11304Z" fill="white"/>
<path d="M2.11301 34.4825V20.7596V18.9366C2.11301 18.7769 2.11301 18.6191 2.11301 18.4594C2.11301 18.3251 2.11495 18.1926 2.11885 18.0582C2.12664 17.7661 2.14417 17.474 2.1948 17.1857C2.24739 16.8936 2.33308 16.6209 2.46941 16.356C2.60184 16.095 2.77517 15.8555 2.98356 15.649C3.18999 15.4426 3.42954 15.2692 3.69051 15.1349C3.95538 15.0005 4.22803 14.9148 4.52211 14.8622C4.81035 14.8096 5.10443 14.794 5.39656 14.7862C5.53094 14.7823 5.66337 14.7804 5.79775 14.7804C5.95745 14.7804 6.1152 14.7804 6.2749 14.7804H8.09974H44.3084H42.616H44.4408C44.6005 14.7804 44.7583 14.7804 44.918 14.7804C45.0523 14.7804 45.1848 14.7823 45.3191 14.7862C45.6113 14.794 45.9054 14.8116 46.1936 14.8622C46.4857 14.9148 46.7584 15.0005 47.0252 15.1349C47.2862 15.2673 47.5257 15.4406 47.7321 15.649C47.9386 15.8555 48.1139 16.095 48.2463 16.356C48.3826 16.6209 48.4683 16.8936 48.5209 17.1857C48.5735 17.474 48.5891 17.768 48.5969 18.0582C48.6007 18.1926 48.6027 18.3251 48.6027 18.4594C48.6027 18.6191 48.6027 18.7769 48.6027 18.9366V20.7596V34.4825H2.11301Z" fill="#F37163"/>
<path d="M50.7178 37.9999H0V18.9989H12.3162C12.6181 18.9989 12.9219 18.9989 13.2238 19.0008C13.4789 19.0028 13.734 19.0047 13.9872 19.0125C14.5423 19.0281 15.1012 19.0593 15.6504 19.1586C16.2074 19.2579 16.7255 19.4215 17.2318 19.6786C17.1247 19.6241 18.6243 20.2395 19.9408 22.2865C20.8912 23.7628 22.7375 25.3287 25.3219 25.3287C27.9063 25.3287 29.7545 23.7628 30.7029 22.2865C31.9533 20.3428 33.3438 19.7117 33.41 19.6786C33.9164 19.4215 34.4344 19.2579 34.9914 19.1586C35.5406 19.0593 36.0996 19.0281 36.6546 19.0125C36.9097 19.0047 37.1649 19.0028 37.4181 19.0008C37.7199 18.9989 38.0237 18.9989 38.3256 18.9989H50.7158V37.9999H50.7178Z" fill="#D3D1C8"/>
<defs>
<linearGradient id="paint0_linear" x1="25.36" y1="17.5538" x2="25.36" y2="21.3333" gradientUnits="userSpaceOnUse">
<stop offset="0.0038" stop-color="#D3D1C8"/>
<stop offset="0.2318" stop-color="#C4C3BB"/>
<stop offset="0.6887" stop-color="#A5A59F"/>
<stop offset="1" stop-color="#8C8D88"/>
</linearGradient>
</defs>
</svg>
