<svg width="343" height="170" viewBox="0 0 343 170" fill="none" xmlns="http://www.w3.org/2000/svg">
<g id="illustration">
<g id="reception">
<path id="Fill 3" fill-rule="evenodd" clip-rule="evenodd" d="M39.1411 17.5154C39.1411 27.1888 31.3014 35.0303 21.6306 35.0303C11.9599 35.0303 4.12012 27.1888 4.12012 17.5154C4.12012 7.84194 11.9599 6.16665e-09 21.6306 6.16665e-09C31.3014 6.16665e-09 39.1411 7.84194 39.1411 17.5154Z" fill="#C6D5E1"/>
<path id="Fill 4" fill-rule="evenodd" clip-rule="evenodd" d="M36.0352 17.5154C36.0352 25.4728 29.5859 31.9234 21.6307 31.9234C13.6754 31.9234 7.2262 25.4728 7.2262 17.5154C7.2262 9.55752 13.6754 3.10693 21.6307 3.10693C29.5859 3.10693 36.0352 9.55752 36.0352 17.5154Z" fill="white"/>
<path id="Fill 5" fill-rule="evenodd" clip-rule="evenodd" d="M18.9928 19.6639L27.7194 15.9782C28.3183 15.7253 28.5557 15.1189 28.2497 14.6239C27.9438 14.1293 27.2117 13.9322 26.6106 14.1855L21.4289 16.3733V6.94334C21.4289 6.38725 20.8834 5.9364 20.2106 5.9364C19.5383 5.9364 18.9928 6.38725 18.9928 6.94334V19.6639Z" fill="#C6D5E1"/>
<g id="Fill 6">
<path fill-rule="evenodd" clip-rule="evenodd" d="M91.7017 50.8853C91.6077 51.8891 91.4753 53.2256 91.2658 54.8861C91.1708 55.713 91.0373 56.5952 90.9028 57.5294C90.8278 57.992 90.7508 58.4673 90.6722 58.9533C90.5829 59.4312 90.492 59.9198 90.399 60.4165C90.1942 61.3932 89.9739 62.3996 89.6915 63.3435C89.4882 64.0687 89.2392 64.7755 88.9761 65.3501C88.8943 65.5288 88.8112 65.6946 88.7277 65.8443C88.6856 65.9373 88.6425 66.0007 88.6009 66.0533C88.5598 66.1116 88.5208 66.1709 88.4843 66.2312C88.4795 66.2395 88.4748 66.2467 88.4703 66.253C88.4394 66.296 88.4174 66.293 88.395 66.3247C88.4046 66.3081 88.4338 66.2785 88.4703 66.253C88.4923 66.2376 88.5168 66.2236 88.5413 66.2148C88.6163 66.1811 88.6414 66.1657 88.6671 66.1519C88.719 66.1243 88.7744 66.1034 88.8314 66.0891C88.9475 66.0758 89.0573 66.0318 89.1775 66.0242C89.6463 65.9848 89.7967 66.1703 89.6412 66.0185C89.6333 66.0131 89.5997 65.9846 89.5405 65.9332C89.4959 65.8892 89.4501 65.8478 89.4029 65.8085C89.3043 65.7191 89.1816 65.5678 89.0692 65.4579C89.0382 65.4227 89.0072 65.3868 88.9761 65.3501C88.5246 64.8181 88.0582 64.1367 87.634 63.4754C87.1827 62.7405 86.7647 62.0132 86.3935 61.313C86.0197 60.6179 85.6921 59.9545 85.4009 59.3678C85.118 58.7709 84.871 58.2501 84.6677 57.8213C84.2734 56.9493 84.048 56.4516 84.048 56.4516C83.1427 54.4507 80.8352 53.5803 78.8727 54.4599C76.9103 55.3399 76.0358 57.6368 76.9195 59.5901C76.9493 59.6561 76.9868 59.7312 77.0196 59.7951C77.0196 59.7951 77.2938 60.3169 77.7744 61.2307C78.0245 61.6866 78.3284 62.2406 78.6766 62.8759C79.0391 63.5107 79.4468 64.2262 79.9274 65.0061C80.4023 65.7855 80.9538 66.6313 81.5813 67.5252C82.24 68.4232 82.9507 69.3692 83.9453 70.3674C84.2215 70.6224 84.4644 70.8687 84.7812 71.1268L85.2798 71.5122C85.366 71.5761 85.4436 71.6384 85.5375 71.7023L85.8518 71.8965C86.5891 72.3764 87.843 72.9652 89.4276 72.9059C89.8281 72.8865 90.2219 72.8472 90.6019 72.7209C90.7934 72.6652 90.9834 72.6023 91.1698 72.5328L91.446 72.424L91.6786 72.2972C91.9831 72.1245 92.2984 71.9292 92.5648 71.7274C92.7887 71.5337 93.0069 71.3308 93.2169 71.1212C93.4496 70.902 93.5594 70.7241 93.7222 70.5222C93.8634 70.3296 94.0375 70.1139 94.1396 69.9335L94.459 69.3789C94.5689 69.1903 94.6649 69.0069 94.7353 68.8382C95.3899 67.4307 95.7309 66.1683 96.0066 64.9534C96.2911 63.734 96.4718 62.5754 96.6382 61.4561C96.708 60.9011 96.7768 60.3557 96.8441 59.8211C96.898 59.2917 96.9509 58.7729 97.0027 58.2685C97.088 57.2637 97.1737 56.3136 97.222 55.4437C97.338 53.7142 97.3976 52.2182 97.431 51.24C97.4633 50.247 97.4818 49.6792 97.4818 49.6792C97.5337 48.127 96.3111 46.8273 94.7517 46.7757C93.2503 46.7266 91.9836 47.8618 91.845 49.3301C91.845 49.3301 91.7926 49.8954 91.7017 50.8853Z" fill="#6D362C"/>
<path d="M88.7277 65.8443C88.8112 65.6946 88.8943 65.5288 88.9761 65.3501C89.0072 65.3868 89.0382 65.4227 89.0692 65.4579C89.1816 65.5678 89.3043 65.7191 89.4029 65.8085C89.4501 65.8478 89.4959 65.8892 89.5405 65.9332C89.5997 65.9846 89.6333 66.0131 89.6412 66.0185C89.7967 66.1703 89.6463 65.9848 89.1775 66.0242C89.0573 66.0318 88.9475 66.0758 88.8314 66.0891C88.7744 66.1034 88.719 66.1243 88.6671 66.1519C88.6414 66.1657 88.6163 66.1811 88.5413 66.2148C88.5168 66.2236 88.4923 66.2376 88.4703 66.253C88.4748 66.2467 88.4795 66.2395 88.4843 66.2312C88.5208 66.1709 88.5598 66.1116 88.6009 66.0533C88.6425 66.0007 88.6856 65.9373 88.7277 65.8443Z" fill="#6D362C"/>
</g>
<path id="Fill 7" fill-rule="evenodd" clip-rule="evenodd" d="M66.166 49.9838C66.166 52.6419 73.4135 52.6419 73.4135 49.9838V43.0913H66.166V49.9838Z" fill="#FFDEA2"/>
<path id="Fill 8" fill-rule="evenodd" clip-rule="evenodd" d="M66.166 47.4162C66.166 50.0743 73.4135 50.0743 73.4135 47.4162V40.5232H66.166V47.4162Z" fill="#EFB67A"/>
<path id="Fill 9" fill-rule="evenodd" clip-rule="evenodd" d="M79.8103 30.7685C79.286 32.7194 79.8056 34.5521 80.9707 34.8623C82.1358 35.1726 83.5052 33.8422 84.0294 31.8914C84.5537 29.9406 84.0341 28.1073 82.869 27.7971C81.7039 27.4874 80.3345 28.8172 79.8103 30.7685Z" fill="#FFDEA2"/>
<path id="Fill 10" fill-rule="evenodd" clip-rule="evenodd" d="M69.4151 12.5484C69.4819 12.228 69.5276 11.8861 69.4074 11.5815C69.2909 11.2881 69.0372 11.0735 68.7872 10.8798C65.883 8.63609 62.0818 7.57712 58.4295 7.99468C59.955 8.46232 61.3481 9.35263 62.4109 10.5389C60.3945 9.94753 58.2447 10.5925 56.2437 11.2329C55.2096 11.5641 54.0291 12.0399 53.7364 13.0815C53.531 13.8108 53.8504 14.5836 54.2519 15.227C55.9885 18.0094 59.5047 19.5707 62.7447 18.9983C65.9852 18.4259 68.7466 15.7555 69.4151 12.5484Z" fill="#6D362C"/>
<path id="Fill 11" fill-rule="evenodd" clip-rule="evenodd" d="M58.6606 30.7685C59.1843 32.7194 58.6652 34.5521 57.5001 34.8623C56.3351 35.1726 54.9656 33.8422 54.4414 31.8914C53.9171 29.9406 54.4368 28.1073 55.6018 27.7971C56.7669 27.4874 58.1363 28.8172 58.6606 30.7685Z" fill="#FFDEA2"/>
<path id="Fill 12" fill-rule="evenodd" clip-rule="evenodd" d="M66.4822 45.8399C66.7117 45.8992 66.9402 45.9524 67.1671 45.9984C73.5531 47.3037 79.5905 42.5332 80.0459 36.0603L80.9014 25.6056C80.9014 19.3806 75.93 14.2073 69.6775 14.1046C69.4474 14.1005 69.2184 14.099 68.9905 14.099C62.7025 14.1067 57.7173 19.1679 57.8364 25.4257C57.9165 29.6227 58.2451 32.636 58.5481 36.2637C58.926 40.7919 62.0628 44.6997 66.4822 45.8399Z" fill="#FFDEA2"/>
<path id="Fill 13" fill-rule="evenodd" clip-rule="evenodd" d="M63.8769 15.4687C57.9859 13.546 53.2353 20.783 50.7691 24.9647C50.6469 25.1722 50.5232 25.3904 50.5088 25.6301C50.4919 25.9015 50.6166 26.1596 50.7465 26.3988C51.965 28.6465 53.9259 30.4874 56.2509 31.5679C57.2208 37.0278 58.2853 42.7095 61.6243 47.1473C59.1782 42.6088 58.3582 37.2741 59.1114 32.195C59.4883 29.6549 60.259 27.1695 61.42 24.8747C62.3725 22.9919 63.7583 21.5511 65.2037 20.0209C65.2926 19.9264 68.873 21.6508 69.2514 21.8123C71.3432 22.7057 73.1943 24.0662 74.9961 25.4287C76.5611 26.6124 77.3426 27.4286 78.0548 29.2746C78.694 30.93 79.1228 32.6652 79.3395 34.4253C79.5562 36.1865 79.5598 37.9738 79.3472 39.735C79.1962 40.9836 79.0237 43.7322 78.1292 44.6915C80.9328 41.6848 82.0634 37.2225 81.0288 33.2519C83.7029 31.3716 85.1473 28.2458 86.4736 25.2667C86.7355 24.6795 87.0019 24.0662 86.9778 23.4242C86.9455 22.5753 86.413 21.8338 85.8682 21.1801C81.571 16.0222 75.2862 12.7441 68.5541 12.9307C66.6769 12.9828 64.9413 13.9283 63.8769 15.4687Z" fill="#9F6840"/>
<path id="Fill 17" fill-rule="evenodd" clip-rule="evenodd" d="M70.6911 28.44C70.7286 28.3368 70.5602 28.2642 70.5129 28.3644C69.7468 29.9988 69.6139 31.6921 70.0821 33.4389C70.155 33.7119 70.5869 33.6045 70.5088 33.3342C70.039 31.7094 70.1155 30.031 70.6911 28.44Z" fill="#E6935C"/>
<path id="Fill 18" fill-rule="evenodd" clip-rule="evenodd" d="M71.9137 34.0155C71.637 33.4901 70.8159 33.4574 70.3312 33.2504C70.2254 33.2055 70.0955 33.3 70.1607 33.417C70.3677 33.7871 70.7825 33.877 71.1558 34.014C71.9353 34.2997 71.2626 34.9411 71.3725 35.4599C71.3833 35.5115 71.4449 35.5513 71.4968 35.5345C72.0739 35.3495 72.1561 34.4765 71.9137 34.0155Z" fill="#E6935C"/>
<path id="Fill 19" fill-rule="evenodd" clip-rule="evenodd" d="M71.8351 35.0555C71.8212 34.9947 71.7601 34.9646 71.7021 34.9753C71.4572 35.0203 71.2841 35.2937 71.069 35.4153C70.7568 35.5917 70.3306 35.6438 69.984 35.5503C69.8736 35.5206 69.7971 35.6836 69.9039 35.7368C70.3019 35.9366 70.7014 35.9816 71.127 35.8227C71.4197 35.7138 71.9203 35.4281 71.8351 35.0555Z" fill="#E6935C"/>
<path id="Fill 20" fill-rule="evenodd" clip-rule="evenodd" d="M64.551 32.9131C64.4355 32.632 64.3672 32.2957 64.3672 31.9333C64.3672 30.9485 64.8643 30.1501 65.4779 30.1501C66.0915 30.1501 66.5885 30.9485 66.5885 31.9333C66.5885 32.2957 66.5202 32.632 66.4047 32.9131H64.551Z" fill="white"/>
<path id="Fill 20_2" fill-rule="evenodd" clip-rule="evenodd" d="M65.4922 32.9696C65.4386 32.8124 65.4069 32.6243 65.4069 32.4216C65.4069 31.8707 65.6374 31.4242 65.9219 31.4242C66.2065 31.4242 66.437 31.8707 66.437 32.4216C66.437 32.6243 66.4053 32.8124 66.3517 32.9696H65.4922Z" fill="black"/>
<path id="Fill 21" fill-rule="evenodd" clip-rule="evenodd" d="M74.8892 32.9131C74.7737 32.632 74.7054 32.2957 74.7054 31.9333C74.7054 30.9485 75.2029 30.1501 75.8165 30.1501C76.4296 30.1501 76.9272 30.9485 76.9272 31.9333C76.9272 32.2957 76.8589 32.632 76.7433 32.9131H74.8892Z" fill="white"/>
<path id="Fill 21_2" fill-rule="evenodd" clip-rule="evenodd" d="M75.7924 32.9696C75.7389 32.8124 75.7072 32.6243 75.7072 32.4216C75.7072 31.8707 75.9379 31.4242 76.2223 31.4242C76.5066 31.4242 76.7372 31.8707 76.7372 32.4216C76.7372 32.6243 76.7056 32.8124 76.652 32.9696H75.7924Z" fill="black"/>
<path id="Fill 15" fill-rule="evenodd" clip-rule="evenodd" d="M77.9712 30.2884C77.7094 30.433 77.2628 30.4572 76.9617 30.3897C76.7071 30.3327 76.5581 30.1105 76.4065 29.9696C76.1628 29.7434 75.5988 29.9793 75.7255 30.2444C75.9009 30.6112 76.3635 30.8255 76.8815 30.8922C77.4843 30.9698 77.9024 30.7729 78.247 30.4427C78.3774 30.3174 78.115 30.2093 77.9712 30.2884Z" fill="#773322"/>
<path id="Fill 14" fill-rule="evenodd" clip-rule="evenodd" d="M65.1147 29.9798C64.7083 30.2666 64.1744 30.4499 63.6435 30.1549C63.4877 30.0684 63.2828 30.1694 63.3661 30.3029C63.5982 30.6772 63.9705 30.8443 64.5385 30.9018C65.0558 30.9543 65.631 30.7177 65.8651 30.3956C66.1089 30.059 65.5133 29.6986 65.1147 29.9798Z" fill="#773322"/>
<path id="Fill 22" fill-rule="evenodd" clip-rule="evenodd" d="M79.7702 99.576L81.0472 80.8089L62.7791 79.9207L59.8277 98.5589C59.6459 119.768 61.4276 134.017 62.1552 156.484H65.4168L70.2141 100.349L67.4373 155.152H70.9304C73.2862 135.543 77.9685 119.551 79.7702 99.576Z" fill="#FFDEA2"/>
<path id="Fill 23" fill-rule="evenodd" clip-rule="evenodd" d="M59.2567 50.6232C59.7527 50.4555 60.2369 50.3375 60.6933 50.2792L69.2544 49.187L79.3825 51.332C81.4102 51.7613 83.0015 53.3258 83.4579 55.3389C83.9339 59.7292 79.1299 76.3455 79.6059 80.7358L79.6074 80.7388L62.7791 79.9206L57.9869 66.7724L57.7224 73.2882L54.6447 73.8939L52.4548 59.397C52.8193 55.4059 55.4442 51.9101 59.2567 50.6232Z" fill="#FFDEA2"/>
<path id="Fill 24" fill-rule="evenodd" clip-rule="evenodd" d="M78.9877 117.969L83.0754 88.9505L81.0472 80.8089L62.7791 79.9207L56.4547 91.0229L58.9425 118.857L78.9877 117.969Z" fill="black"/>
<path id="Fill 25" fill-rule="evenodd" clip-rule="evenodd" d="M75.7945 50.572L77.5746 54.6847C78.2991 56.3585 77.1094 58.2337 75.28 58.3022L74.4702 58.3324C70.8734 58.4673 67.5394 56.4623 65.9867 53.2297L64.3451 49.8136L60.0844 50.3569L61.7901 57.4681C62.5598 60.6762 59.7553 65.4906 57.9869 66.7724L61.4276 75.9239L62.7791 79.9206L81.0472 80.8088L82.3047 71.109L84.6369 66.7653L79.8046 51.421L75.7945 50.572Z" fill="white"/>
<path id="Fill 26" fill-rule="evenodd" clip-rule="evenodd" d="M61.4276 75.924L62.7791 79.9206L81.0472 80.8089L81.3307 75.924H61.4276Z" fill="black"/>
<path id="Fill 27" fill-rule="evenodd" clip-rule="evenodd" d="M63.3137 97.4145L59.9299 79.5623L60.0845 62.2662C59.4349 60.5781 56.5179 67.3781 55.7349 65.7298C54.6309 63.4039 53.5675 61.0186 52.5596 58.6094C52.5154 58.8695 52.479 59.1317 52.4548 59.397L53.4674 79.1938L59.3065 98.4684L57.9428 103.683C58.2483 107.773 60.4536 107.861 63.345 106.748L63.3137 97.4145Z" fill="#FFDEA2"/>
<path id="Fill 28" fill-rule="evenodd" clip-rule="evenodd" d="M59.9951 72.2819L62.7791 79.9206L69.9764 80.2707L72.1478 65.3112L66.1659 49.187L64.7518 49.7615L60.6934 50.2792C60.2369 50.3375 59.7527 50.4555 59.2567 50.6232C55.6861 51.8283 53.1829 54.9781 52.577 58.6497C52.5714 58.6365 52.5652 58.6232 52.5596 58.6094C52.5154 58.8695 52.4789 59.1317 52.4548 59.397L53.4674 79.1938L58.523 95.8823H63.0235L59.9298 79.5623L59.9951 72.2819Z" fill="#6D362C"/>
<path id="Fill 29" fill-rule="evenodd" clip-rule="evenodd" d="M82.2765 71.6089C82.1609 75.2386 80.8531 79.0166 81.0472 80.8089L74.8307 80.5069L77.7687 65.3113L74.8307 53.4414L73.4135 49.9839L79.3826 51.3321C81.4102 51.7614 83.0015 53.3259 83.4579 55.339C83.6336 56.9607 83.595 59.8529 83.5006 63.0774L84.6369 66.7654L82.2765 71.6089Z" fill="#6D362C"/>
<path id="Fill 30" fill-rule="evenodd" clip-rule="evenodd" d="M65.4861 29.4071C66.5387 29.4071 67.3952 30.2591 67.3952 31.3068C67.3952 32.953 66.0489 34.292 64.395 34.292C62.7406 34.292 61.3948 32.953 61.3948 31.3068C61.3948 30.2591 62.2508 29.4071 63.3034 29.4071H65.4861ZM68.9284 31.3068C68.9284 29.4178 67.3839 27.881 65.4861 27.881H63.3034C61.4056 27.881 59.8616 29.4178 59.8616 31.3068C59.8616 33.7942 61.8949 35.8181 64.395 35.8181C66.8951 35.8181 68.9284 33.7942 68.9284 31.3068Z" fill="#6D4A4A"/>
<path id="Fill 31" fill-rule="evenodd" clip-rule="evenodd" d="M76.463 29.4071C77.5156 29.4071 78.372 30.2591 78.372 31.3068C78.372 32.953 77.0257 34.292 75.3719 34.292C73.718 34.292 72.3717 32.953 72.3717 31.3068C72.3717 30.2591 73.2276 29.4071 74.2802 29.4071H76.463ZM79.9053 31.3068C79.9053 29.4178 78.3608 27.881 76.463 27.881H74.2802C72.3824 27.881 70.8384 29.4178 70.8384 31.3068C70.8384 33.7942 72.8718 35.8181 75.3719 35.8181C77.8719 35.8181 79.9053 33.7942 79.9053 31.3068Z" fill="#6D4A4A"/>
<path id="Fill 32" fill-rule="evenodd" clip-rule="evenodd" d="M71.3021 31.4283C70.326 30.9203 69.4454 30.9188 68.5315 31.4196L67.7916 30.0832C69.1579 29.3339 70.5766 29.3313 72.0107 30.0745L71.3021 31.4283Z" fill="#6D4A4A"/>
<path id="Fill 33" fill-rule="evenodd" clip-rule="evenodd" d="M60.6282 31.2812H58.561C58.1379 31.2812 57.7944 30.9393 57.7944 30.5182C57.7944 30.097 58.1379 29.7551 58.561 29.7551H60.6282C61.0513 29.7551 61.3948 30.097 61.3948 30.5182C61.3948 30.9393 61.0513 31.2812 60.6282 31.2812Z" fill="#6D4A4A"/>
<path id="Fill 34" fill-rule="evenodd" clip-rule="evenodd" d="M81.1448 31.2812H79.0776C78.655 31.2812 78.311 30.9393 78.311 30.5182C78.311 30.097 78.655 29.7551 79.0776 29.7551H81.1448C81.5679 29.7551 81.9114 30.097 81.9114 30.5182C81.9114 30.9393 81.5679 31.2812 81.1448 31.2812Z" fill="#6D4A4A"/>
<g id="Fill 35">
<path fill-rule="evenodd" clip-rule="evenodd" d="M71.2431 64.8252C70.0298 63.7248 68.8293 62.6117 67.6525 61.476C66.4823 60.3333 65.2833 59.2191 64.1368 58.0533L63.9288 57.8417L66.1957 55.0612L66.6363 54.5207L66.8848 55.1222C66.655 55.1032 66.4253 55.0827 66.1957 55.0612C64.9352 54.9429 63.6779 54.7917 62.4187 54.6577C60.9322 54.4854 59.4411 54.3505 57.9577 54.1476L57.1207 54.0331L61.0657 51.678C62.1594 51.0571 63.2392 50.4146 64.3452 49.8136C63.3321 50.5598 62.2924 51.2646 61.267 51.9918L58.8497 53.6262L58.1451 54.1026L58.0167 53.566C58.2946 53.5839 58.5722 53.6043 58.8497 53.6262C60.0644 53.7225 61.2762 53.8508 62.4901 53.9544C63.9801 54.0955 65.4728 54.2125 66.9593 54.3883L67.6483 54.4701L67.2078 54.9904L64.8256 57.8056L64.6333 58.0329L64.6148 57.5887C64.6853 57.6608 64.7555 57.7331 64.8256 57.8056C65.8923 58.9084 66.9168 60.0516 67.9667 61.1704C69.0789 62.3694 70.1679 63.5909 71.2431 64.8252Z" fill="black"/>
<path d="M66.1957 55.0612L66.6363 54.5207L66.8848 55.1222C66.655 55.1032 66.4253 55.0827 66.1957 55.0612Z" fill="black"/>
<path d="M58.8497 53.6262L58.1451 54.1026L58.0167 53.566C58.2946 53.5839 58.5722 53.6043 58.8497 53.6262Z" fill="black"/>
<path d="M64.8256 57.8056L64.6333 58.0329L64.6148 57.5887C64.6853 57.6608 64.7555 57.7331 64.8256 57.8056Z" fill="black"/>
</g>
<g id="Fill 36">
<path fill-rule="evenodd" clip-rule="evenodd" d="M78.5256 64.4122C78.7197 63.2546 78.9318 62.1016 79.1752 60.9568C79.4096 59.887 79.6185 58.811 79.869 57.7451C79.8862 57.6718 79.9036 57.5985 79.9213 57.5253L80.0414 57.8744C79.9839 57.8313 79.9264 57.7882 79.869 57.7451C78.9333 57.0425 78.0047 56.3314 77.0797 55.6144L76.6191 55.2571L77.1444 54.9832C77.7364 54.6745 78.3423 54.3929 78.9426 54.1006C79.3604 53.909 79.775 53.7113 80.1949 53.5241C80.3854 53.4392 80.5771 53.3563 80.7705 53.2772L80.7808 53.8052L80.1949 53.5241L76.9077 51.9474C75.6276 51.3029 74.3373 50.6819 73.067 50.0165C74.4087 50.525 75.7298 51.0785 77.0612 51.608L81.0226 53.2721L81.551 53.4944L81.0324 53.8C80.4558 54.1404 79.8601 54.442 79.2712 54.7573C78.8525 54.9687 78.4365 55.1855 78.0166 55.3944C77.8387 55.4829 77.6601 55.57 77.4802 55.6548L77.5444 55.0241C77.7019 55.1474 77.8593 55.2708 78.0166 55.3944C78.8354 56.038 79.6505 56.6863 80.4599 57.3419L80.6355 57.4839L80.58 57.6909C80.2791 58.8214 79.9259 59.9392 79.6014 61.0636C79.2702 62.1864 78.9072 63.3016 78.5256 64.4122Z" fill="black"/>
<path d="M78.0166 55.3944C77.8387 55.4829 77.6601 55.57 77.4802 55.6548L77.5444 55.0241C77.7019 55.1474 77.8593 55.2708 78.0166 55.3944Z" fill="black"/>
<path d="M80.1949 53.5241C80.3854 53.4392 80.5771 53.3563 80.7705 53.2772L80.7808 53.8052L80.1949 53.5241Z" fill="black"/>
<path d="M79.869 57.7451C79.8862 57.6718 79.9036 57.5985 79.9213 57.5253L80.0414 57.8744C79.9839 57.8313 79.9264 57.7882 79.869 57.7451Z" fill="black"/>
</g>
<path id="Fill 37" fill-rule="evenodd" clip-rule="evenodd" d="M97.2589 57.1937L96.8528 54.6153C96.7403 53.9013 97.1147 53.1996 97.7719 52.893L100.146 51.7844C100.742 51.5054 101.441 51.8749 101.543 52.5234L101.949 55.1019C102.062 55.8153 101.688 56.5171 101.03 56.8237L98.6566 57.9328C98.0599 58.2113 97.3611 57.8418 97.2589 57.1937Z" fill="#EF5945"/>
<path id="Fill 38" fill-rule="evenodd" clip-rule="evenodd" d="M102.996 49.6721C103.847 49.6721 104.539 50.3605 104.539 51.2074C104.539 52.0542 103.847 52.7432 102.996 52.7432C102.146 52.7432 101.454 52.0542 101.454 51.2074C101.454 50.3605 102.146 49.6721 102.996 49.6721ZM102.996 53.7654C104.414 53.7654 105.566 52.618 105.566 51.2074C105.566 49.7973 104.414 48.6499 102.996 48.6499C101.58 48.6499 100.427 49.7973 100.427 51.2074C100.427 52.618 101.58 53.7654 102.996 53.7654Z" fill="#9FD6C5"/>
<path id="Fill 39" fill-rule="evenodd" clip-rule="evenodd" d="M102.996 56.3709C103.446 56.3709 103.809 56.0085 103.809 55.5618C103.809 55.1146 103.446 54.7523 102.996 54.7523C102.548 54.7523 102.184 55.1146 102.184 55.5618C102.184 56.0085 102.548 56.3709 102.996 56.3709ZM102.996 54.119C104.08 54.119 104.959 54.9935 104.959 56.0729C104.959 57.1518 104.08 58.0268 102.996 58.0268C101.913 58.0268 101.033 57.1518 101.033 56.0729C101.033 54.9935 101.913 54.119 102.996 54.119Z" fill="#426F72"/>
<path id="Fill 40" fill-rule="evenodd" clip-rule="evenodd" d="M103.617 63.4463L102.376 62.4241V56.6744H103.617V63.4463Z" fill="#426F72"/>
<path id="Fill 41" fill-rule="evenodd" clip-rule="evenodd" d="M102.996 56.0877C103.28 56.0877 103.51 55.8587 103.51 55.5766V52.6695C103.51 52.3874 103.28 52.1585 102.996 52.1585C102.713 52.1585 102.483 52.3874 102.483 52.6695V55.5766C102.483 55.8587 102.713 56.0877 102.996 56.0877Z" fill="#9FD6C5"/>
<path id="Fill 42" fill-rule="evenodd" clip-rule="evenodd" d="M100.213 44.0001C99.702 44.2955 99.2445 44.6839 98.8707 45.1398C98.2515 45.8942 97.873 46.8116 97.5033 47.7136C97.2132 48.4215 96.9236 49.1293 96.6335 49.8372C96.4482 50.29 96.269 50.8302 96.5349 51.2411C96.6556 51.4272 96.8523 51.5529 97.0587 51.6357C97.6574 51.8759 98.3362 51.787 98.9642 51.6357C100.127 51.3546 101.703 50.8634 102.504 49.9205C102.645 49.7544 102.736 49.5157 102.642 49.32C102.501 49.0297 102.086 49.0363 101.771 49.1155C101.45 49.1968 101.136 49.3072 100.835 49.4447C100.503 49.597 100.088 49.7764 99.8032 49.5474C99.644 49.4196 99.5896 49.1963 99.6152 48.9944C99.6404 48.793 99.7323 48.6065 99.8237 48.4245C100.039 47.9937 100.254 47.5623 100.47 47.1315C100.678 46.7165 100.889 46.2964 101.189 45.9422C101.409 45.6836 101.789 45.4531 102.068 45.6473C102.152 45.7061 102.21 45.7955 102.26 45.8855C102.478 46.2754 102.584 46.7272 102.649 47.1652C102.712 47.5879 102.598 47.9845 102.642 48.4092C102.675 48.7327 102.872 49.0726 103.193 49.1365C103.48 49.1937 103.773 49.0046 103.922 48.7532C104.072 48.5017 104.108 48.2012 104.13 47.9104C104.204 46.9327 104.15 45.9095 103.693 45.0417C103.235 44.1733 102.294 43.5023 101.315 43.605C100.924 43.6459 100.554 43.8033 100.213 44.0001Z" fill="#FFDEA2"/>
<path id="Fill 43" fill-rule="evenodd" clip-rule="evenodd" d="M101.351 42.9824C102.043 42.709 102.823 42.7269 103.549 42.8889C103.761 42.9364 103.986 42.9947 104.19 42.9216C104.49 42.8138 104.628 42.4304 104.527 42.1294C104.291 41.4323 103.54 41.5325 102.964 41.5212C102.288 41.5079 101.611 41.6045 100.963 41.7977C99.6676 42.1841 98.4836 42.9594 97.6518 44.025C97.526 44.186 97.4032 44.3639 97.3848 44.5673C97.3067 45.405 98.6705 45.1326 99.0694 44.8842C99.2774 44.7543 99.4376 44.5632 99.5983 44.3792C100.093 43.8104 100.649 43.2599 101.351 42.9824Z" fill="#FFDEA2"/>
<path id="Fill 44" fill-rule="evenodd" clip-rule="evenodd" d="M93.1605 50.1632C92.2157 48.8227 93.0218 46.6383 94.9612 45.2844C96.9006 43.93 100.721 43.8575 100.279 45.4347C99.072 49.7355 99.7467 50.961 99.7467 50.961C97.8074 52.3149 94.1053 51.5038 93.1605 50.1632Z" fill="#FFDEA2"/>
<path id="Fill 45" fill-rule="evenodd" clip-rule="evenodd" d="M61.4842 26.6288C62.0706 25.738 63.1339 25.1104 64.2081 25.023C65.1924 24.9427 66.9583 25.1804 67.2222 26.3262C67.2612 26.4949 67.1354 26.6983 66.9449 26.684C66.1706 26.6273 65.5478 26.0226 64.7627 25.8443C63.5863 25.5775 62.5635 26.13 61.6649 26.8087C61.5592 26.8884 61.4159 26.7331 61.4842 26.6288Z" fill="#9F6840"/>
<path id="Fill 46" fill-rule="evenodd" clip-rule="evenodd" d="M74.0091 25.0005C74.9781 24.8431 75.947 25.4304 76.2093 26.3667C76.2638 26.5614 76.0199 26.682 75.8802 26.5548C75.2476 25.9793 74.5267 25.7386 73.7052 26.081C73.1357 26.3181 72.7953 26.8706 72.2156 27.0367C72.0035 27.097 71.7196 26.9156 71.7478 26.6774C71.8634 25.7053 73.1352 25.1421 74.0091 25.0005Z" fill="#9F6840"/>
<path id="Fill 47" fill-rule="evenodd" clip-rule="evenodd" d="M160.65 157.515H46.1438V83.6714H160.65V157.515Z" fill="#C6D5E1"/>
<path id="Fill 48" fill-rule="evenodd" clip-rule="evenodd" d="M160.65 98.6855H0.579208V83.6714H160.65V98.6855Z" fill="#5BACB3"/>
<path id="Fill 49" fill-rule="evenodd" clip-rule="evenodd" d="M160.997 92.6747H0.579208V83.6714H160.997V92.6747Z" fill="#FFAC3B"/>
<path id="Fill 50" fill-rule="evenodd" clip-rule="evenodd" d="M46.7759 157.515H3.8147e-05V83.6714H46.7759V157.515Z" fill="#5BACB3"/>
<path id="Fill 51" fill-rule="evenodd" clip-rule="evenodd" d="M46.7759 92.9067H3.8147e-05V83.6714H46.7759V92.9067Z" fill="#EF7000"/>
<path id="Fill 52" fill-rule="evenodd" clip-rule="evenodd" d="M39.539 157.766H5.6286L3.31031 123H41.8573L39.539 157.766Z" fill="#FFAC3B"/>
<path id="Fill 53" fill-rule="evenodd" clip-rule="evenodd" d="M22.149 123V157.766H5.62865L3.31035 123H22.149Z" fill="#EF7000"/>
<path id="Fill 54" fill-rule="evenodd" clip-rule="evenodd" d="M31.8042 100.671L33.6937 91.7762C34.2329 89.2387 30.7957 87.894 29.4551 90.1178L27.2667 93.7475L27.9147 81.6741C28.0543 79.0722 24.4241 78.2836 23.4619 80.7067L19.7341 90.0932L18.2045 85.8768C17.2869 83.3464 13.498 84.1764 13.7327 86.8565L15.328 105.094L9.98284 100.029C8.36491 98.496 5.72004 99.9158 6.119 102.104L9.87964 122.75H34.3119L37.5812 117.046C38.7298 115.042 37.4272 112.525 35.1212 112.292L34.3119 112.21L37.3029 103.257C37.8431 101.64 36.4885 100.02 34.7926 100.256L31.8042 100.671Z" fill="#4F925A"/>
<path id="Fill 55" fill-rule="evenodd" clip-rule="evenodd" d="M9.98281 100.029L11.8118 101.762L15.1046 111.955C16.2599 115.532 21.1204 116.066 23.0315 112.826L24.0682 111.069L26.9057 114.562C29.6301 117.916 34.545 118.494 37.9796 115.864C37.9288 116.264 37.7999 116.665 37.5812 117.046L34.3119 122.75H9.8796L6.11897 102.104C5.72 99.9158 8.36487 98.496 9.98281 100.029Z" fill="#2C704C"/>
</g>
<g id="quoque">
<path id="Fill 83" fill-rule="evenodd" clip-rule="evenodd" d="M262.171 98.2804C262.171 98.2804 261.745 92.1709 254.376 93.4792C247.007 94.7875 249.224 101.279 249.224 101.279L250.544 100.989C250.544 100.989 249.044 95.4641 254.563 94.3299C260.082 93.1952 260.796 99.0864 260.796 99.0864L262.171 98.2804Z" fill="#2F2D3A"/>
<path id="Fill 84" fill-rule="evenodd" clip-rule="evenodd" d="M269.149 94.7749L240.847 100.451L244.065 120.921L273.65 115.236L269.149 94.7749Z" fill="#2F2D3A"/>
<path id="Fill 85" fill-rule="evenodd" clip-rule="evenodd" d="M268.51 95.4204L242.823 101.062L244.059 106.684L269.909 101.781L268.51 95.4204Z" fill="#302B40"/>
<path id="Fill 86" fill-rule="evenodd" clip-rule="evenodd" d="M198.758 162.709C198.758 164.175 212.314 165.364 229.037 165.364C245.76 165.364 259.316 164.175 259.316 162.709C259.316 161.243 245.76 160.054 229.037 160.054C212.314 160.054 198.758 161.243 198.758 162.709Z" fill="#ECEBE6"/>
<path id="Fill 86_2" fill-rule="evenodd" clip-rule="evenodd" d="M117.385 162.709C117.385 164.175 126.33 165.364 137.364 165.364C148.398 165.364 157.343 164.175 157.343 162.709C157.343 161.243 148.398 160.054 137.364 160.054C126.33 160.054 117.385 161.243 117.385 162.709Z" fill="#ECEBE6"/>
<path id="Fill 86_3" fill-rule="evenodd" clip-rule="evenodd" d="M153.437 162.709C153.437 164.175 162.381 165.364 173.415 165.364C184.449 165.364 193.394 164.175 193.394 162.709C193.394 161.243 184.449 160.054 173.415 160.054C162.381 160.054 153.437 161.243 153.437 162.709Z" fill="#ECEBE6"/>
<path id="Fill 87" fill-rule="evenodd" clip-rule="evenodd" d="M251.859 90.2992C251.859 90.2992 248.993 93.6758 250.806 95.2288C252.618 96.781 257.694 97.0397 257.901 95.0215C258.108 93.0032 257.021 91.2955 257.021 91.2955L256.111 90.2992L253.084 89.5883L251.859 90.2992Z" fill="#F8CB85"/>
<path id="Fill 88" fill-rule="evenodd" clip-rule="evenodd" d="M238.168 14.71C238.168 14.71 239.184 36.0375 230.545 35.7832C221.905 35.5294 224.192 19.2803 225.717 14.71C227.241 10.1396 238.168 14.71 238.168 14.71Z" fill="#F8CB85"/>
<path id="Fill 84_2" fill-rule="evenodd" clip-rule="evenodd" d="M228.677 26.2135C228.744 25.6528 229.17 25.2793 229.655 25.2786C229.932 25.2782 229.93 25.7831 229.655 25.7682C229.338 25.7515 229.056 25.9464 228.953 26.2959C228.867 26.5896 229.087 26.9816 229.276 27.1556C229.35 27.2236 229.256 27.3323 229.182 27.2958C228.797 27.107 228.62 26.6861 228.677 26.2135Z" fill="#CB8D63"/>
<path id="Fill 85_2" fill-rule="evenodd" clip-rule="evenodd" d="M229.461 24.8971C229.766 24.2102 230.051 23.5295 230.05 22.7427C230.05 22.6572 230.172 22.6344 230.183 22.723C230.287 23.618 230.113 24.8488 229.611 25.5721C229.53 25.6895 229.379 25.6531 229.293 25.5721C229.094 25.3837 229.386 25.0661 229.461 24.8971Z" fill="#CB8D63"/>
<path id="Fill 89" fill-rule="evenodd" clip-rule="evenodd" d="M237.957 22.3801C237.957 22.3801 240.92 14.8371 239.969 12.2039C239.019 9.57065 237.248 9.87315 237.248 9.87315C237.248 9.87315 235.823 7.28322 233.273 6.8518C230.725 6.41992 230.164 7.84449 230.164 7.84449C230.164 7.84449 227.01 5.8591 224.721 7.02446C222.431 8.18981 224.517 20.6602 224.517 20.6602C224.517 20.6602 224.937 15.1819 227.874 14.2758C229.528 13.7655 231.592 14.1717 233.289 14.5783C234.606 14.8934 235.701 15.209 236.211 15.0958C237.377 14.8371 237.377 14.8371 237.377 14.8371C237.377 14.8371 237.11 22.3701 237.957 22.3801Z" fill="#693128"/>
<path id="Fill 90" fill-rule="evenodd" clip-rule="evenodd" d="M237.608 22.5897C237.608 22.5897 239.451 22.0429 239.595 23.453C239.739 24.8631 237.435 24.892 237.435 24.892L237.608 22.5897Z" fill="#F8CB85"/>
<path id="Fill 92" fill-rule="evenodd" clip-rule="evenodd" d="M235.707 20.0864L232.165 19.5973C232.165 19.5973 232.165 19.0793 233.288 18.9355C234.411 18.7917 235.707 20.0864 235.707 20.0864Z" fill="#693128"/>
<path id="Fill 93" fill-rule="evenodd" clip-rule="evenodd" d="M225.93 19.1098L229.492 19.4168C229.492 19.4168 229.607 18.9119 228.544 18.5229C227.48 18.1342 225.93 19.1098 225.93 19.1098Z" fill="#693128"/>
<path id="Fill 97" fill-rule="evenodd" clip-rule="evenodd" d="M233.466 32.1569L233.754 31.9168L233.388 30.7813L233.1 31.0214L233.466 32.1569Z" fill="#693128"/>
<path id="Vector 13 (Stroke)" fill-rule="evenodd" clip-rule="evenodd" d="M230.607 31.0137C231.634 31.1287 232.663 31.1667 233.302 31.1667V31.6818C232.653 31.6818 231.596 31.6425 230.55 31.5257C229.514 31.4098 228.442 31.2136 227.779 30.8819L228.009 30.4211C228.582 30.7077 229.571 30.8978 230.607 31.0137Z" fill="#693128"/>
<path id="Fill 98" fill-rule="evenodd" clip-rule="evenodd" d="M234.95 21.7891C234.95 21.7891 234.835 22.9125 233.44 22.8309C232.691 22.7872 232.719 21.4415 232.719 21.4415L234.95 21.7891Z" fill="#FFFFFE"/>
<path id="Fill 99" fill-rule="evenodd" clip-rule="evenodd" d="M234.969 21.4415L232.636 21.0583L232.719 21.4415L235.069 21.8081L234.969 21.4415Z" fill="#222829"/>
<path id="Fill 100" fill-rule="evenodd" clip-rule="evenodd" d="M234.235 21.6358C234.235 21.6358 234.358 22.4355 233.627 22.4351C232.717 22.4351 233.016 21.4879 233.016 21.4879L234.235 21.6358Z" fill="#222829"/>
<path id="Fill 101" fill-rule="evenodd" clip-rule="evenodd" d="M233.211 21.7206C233.211 21.8053 233.28 21.8743 233.365 21.8743C233.45 21.8743 233.519 21.8053 233.519 21.7206C233.519 21.6354 233.45 21.5664 233.365 21.5664C233.28 21.5664 233.211 21.6354 233.211 21.7206Z" fill="#FFFFFE"/>
<g id="Group">
<path id="Fill 102" fill-rule="evenodd" clip-rule="evenodd" d="M228.456 21.2313C228.456 21.2313 228.694 22.3347 227.342 22.6887C226.616 22.8788 226.226 21.59 226.226 21.59L228.456 21.2313Z" fill="#FFFFFE"/>
<path id="Fill 103" fill-rule="evenodd" clip-rule="evenodd" d="M228.367 20.8944L226.03 21.2513L226.226 21.59L228.575 21.2121L228.367 20.8944Z" fill="#222829"/>
<path id="Fill 104" fill-rule="evenodd" clip-rule="evenodd" d="M227.729 21.306C227.729 21.306 228.092 22.0288 227.398 22.2546C226.532 22.5358 226.523 21.5424 226.523 21.5424L227.729 21.306Z" fill="#222829"/>
<path id="Fill 105" fill-rule="evenodd" clip-rule="evenodd" d="M226.78 21.7034C226.807 21.7844 226.894 21.8287 226.975 21.8023C227.055 21.7761 227.1 21.689 227.074 21.608C227.047 21.527 226.96 21.4829 226.879 21.5091C226.798 21.5354 226.754 21.6224 226.78 21.7034Z" fill="#FFFFFE"/>
</g>
<path id="Vector" d="M224.517 20.6595C224.516 20.6577 224.509 20.612 224.495 20.5264C224.506 20.5259 224.517 20.5255 224.529 20.525C224.521 20.6084 224.517 20.6554 224.517 20.659V20.6595Z" fill="white"/>
<path id="Vector_2" d="M224.706 21.3207L224.5 21.1007C224.628 21.1616 224.706 21.2085 224.706 21.2085V21.3207Z" fill="white"/>
<path id="Fill 91" fill-rule="evenodd" clip-rule="evenodd" d="M224.706 21.2084C224.706 21.2084 222.979 20.1729 222.518 21.496C222.057 22.8201 224.706 23.971 224.706 23.971V21.2084Z" fill="#F8CB85"/>
<path id="Vector_3" d="M233.365 21.8743C233.28 21.8743 233.211 21.8053 233.211 21.7206C233.211 21.6354 233.28 21.5664 233.365 21.5664C233.45 21.5664 233.519 21.6354 233.519 21.7206C233.519 21.8053 233.45 21.8743 233.365 21.8743Z" fill="white"/>
<path id="Fill 142" fill-rule="evenodd" clip-rule="evenodd" d="M235.38 31.7313V40.2774L230.544 43.8379L227.337 40.9248L228.603 33.2853L235.38 31.7313Z" fill="#F8CB85"/>
<path id="Fill 143" fill-rule="evenodd" clip-rule="evenodd" d="M243.653 39.8699C239.894 37.7849 224.325 37.0712 220.048 38.3664C215.771 39.6616 216.297 88.9224 216.297 88.9224L246.251 88.3986C246.251 88.3986 247.412 41.9549 243.653 39.8699Z" fill="#2F2D3A"/>
<path id="Fill 144" fill-rule="evenodd" clip-rule="evenodd" d="M242.907 80.3809V156.078H238.205L229.205 91.0516L222.842 156.078H216.297L217.334 82.6647L242.907 80.3809Z" fill="#2F2D3A"/>
<path id="Fill 145" fill-rule="evenodd" clip-rule="evenodd" d="M243.676 39.8523C243.676 39.8523 256.643 54.7963 258.717 63.7422C260.79 72.6877 256.816 90.4777 256.816 90.4777H251.496V63.7422L242.129 53.6093L243.676 39.8523Z" fill="#2F2D3A"/>
<path id="Fill 146" fill-rule="evenodd" clip-rule="evenodd" d="M236.383 38.2149L230.769 55.4657L226.06 37.7848L230.769 37.1212L236.383 38.2149Z" fill="#ECEBE6"/>
<path id="Fill 147" fill-rule="evenodd" clip-rule="evenodd" d="M235.65 36.3445L230.769 37.1212L232.971 40.8765L236.383 38.2149L235.65 36.3445Z" fill="#FFFFFE"/>
<path id="Fill 148" fill-rule="evenodd" clip-rule="evenodd" d="M230.769 37.1212L228.479 40.6177L226.06 37.7848L228.162 35.9464L230.769 37.1212Z" fill="#FFFFFE"/>
<path id="Fill 149" fill-rule="evenodd" clip-rule="evenodd" d="M230.769 37.1212L232.509 40.0885L231.358 42.5598L229.127 42.4088L228.856 40.0416L230.769 37.1212Z" fill="#DE4849"/>
<path id="Fill 150" fill-rule="evenodd" clip-rule="evenodd" d="M231.358 42.5598L233.401 47.3745L230.769 55.4657L228.17 45.7078L229.127 42.4088L230.769 41.8119L231.358 42.5598Z" fill="#DE4849"/>
<path id="Fill 151" fill-rule="evenodd" clip-rule="evenodd" d="M221.475 155.566L222.425 162.386H203.159C203.159 162.386 203.159 159.192 204.714 158.976C206.269 158.76 211.367 159.451 214.391 158.242C217.414 157.034 216.896 155.566 216.896 155.566H221.475Z" fill="#2F2D3A"/>
<path id="Fill 152" fill-rule="evenodd" clip-rule="evenodd" d="M242.382 156.078L243.505 162.386H233.483C233.483 162.386 233.397 159.883 235.125 158.976C236.853 158.069 237.544 157.206 237.544 157.206L239.099 154.789L242.382 156.078Z" fill="#2F2D3A"/>
<path id="Fill 153" fill-rule="evenodd" clip-rule="evenodd" d="M252.922 88.4909L254 63.9771C254 63.9771 257.069 67.0823 257.242 73.2115C257.415 79.3408 254.252 88.9223 254.252 88.9223L252.922 88.4909Z" fill="#302B40"/>
<path id="Fill 154" fill-rule="evenodd" clip-rule="evenodd" d="M203.001 93.2984C203.001 93.2984 199.691 98.2547 201.616 99.6653C203.541 101.075 206.252 99.965 207.636 98.4801C208.794 97.2376 207.241 92.9756 207.241 92.9756L204.169 92.496L203.001 93.2984Z" fill="#F8CB85"/>
<path id="Fill 155" fill-rule="evenodd" clip-rule="evenodd" d="M225.449 40.8625C225.449 40.8625 222.117 60.2772 219.032 68.9265C215.925 77.6353 207.828 94.7748 207.828 94.7748L203.397 93.0261L212.89 65.0662L219.167 39.4208L225.449 40.8625Z" fill="#2F2D3A"/>
<path id="Fill 156" fill-rule="evenodd" clip-rule="evenodd" d="M221.428 43.2627C221.428 43.2627 228.62 57.2469 229.268 60.743C229.916 64.239 228.414 86.2405 228.414 86.2405C228.414 86.2405 223.372 87.6547 220.975 86.2405C218.577 84.8268 217.281 72.5904 218.123 61.5197C218.965 50.4491 221.428 43.2627 221.428 43.2627Z" fill="#302B40"/>
<path id="Fill 157" fill-rule="evenodd" clip-rule="evenodd" d="M237.82 40.2197C237.82 40.2197 232.766 55.1105 231.795 60.743C230.823 66.375 229.527 85.6031 231.795 86.6391C234.062 87.675 244.17 86.2406 244.17 86.2406C244.17 86.2406 245.013 61.9084 244.17 56.211C243.327 50.5136 242.907 42.2267 242.907 42.2267L237.82 40.2197Z" fill="#302B40"/>
<path id="Fill 158" fill-rule="evenodd" clip-rule="evenodd" d="M238.235 90.0765H231.349C231.349 90.0765 234.52 122.676 236.421 124.144C238.322 125.611 238.235 90.0765 238.235 90.0765Z" fill="#302B40"/>
<path id="Fill 159" fill-rule="evenodd" clip-rule="evenodd" d="M225.449 93.9124C225.449 93.9124 224.585 122.178 221.215 122.859C217.846 123.539 218.969 93.9124 218.969 93.9124H225.449Z" fill="#302B40"/>
<path id="Fill 160" fill-rule="evenodd" clip-rule="evenodd" d="M220.784 157.019L217.472 156.689C217.472 156.689 217.328 158.3 214.966 159.249C212.605 160.199 206.5 158.962 205.434 159.595C204.369 160.227 204.138 161.148 204.138 161.148L221.475 160.818L220.784 157.019Z" fill="#302B40"/>
<path id="Fill 161" fill-rule="evenodd" clip-rule="evenodd" d="M240.971 156.689H238.725C238.725 156.689 238.033 158.156 237.4 158.587C236.766 159.019 235.615 159.336 235.24 160.199C234.866 161.062 234.866 161.81 234.866 161.81L241.748 161.263L240.971 156.689Z" fill="#302B40"/>
<path id="Fill 162" fill-rule="evenodd" clip-rule="evenodd" d="M257.441 102.192L258.224 106.992L256.189 107.591L254.507 103.095L257.441 102.192Z" fill="#FFFFFE"/>
<path id="Fill 163" fill-rule="evenodd" clip-rule="evenodd" d="M224.585 14.9417C224.585 14.9417 222.828 8.32331 225.593 7.89143C228.357 7.46 230.776 9.24387 230.776 9.24387C230.776 9.24387 231.13 7.08583 232.969 7.4023C234.808 7.71922 236.695 10.6252 236.695 10.6252C236.695 10.6252 237.918 9.93497 238.667 10.9705C239.416 12.0065 238.955 14.2511 236.104 14.3088C233.253 14.366 230.92 12.611 228.645 12.9563C226.371 13.3012 224.585 14.9417 224.585 14.9417Z" fill="#803825"/>
<path id="Fill 222" fill-rule="evenodd" clip-rule="evenodd" d="M317.642 16.7895C317.642 17.0699 317.87 17.2975 318.15 17.2975C318.431 17.2975 318.659 17.0699 318.659 16.7895C318.659 16.5091 318.431 16.2819 318.15 16.2819C317.87 16.2819 317.642 16.5091 317.642 16.7895Z" fill="#ECEBE6"/>
<path id="Fill 247" fill-rule="evenodd" clip-rule="evenodd" d="M286.411 55.8606L283.991 76.4538L275.227 97.509L278.132 98.567L289.564 77.8729L291.983 55.8606H286.411Z" fill="#F3B77C"/>
<path id="Fill 248" fill-rule="evenodd" clip-rule="evenodd" d="M325.489 162.698C325.489 163.85 314.197 164.783 300.267 164.783C286.337 164.783 275.044 163.85 275.044 162.698C275.044 161.545 286.337 160.611 300.267 160.611C314.197 160.611 325.489 161.545 325.489 162.698Z" fill="#ECEBE6"/>
<path id="Fill 249" fill-rule="evenodd" clip-rule="evenodd" d="M305.554 98.3737L308.825 157.342L311.901 157.283L314.941 98.7753L305.554 98.3737Z" fill="#F3B77C"/>
<path id="Fill 250" fill-rule="evenodd" clip-rule="evenodd" d="M291.168 100.03L290.86 157.687L293.934 157.628C293.934 157.628 298.654 134.443 296.415 126.289C297.776 116.338 298.286 102.67 298.286 102.67L291.168 100.03Z" fill="#F3B77C"/>
<path id="Fill 251" fill-rule="evenodd" clip-rule="evenodd" d="M289.315 91.0416L288.741 118.342L298.675 118.503L300.781 104.642L304.579 119.311L318.264 118.038L318.147 89.1053L289.315 91.0416Z" fill="#322A40"/>
<path id="Fill 252" fill-rule="evenodd" clip-rule="evenodd" d="M298.434 43.9295C298.434 43.9295 297.215 44.8965 292.734 44.9826C288.254 45.0687 284.689 55.6971 284.689 55.6971L290.07 56.2078L287.909 91.0913L320.404 89.9399C320.404 89.9399 323.057 49.6728 319.572 46.6646C316.087 43.6558 311.945 43.1207 311.945 43.1207L298.434 43.9295Z" fill="#E46D5A"/>
<path id="Fill 253" fill-rule="evenodd" clip-rule="evenodd" d="M308.401 25.6165C310.146 32.0938 306.848 39.5335 300.638 40.3351C294.617 41.1118 292.332 36.8048 291.329 30.1508C290.33 23.5175 292.644 16.1922 297.594 14.8605C302.544 13.5288 306.655 19.1392 308.401 25.6165Z" fill="#F3B77C"/>
<path id="Fill 84_3" fill-rule="evenodd" clip-rule="evenodd" d="M294.602 33.0623C294.692 32.3147 295.26 31.8168 295.906 31.8158C296.276 31.8153 296.273 32.4885 295.906 32.4687C295.484 32.4464 295.108 32.7063 294.97 33.1723C294.855 33.5638 295.148 34.0865 295.401 34.3185C295.5 34.4092 295.375 34.554 295.276 34.5054C294.763 34.2537 294.527 33.6925 294.602 33.0623Z" fill="#CB8D63"/>
<path id="Fill 85_3" fill-rule="evenodd" clip-rule="evenodd" d="M295.648 31.3073C296.054 30.3915 296.434 29.4838 296.432 28.4348C296.432 28.3209 296.596 28.2905 296.61 28.4085C296.749 29.6018 296.517 31.243 295.848 32.2074C295.74 32.3639 295.538 32.3153 295.424 32.2074C295.158 31.9562 295.547 31.5327 295.648 31.3073Z" fill="#CB8D63"/>
<path id="Fill 254" fill-rule="evenodd" clip-rule="evenodd" d="M297.465 36.3043L298.501 44.4514C298.501 44.4514 299.704 47.5896 303.392 47.4309C307.08 47.2722 308.241 43.6494 308.241 43.6494L308.865 29.3046L297.465 36.3043Z" fill="#F3B77C"/>
<path id="Fill 255" fill-rule="evenodd" clip-rule="evenodd" d="M280.265 162.024C280.265 162.024 281.439 159.103 284.103 158.262C286.768 157.42 294.14 156.883 294.14 156.883C294.14 156.883 295.76 158.914 295.294 162.043C294.073 162.041 280.265 162.024 280.265 162.024Z" fill="#E05441"/>
<path id="Fill 256" fill-rule="evenodd" clip-rule="evenodd" d="M279.672 161.868L295.732 161.559L295.752 162.591L279.689 162.767L279.672 161.868Z" fill="#322A40"/>
<path id="Fill 257" fill-rule="evenodd" clip-rule="evenodd" d="M281.511 161.198C281.511 161.198 282.2 159.404 284.024 158.787C285.847 158.17 293.544 157.441 293.544 157.441C293.544 157.441 295.056 158.963 294.657 160.276C294.259 161.588 281.511 161.198 281.511 161.198Z" fill="#E46D5A"/>
<path id="Fill 258" fill-rule="evenodd" clip-rule="evenodd" d="M301.292 21.5344C301.292 21.5344 303.137 24.709 303.982 26.7882C304.826 28.8669 305.081 30.1841 305.081 30.1841L306.348 29.869C306.348 29.869 306.202 26.9459 307.014 26.1169C307.826 25.2874 309.146 25.7878 309.146 25.7878C309.146 25.7878 309.913 20.704 308.657 17.4275C307.401 14.1505 302.535 12.5276 299.319 12.5848C296.103 12.6416 291.116 16.4695 288.872 16.2297C288.984 16.9334 289.641 20.9587 291.242 22.3251C292.843 23.6915 301.292 21.5344 301.292 21.5344Z" fill="#6A3228"/>
<path id="Fill 259" fill-rule="evenodd" clip-rule="evenodd" d="M297.302 26.4681C297.302 26.4681 297.316 25.5746 298.066 25.2978C298.815 25.0205 300.766 25.0444 301.031 25.378C301.296 25.7121 301.283 25.8965 301.283 25.8965L297.302 26.4681Z" fill="#6A3228"/>
<path id="Fill 260" fill-rule="evenodd" clip-rule="evenodd" d="M290.794 27.1231C290.794 27.1231 290.807 26.2296 291.557 25.9528C292.306 25.676 294.257 25.6994 294.521 26.033C294.787 26.3671 294.774 26.5514 294.774 26.5514L290.794 27.1231Z" fill="#6A3228"/>
<path id="Fill 261" fill-rule="evenodd" clip-rule="evenodd" d="M297.262 36.1859L297.425 35.7385C297.446 35.7459 299.607 35.4876 300.978 35.0765C302.29 34.6833 302.597 34.6976 302.609 34.6545L303.068 34.7836C303.053 34.8367 302.687 35.0612 301.115 35.5325C299.593 35.989 297.357 36.2199 297.262 36.1859Z" fill="#6A3228"/>
<path id="Fill 262" fill-rule="evenodd" clip-rule="evenodd" d="M298.442 27.3575L301.173 27.3923C301.173 27.3923 300.433 29.1256 299.482 29.2951C298.531 29.4646 298.442 27.3575 298.442 27.3575Z" fill="#FFFFFE"/>
<path id="Fill 263" fill-rule="evenodd" clip-rule="evenodd" d="M299.931 28.4224C300.039 28.8534 299.918 29.2546 299.662 29.3182C299.405 29.3817 299.11 29.0842 299.003 28.6532C298.896 28.2222 299.016 27.821 299.273 27.7574C299.529 27.6934 299.824 27.9914 299.931 28.4224Z" fill="#6A3228"/>
<path id="Fill 264" fill-rule="evenodd" clip-rule="evenodd" d="M291.98 28.0792L294.711 28.1135C294.711 28.1135 293.971 29.8473 293.02 30.0168C292.07 30.1863 291.98 28.0792 291.98 28.0792Z" fill="#FFFFFE"/>
<path id="Fill 265" fill-rule="evenodd" clip-rule="evenodd" d="M293.47 29.1442C293.578 29.5751 293.457 29.9764 293.2 30.0399C292.944 30.1035 292.649 29.806 292.542 29.375C292.434 28.944 292.555 28.5428 292.812 28.4788C293.069 28.4152 293.363 28.7127 293.47 29.1442Z" fill="#6A3228"/>
<path id="Fill 268" fill-rule="evenodd" clip-rule="evenodd" d="M311.149 59.8566L320.111 60.6775C320.111 60.6775 321.099 48.3631 317.959 47.6229C314.819 46.8822 311.185 52.2766 311.149 59.8566Z" fill="#E67868"/>
<path id="Fill 269" fill-rule="evenodd" clip-rule="evenodd" d="M290.162 89.1054C290.162 89.1054 290.033 47.9019 294.283 45.7894C298.533 43.6769 296.617 48.7111 302.853 48.6525C309.088 48.5935 309.204 44.4482 309.204 44.4482L313.737 44.7656C313.737 44.7656 310.307 49.5591 309.204 63.2476C308.102 76.937 313.481 82.5478 309.204 86.2639C304.929 89.9795 290.162 89.1054 290.162 89.1054Z" fill="#E67868"/>
<path id="Fill 270" fill-rule="evenodd" clip-rule="evenodd" d="M303.433 117.131L319.105 115.597V118.982L304.445 120.674L303.433 117.131Z" fill="#5D5872"/>
<path id="Fill 271" fill-rule="evenodd" clip-rule="evenodd" d="M288.248 116.338H299.629L299.364 120.674L288.026 119.649L288.248 116.338Z" fill="#5D5872"/>
<path id="Fill 272" fill-rule="evenodd" clip-rule="evenodd" d="M290.162 114.751C290.162 114.751 289.255 94.1256 294.177 93.5973C299.1 93.0684 297.194 115.121 297.194 115.121L290.162 114.751Z" fill="#312A46"/>
<path id="Fill 273" fill-rule="evenodd" clip-rule="evenodd" d="M306.51 115.597C306.51 115.597 301.164 94.6549 305.768 93.0685C310.373 91.4816 314.941 114.857 314.941 114.857L306.51 115.597Z" fill="#312A46"/>
<path id="Fill 274" fill-rule="evenodd" clip-rule="evenodd" d="M306.403 162.767C306.403 162.767 305.675 157.343 310.247 156.883C314.819 156.424 315.348 162.767 315.348 162.767H306.403Z" fill="#E05441"/>
<path id="Fill 275" fill-rule="evenodd" clip-rule="evenodd" d="M306.006 162.043L315.639 162.163L315.824 163.352H306.006V162.043Z" fill="#322A40"/>
<path id="Fill 276" fill-rule="evenodd" clip-rule="evenodd" d="M308.238 161.559L314.537 161.765C314.537 161.765 313.796 157.588 311.387 157.605C308.979 157.623 308.238 161.559 308.238 161.559Z" fill="#E46D5A"/>
<path id="Fill 277" fill-rule="evenodd" clip-rule="evenodd" d="M304.472 117.369L316.406 116.338C316.406 116.338 316.221 118.427 314.713 118.929C313.204 119.431 304.762 119.907 304.762 119.907L304.472 117.369Z" fill="#706C83"/>
<path id="Fill 278" fill-rule="evenodd" clip-rule="evenodd" d="M288.584 116.778H298.217C298.217 116.778 297.9 119.299 295.306 119.493C292.713 119.687 288.373 119.176 288.373 119.176L288.584 116.778Z" fill="#706C83"/>
<path id="Fill 279" fill-rule="evenodd" clip-rule="evenodd" d="M306.776 120.405L313.859 119.588L313.643 123.742C313.643 123.742 312.026 122.243 310.317 121.979C308.609 121.715 306.889 122.439 306.889 122.439L306.776 120.405Z" fill="#ECA061"/>
<path id="Fill 280" fill-rule="evenodd" clip-rule="evenodd" d="M291.061 119.923L297.088 120.468L296.737 123.742C296.737 123.742 296.065 122.314 294.46 121.52C292.854 120.727 291.061 121.52 291.061 121.52V119.923Z" fill="#ECA061"/>
<path id="Fill 281" fill-rule="evenodd" clip-rule="evenodd" d="M316.01 90.0972L315.692 82.6574L316.062 82.6421L316.379 90.0814L316.01 90.0972Z" fill="#D0232A"/>
<path id="Fill 282" fill-rule="evenodd" clip-rule="evenodd" d="M302.878 48.6895C300.41 48.6895 299.076 47.5155 298.389 46.5242C297.639 45.4409 297.489 44.3639 297.483 44.3184L297.85 44.2692C297.852 44.2796 297.998 45.3151 298.702 46.3258C299.639 47.6693 301.069 48.3405 302.961 48.3189C304.861 48.2977 306.454 47.4385 307.697 45.765C308.631 44.5082 309.001 43.2472 309.005 43.2346L309.361 43.3374C309.345 43.3915 308.968 44.6759 307.995 45.9855C306.698 47.7319 304.958 48.6669 302.965 48.689L302.878 48.6895Z" fill="#D0232A"/>
<path id="Fill 283" fill-rule="evenodd" clip-rule="evenodd" d="M320.937 59.7232L309.901 58.4542L309.944 58.0863L320.98 59.3558L320.937 59.7232Z" fill="#D0232A"/>
<path id="Fill 284" fill-rule="evenodd" clip-rule="evenodd" d="M287.997 89.9385L287.986 89.5683L320.474 88.5518L320.486 88.9219L287.997 89.9385Z" fill="#D0232A"/>
<path id="Fill 285" fill-rule="evenodd" clip-rule="evenodd" d="M316.01 115.603L315.85 110.4L315.974 109.74L315.369 109.7C315.261 109.693 314.974 109.675 314.933 109.447C314.919 109.362 314.879 109.144 315.682 108.767L314.151 90.2054L314.52 90.1752L316.073 108.997L315.952 109.05C315.753 109.139 315.553 109.247 315.426 109.333L316.416 109.397L316.222 110.429L316.38 115.592L316.01 115.603Z" fill="#2B2B33"/>
<path id="Fill 286" fill-rule="evenodd" clip-rule="evenodd" d="M314.691 98.2489C314.161 98.2489 312.873 98.0541 310.167 96.7608C308.61 96.0174 307.503 94.6825 306.965 92.9004C306.561 91.562 306.618 90.4579 306.621 90.4115L306.99 90.4322L306.806 90.4219L306.99 90.4322C306.99 90.4431 306.936 91.5273 307.324 92.8053C307.839 94.5022 308.849 95.7212 310.327 96.4272C313.843 98.1069 314.879 97.8643 314.889 97.8621L314.996 98.216C314.968 98.225 314.875 98.2489 314.691 98.2489Z" fill="#2B2B33"/>
<path id="Fill 287" fill-rule="evenodd" clip-rule="evenodd" d="M300.801 99.6702C300.653 99.6702 299.563 99.6247 298.581 98.3277C297.569 96.991 297.379 91.0087 297.372 90.7549L297.742 90.7437C297.744 90.805 297.935 96.8612 298.877 98.1041C299.562 99.0093 300.292 99.2298 300.623 99.283L300.519 90.7518L300.89 90.7468L300.998 99.6643L300.817 99.6698L300.801 99.6702Z" fill="#2B2B33"/>
<path id="Fill 288" fill-rule="evenodd" clip-rule="evenodd" d="M289.166 99.7712L289.104 99.406C289.117 99.4038 290.471 99.145 291.371 97.3566C292.302 95.5074 292.681 90.9465 292.685 90.9005L293.054 90.9307C293.038 91.1201 292.666 95.6088 291.702 97.5234C290.713 99.4881 289.229 99.7603 289.166 99.7712Z" fill="#2B2B33"/>
<path id="Fill 289" fill-rule="evenodd" clip-rule="evenodd" d="M297.981 116.389L297.625 116.286L300.162 107.493L300.518 107.595L297.981 116.389Z" fill="#2B2B33"/>
<path id="Fill 290" fill-rule="evenodd" clip-rule="evenodd" d="M317.115 119.207L316.804 115.821L317.173 115.787L317.484 119.173L317.115 119.207Z" fill="#3E3651"/>
<path id="Fill 291" fill-rule="evenodd" clip-rule="evenodd" d="M298.277 120.564L297.906 120.554L298.032 116.332L298.402 116.343L298.277 120.564Z" fill="#3E3651"/>
<path id="Fill 292" fill-rule="evenodd" clip-rule="evenodd" d="M285.824 161.76C285.823 161.753 285.769 161.05 285.579 159.91C285.401 158.843 284.504 158.288 284.495 158.283L284.686 157.966C284.729 157.992 285.739 158.616 285.944 159.849C286.138 161.007 286.191 161.704 286.193 161.732L285.824 161.76Z" fill="#D0232A"/>
<path id="Fill 293" fill-rule="evenodd" clip-rule="evenodd" d="M292.432 158.947C292.295 158.947 292.15 158.944 291.998 158.936C289.634 158.825 289.383 157.41 289.374 157.35L289.739 157.291C289.748 157.338 289.97 158.47 292.016 158.566C294.103 158.666 294.675 158.016 294.68 158.01L294.971 158.239C294.947 158.27 294.389 158.947 292.432 158.947Z" fill="#D0232A"/>
<path id="Fill 296" fill-rule="evenodd" clip-rule="evenodd" d="M320.98 74.7127L297.85 44.2693L294.573 44.8874L320.259 77.093L320.98 74.7127Z" fill="#322A40"/>
<path id="Fill 297" fill-rule="evenodd" clip-rule="evenodd" d="M319.427 61.9458C319.427 61.9458 319.928 78.8842 318.308 81.4624C316.688 84.0397 290.918 83.042 291.548 79.2538C292.178 75.4656 312.074 77.1909 312.074 77.1909L312.283 60.6776L319.427 61.9458Z" fill="#F3B77C"/>
<path id="Fill 298" fill-rule="evenodd" clip-rule="evenodd" d="M312.804 77.8729H297.526C297.526 77.8729 296.291 79.4278 300.808 80.1486C305.324 80.8695 311.463 80.4818 312.804 77.8729Z" fill="#F5C394"/>
<path id="Fill 299" fill-rule="evenodd" clip-rule="evenodd" d="M312.878 76.6743L313.266 61.8313L317.818 62.4304C317.818 62.4304 318.841 75.3345 312.878 76.6743Z" fill="#F5C394"/>
<path id="Fill 300" fill-rule="evenodd" clip-rule="evenodd" d="M312.283 60.6776L319.427 61.9458L319.5 66.2821C319.5 66.2821 318.259 64.4324 316.062 63.4799C313.866 62.5273 312.254 63.0043 312.254 63.0043L312.283 60.6776Z" fill="#ECA061"/>
<path id="Fill 301" fill-rule="evenodd" clip-rule="evenodd" d="M289.311 16.5506C289.311 16.5506 291.253 16.3838 294.194 15.1648C297.135 13.9462 299.112 13.5838 300.499 13.7339C301.886 13.884 304.534 14.7207 305.791 16.8882C307.049 19.0553 307.881 23.7798 306.036 23.7523C304.192 23.7243 302.19 18.2551 299.215 17.5892C296.24 16.9229 291.02 21.0028 289.311 16.5506Z" fill="#8D4028"/>
<path id="Fill 302" fill-rule="evenodd" clip-rule="evenodd" d="M288.713 73.1213L283.203 74.4882L287.333 84.343L292.373 83.0933L288.713 73.1213Z" fill="#322A40"/>
<path id="Fill 303" fill-rule="evenodd" clip-rule="evenodd" d="M296.782 77.0745C296.782 77.0745 291.741 75.5269 289.403 76.0088C287.067 76.4903 285.62 82.0898 290.08 82.5717C294.538 83.0532 295.907 81.1517 295.907 81.1517L296.782 77.0745Z" fill="#F3B77C"/>
<path id="Fill 304" fill-rule="evenodd" clip-rule="evenodd" d="M275.478 96.9049C275.478 96.9049 273.191 100.292 274.796 102.559C276.4 104.826 279.609 104.937 280.052 102.559C280.494 100.182 278.813 97.1434 278.813 97.1434L275.478 96.9049Z" fill="#F3B77C"/>
<path id="Fill 305" fill-rule="evenodd" clip-rule="evenodd" d="M310.372 27.0761C310.663 28.2455 309.95 29.4294 308.78 29.7202C307.61 30.0109 306.425 29.2991 306.134 28.1297C305.842 26.9603 306.555 25.7764 307.725 25.4857C308.896 25.1949 310.081 25.9067 310.372 27.0761Z" fill="#F3B77C"/>
<path id="Fill 306" fill-rule="evenodd" clip-rule="evenodd" d="M298.237 27.1614C298.278 27.192 301.484 27.2087 301.484 27.2087L301.371 28.0197L298.351 28.0792L298.237 27.1614Z" fill="#F3B77C"/>
<path id="Fill 307" fill-rule="evenodd" clip-rule="evenodd" d="M291.776 27.8832C291.817 27.9138 295.024 27.9305 295.024 27.9305L294.91 28.7059L291.889 28.7654L291.776 27.8832Z" fill="#F3B77C"/>
<path id="Fill 308" fill-rule="evenodd" clip-rule="evenodd" d="M291.776 28.7149L294.548 28.6504V28.8911H291.905L291.776 28.7149Z" fill="#6A3228"/>
<path id="Fill 309" fill-rule="evenodd" clip-rule="evenodd" d="M298.237 28.0237L301.008 27.9584V28.1996H298.366L298.237 28.0237Z" fill="#6A3228"/>
</g>
<g id="reception 2">
<g id="Page 1">
<g id="reception_2">
<path id="Fill 65" fill-rule="evenodd" clip-rule="evenodd" d="M134.525 47.805L145.183 45.5824L153.854 47.0086V55.4265H134.525V47.805Z" fill="#FFDEA2"/>
<path id="Fill 66" fill-rule="evenodd" clip-rule="evenodd" d="M149.86 47.3485C149.86 50.0383 139.291 50.0383 139.291 47.3485V40.3735H149.86V47.3485Z" fill="#FFDEA2"/>
<path id="Fill 67" fill-rule="evenodd" clip-rule="evenodd" d="M149.86 44.75C149.86 47.4398 139.291 47.4398 139.291 44.75V37.775H149.86V44.75Z" fill="#EFB67A"/>
<path id="Fill 68" fill-rule="evenodd" clip-rule="evenodd" d="M135.576 30.5107C136.104 32.4851 135.581 34.3399 134.408 34.6535C133.236 34.9671 131.857 33.6215 131.33 31.6471C130.802 29.6732 131.325 27.8184 132.498 27.5042C133.67 27.1906 135.049 28.5363 135.576 30.5107Z" fill="#FFDEA2"/>
<path id="Fill 69" fill-rule="evenodd" clip-rule="evenodd" d="M151.782 42.7198C147.064 43.9251 142.273 43.9393 137.407 42.7066C134.792 42.0439 132.959 39.684 132.959 36.9841V22.2463C132.959 15.9477 137.963 10.713 144.256 10.6086C144.341 10.6071 144.426 10.6061 144.51 10.6051C150.954 10.5402 156.192 15.8012 156.192 22.2503V37.0074C156.192 39.6926 154.382 42.0556 151.782 42.7198Z" fill="#FFDEA2"/>
<path id="Fill 70" fill-rule="evenodd" clip-rule="evenodd" d="M153.224 11.1427C154.154 12.5273 154.672 14.2504 154.408 15.9928C156.007 16.4184 157.122 18.2955 157.466 20.2385C158.203 24.397 156.926 29.123 155.611 32.9127C155.549 33.092 155.438 33.3053 155.281 33.2678C155.163 33.24 155.203 32.9193 155.063 32.9482C152.125 28.206 150.488 22.5954 151.395 19.0164C140.848 21.3288 136.051 20.6321 135.482 19.2936C134.307 22.7463 133.707 26.1206 133.422 29.7315C133.358 30.5446 133.294 31.3583 133.229 32.1715C132.043 28.2926 131.084 24.3245 131.612 20.1331C131.707 19.3853 131.857 18.606 132.278 18.0482C132.699 17.4899 133.469 17.2548 133.955 17.729C132.901 16.2618 132.319 14.3061 132.357 12.3596C132.368 11.8347 132.451 11.248 132.801 10.941C133.237 10.5595 133.844 10.7997 134.329 11.0788C135.285 11.6275 136.199 12.2811 137.057 13.0299C136.531 12.0744 135.999 11.1057 135.69 10.0194C135.381 8.93318 135.316 7.69798 135.717 6.65784C138.041 7.87074 140.665 7.78563 143.193 7.68785C145.721 7.59057 148.348 7.52369 150.661 8.76801C151.639 9.29391 152.542 10.1273 153.224 11.1427Z" fill="#9F6840"/>
<path id="Fill 71" fill-rule="evenodd" clip-rule="evenodd" d="M146.895 30.8674C146.698 30.4737 146.575 29.9802 146.575 29.4356C146.575 28.168 147.212 27.1405 147.997 27.1405C148.783 27.1405 149.419 28.168 149.419 29.4356C149.419 29.9802 149.296 30.4737 149.1 30.8674H146.895Z" fill="white"/>
<path id="Fill 72" fill-rule="evenodd" clip-rule="evenodd" d="M136.001 30.8674C135.804 30.4737 135.682 29.9802 135.682 29.4356C135.682 28.168 136.318 27.1405 137.103 27.1405C137.888 27.1405 138.525 28.168 138.525 29.4356C138.525 29.9802 138.402 30.4737 138.206 30.8674H136.001Z" fill="white"/>
<path id="Fill 71_2" fill-rule="evenodd" clip-rule="evenodd" d="M146.953 30.9091C146.846 30.6915 146.779 30.4186 146.779 30.1175C146.779 29.4166 147.125 28.8485 147.552 28.8485C147.979 28.8485 148.324 29.4166 148.324 30.1175C148.324 30.4186 148.258 30.6915 148.151 30.9091H146.953Z" fill="black"/>
<path id="Fill 72_2" fill-rule="evenodd" clip-rule="evenodd" d="M136.137 30.9091C136.031 30.6915 135.964 30.4186 135.964 30.1175C135.964 29.4166 136.31 28.8485 136.736 28.8485C137.163 28.8485 137.509 29.4166 137.509 30.1175C137.509 30.4186 137.442 30.6915 137.336 30.9091H136.137Z" fill="black"/>
<path id="Fill 73" fill-rule="evenodd" clip-rule="evenodd" d="M137.674 38.6813C141.459 38.6556 145.415 38.5001 149.071 38.1113C149.289 38.0267 149.383 38.3747 149.169 38.4599C145.464 38.8988 141.418 39.0863 137.627 38.8718C137.508 38.8328 137.55 38.6483 137.674 38.6813Z" fill="#E6935C"/>
<path id="Fill 74" fill-rule="evenodd" clip-rule="evenodd" d="M155.344 30.5107C154.816 32.4851 155.339 34.3399 156.512 34.6535C157.684 34.9671 159.063 33.6215 159.59 31.6471C160.118 29.6732 159.595 27.8184 158.422 27.5042C157.25 27.1906 155.872 28.5363 155.344 30.5107Z" fill="#FFDEA2"/>
<path id="Fill 77" fill-rule="evenodd" clip-rule="evenodd" d="M156.547 161.404C157.592 159.917 157.507 157.774 155.988 156.195C154.98 155.149 152.831 155.079 151.475 155.292C149.657 155.578 148.967 157.121 148.881 158.788C148.856 159.282 148.868 159.786 149.011 160.259C149.355 161.393 150.399 162.181 151.485 162.652C152.265 162.99 153.132 163.209 153.964 163.038C155.114 162.802 155.991 162.196 156.547 161.404Z" fill="#9F6840"/>
<path id="Fill 78" fill-rule="evenodd" clip-rule="evenodd" d="M129.946 164.466C129.584 164.333 129.305 164.029 129.119 163.69C128.499 162.558 128.875 161.087 129.684 160.081C130.493 159.074 131.657 158.429 132.789 157.809C134.122 157.08 135.466 156.346 136.913 155.883C138.361 155.42 139.936 155.24 141.402 155.637C141.961 156.564 141.762 157.801 141.173 158.709C140.585 159.618 139.671 160.26 138.756 160.837C136.479 162.269 134.039 163.438 131.497 164.315C130.996 164.488 130.444 164.649 129.946 164.466Z" fill="#9F6840"/>
<path id="Fill 79" fill-rule="evenodd" clip-rule="evenodd" d="M131.242 105.18V93.0996L155.911 91.8L156.902 102.582L156.328 156.33H148.971L144.694 100.311L142.522 102.572L142.412 156.33H135.704L131.242 105.18Z" fill="#2A2825"/>
<path id="Fill 80" fill-rule="evenodd" clip-rule="evenodd" d="M102.083 70.0432L101.373 70.8812L109.536 76.6048C114.152 79.9309 118.658 82.57 122.991 84.1133C125.042 84.8439 127.249 83.5301 127.564 81.3744L130.522 61.0999L124.709 52.7084C122.868 60.9485 121.301 68.96 121.433 75.5555L112.694 73.5847L109.238 69.531C107.132 67.664 103.903 67.8951 102.083 70.0432Z" fill="#FFDEA2"/>
<path id="Fill 81" fill-rule="evenodd" clip-rule="evenodd" d="M120.942 66.0782L121.963 57.2662C122.476 52.9313 125.72 49.4208 129.998 48.5711L138.004 46.9818L139.48 49.7886C141.686 53.9856 147.742 53.8341 149.737 49.5317L151.124 46.5385L157.685 47.6683C162.381 48.4769 166.139 52.0178 167.228 56.6607L168.893 63.7593L158.031 71.4796L156.993 67.359L157.194 98.4756L130.663 98.583L130.522 66.5626L129.605 69.8127L120.942 66.0782Z" fill="#EF5945"/>
<path id="Fill 82" fill-rule="evenodd" clip-rule="evenodd" d="M185.736 86.2203L184.641 81.2056L176.774 81.5248L170.093 77.9382L162.714 61.2509L157.858 66.1912L164.935 80.9041C166.117 82.9631 168.201 84.3442 170.557 84.6305L177.596 85.4857C179.196 87.8026 183.456 87.8715 185.736 86.2203Z" fill="#EFB67A"/>
<path id="Fill 83_2" fill-rule="evenodd" clip-rule="evenodd" d="M157.753 47.6799L159.165 47.9231C162.951 48.5752 165.96 51.4656 166.766 55.2239L169.094 66.0782L158.031 71.4796L157.753 70.1218V47.6799Z" fill="#EF5945"/>
<path id="Fill 84_4" fill-rule="evenodd" clip-rule="evenodd" d="M140.015 31.8847C140.117 31.1369 140.765 30.6388 141.503 30.6378C141.925 30.6373 141.922 31.3106 141.503 31.2909C141.022 31.2686 140.592 31.5285 140.435 31.9946C140.304 32.3863 140.638 32.9091 140.927 33.1412C141.04 33.2318 140.897 33.3767 140.784 33.3281C140.198 33.0763 139.929 32.5149 140.015 31.8847Z" fill="#E6935C"/>
<path id="Fill 85_4" fill-rule="evenodd" clip-rule="evenodd" d="M141.208 30.1292C141.672 29.2132 142.105 28.3053 142.103 27.256C142.103 27.142 142.29 27.1116 142.306 27.2297C142.465 28.4233 142.2 30.0649 141.437 31.0295C141.313 31.1861 141.083 31.1374 140.953 31.0295C140.649 30.7782 141.093 30.3547 141.208 30.1292Z" fill="#E6935C"/>
<path id="Fill 86_4" fill-rule="evenodd" clip-rule="evenodd" d="M134.734 24.5445C134.887 24.4659 135.043 24.4011 135.2 24.3393C136.223 23.7207 137.593 23.8939 138.689 24.3864C138.765 24.4198 138.84 24.4558 138.915 24.4938C139.066 24.5708 139.212 24.6524 139.348 24.739C140.136 25.2421 139.432 26.4966 138.631 26.0051C137.653 25.4048 136.504 25.3186 135.477 25.8526C134.62 26.298 133.871 24.9903 134.734 24.5445Z" fill="#9F6840"/>
<path id="Fill 87_2" fill-rule="evenodd" clip-rule="evenodd" d="M144.363 25.0688C144.427 25.0151 144.494 24.968 144.561 24.9199C144.62 24.819 144.71 24.7268 144.845 24.6544C146.517 23.7551 148.343 23.7308 150.064 24.5059C150.2 24.5672 150.303 24.702 150.366 24.8499C150.716 25.2948 150.263 26.1768 149.638 25.9377C149.056 25.7163 148.474 25.575 147.874 25.4908C147.088 25.4366 146.295 25.5679 145.548 25.8941C145.15 26.0684 144.78 25.8855 144.597 25.6018C144.593 25.6018 144.588 25.6023 144.584 25.6028C144.326 25.6069 144.149 25.2482 144.363 25.0688Z" fill="#9F6840"/>
<path id="Fill 88_2" fill-rule="evenodd" clip-rule="evenodd" d="M96.9431 70.5124C99.5422 68.1788 105.77 67.6483 108.522 69.9414C109.054 70.3857 108.586 71.1842 107.996 71.2121C106.328 71.2901 104.689 70.6563 102.987 70.6375C101.045 70.6163 99.2435 71.3023 97.3344 71.4588C96.856 71.4978 96.5963 70.824 96.9431 70.5124Z" fill="#FFDEA2"/>
<path id="Fill 89_2" fill-rule="evenodd" clip-rule="evenodd" d="M96.6854 73.0284C99.2395 70.7779 103.092 70.1152 106.362 69.7509C107.463 69.6278 107.644 71.3874 106.605 71.6432C105.018 72.0334 103.388 72.2011 101.804 72.6064C100.184 73.0213 98.6887 73.761 96.9877 73.7585C96.6328 73.7575 96.3984 73.2812 96.6854 73.0284Z" fill="#FFDEA2"/>
<path id="Fill 90_2" fill-rule="evenodd" clip-rule="evenodd" d="M98.7626 74.1861C101.447 72.5668 104.584 71.7653 107.677 71.397C108.79 71.2647 109.017 73.1246 107.927 73.3364C106.304 73.651 104.691 73.9626 103.085 74.3598C101.702 74.7018 100.308 75.2444 98.8735 75.0372C98.4457 74.9749 98.4472 74.3761 98.7626 74.1861Z" fill="#FFDEA2"/>
<path id="Fill 91_2" fill-rule="evenodd" clip-rule="evenodd" d="M100.921 73.7499C102.053 73.8319 103.177 73.8588 104.295 73.8066C104.115 73.192 104.467 72.3794 105.228 72.4605C105.312 72.4696 105.399 72.4833 105.483 72.4939L105.484 72.4934L105.497 72.4959C106.048 72.5663 106.613 72.6727 107.172 72.8237L108.938 73.1693C109.343 73.2488 109.571 73.5269 109.644 73.8512C109.796 73.9429 109.946 74.0361 110.089 74.1374C110.512 74.4384 110.689 75.2283 110.089 75.4871C109.352 75.8043 108.615 75.6523 107.874 75.3797C105.436 75.8742 103.011 75.6782 100.721 74.5048C100.37 74.3249 100.517 73.721 100.921 73.7499Z" fill="#FFDEA2"/>
<path id="Fill 92_2" fill-rule="evenodd" clip-rule="evenodd" d="M103.036 65.1905C105.271 64.5521 107.787 66.4298 109.146 68.0297C110.357 69.457 112.222 72.6934 111.484 74.5959C111.369 74.8917 111.001 75.1557 110.687 74.9323C109.247 73.9109 109.045 71.6629 108.196 70.1668C106.926 67.9279 104.504 67.5586 102.855 65.8598C102.642 65.6399 102.743 65.2741 103.036 65.1905Z" fill="#FFDEA2"/>
<path id="Fill 93_2" fill-rule="evenodd" clip-rule="evenodd" d="M167.811 99.494L166.573 81.1919L184.292 80.3256L187.154 98.502C187.331 119.186 185.603 135.076 184.897 156.986H181.733L177.08 100.248L179.773 155.686H176.385C174.101 136.564 169.558 118.974 167.811 99.494Z" fill="#FFDEA2"/>
<path id="Fill 94" fill-rule="evenodd" clip-rule="evenodd" d="M162.631 103.952C158.477 109.284 157.988 100.856 157.858 100.728L161.203 95.8922L164.373 78.2776C164.835 73.996 163.772 60.6347 164.234 56.3531C164.677 54.3898 166.22 52.8643 168.187 52.4453L178.011 50.3534L186.315 51.4189C186.758 51.4756 187.227 51.5911 187.708 51.7543C191.406 53.0092 193.953 56.4184 194.306 60.3105L192.101 72.1212H185.663L186.95 65.4242L183.345 76.2424L166.573 81.1919L168.761 84.6082C168.727 85.7897 164.275 97.8858 164.275 97.8858C164.275 97.8858 163.15 103.285 162.631 103.952Z" fill="#FFDEA2"/>
<path id="Fill 95" fill-rule="evenodd" clip-rule="evenodd" d="M171.667 51.7042L169.941 55.7153C169.238 57.3472 170.392 59.1762 172.166 59.2431L172.952 59.2724C176.441 59.4037 179.674 57.4485 181.181 54.2962L182.772 50.9645L186.905 51.4949L185.25 58.4299C184.504 61.5579 187.224 66.2535 188.94 67.5034L183.743 76.4279L184.292 80.3256L166.573 81.1919L166.192 72.8059L163.09 67.4968L167.778 52.5325L171.667 51.7042Z" fill="#31AFB3"/>
<path id="Fill 96" fill-rule="evenodd" clip-rule="evenodd" d="M183.743 76.428L184.292 80.3256L166.573 81.192L166.297 76.428H183.743Z" fill="#6D4A4A"/>
<path id="Fill 97_2" fill-rule="evenodd" clip-rule="evenodd" d="M177.311 80.667L184.292 80.3256L190.426 91.1531L193.382 109.656L177.311 111.64V80.667Z" fill="#EF7000"/>
<path id="Fill 98_2" fill-rule="evenodd" clip-rule="evenodd" d="M166.573 81.1919L177.311 80.667V111.64L163.613 110.648L164.605 89.132L166.573 81.1919Z" fill="#EF7000"/>
<path id="Fill 99_2" fill-rule="evenodd" clip-rule="evenodd" d="M173.097 94.7411L182.135 79.5035L187.761 63.6018C188.916 62.2706 189.308 69.4706 190.57 68.2196C192.352 66.4545 190.512 73.3788 192.234 71.5056C192.187 71.7587 192.134 72.0114 192.067 72.2622L188.148 81.311L176.399 97.0364L175.902 102.268C174.26 105.914 172.221 105.262 169.957 103.284L173.097 94.7411Z" fill="#FFDEA2"/>
<path id="Fill 100_2" fill-rule="evenodd" clip-rule="evenodd" d="M184.875 156.332C185.178 156.704 185.455 157.099 185.729 157.448C186.846 158.871 189.143 160.152 190.391 161.469C190.606 161.696 190.828 161.947 191.002 162.215C191.24 162.585 191.386 162.988 191.29 163.409C191.178 163.903 190.739 164.272 190.259 164.429C189.778 164.585 189.259 164.56 188.756 164.504C187.654 164.378 186.554 164.094 185.603 163.523C184.186 162.674 183.87 160.965 182.631 160.109C182.422 160.734 181.668 161.189 181.218 160.339C180.626 159.224 180.748 157.517 181.463 156.332H184.875Z" fill="#2A2825"/>
<path id="Fill 101_2" fill-rule="evenodd" clip-rule="evenodd" d="M167.022 161.674C168.321 159.973 170.688 159.587 172.505 158.457C173.738 157.69 175.625 156.604 176.331 155.467H179.813C180.186 156.375 180.168 157.529 179.956 158.373C179.794 159.015 179.461 159.615 178.971 160.062C178.546 160.449 177.572 160.849 177.083 160.33C176.921 160.158 176.948 159.886 176.986 159.652C175.72 160.459 174.396 161.316 173.028 161.936C171.781 162.501 170.403 162.763 169.038 162.75C168.536 162.746 168.034 162.703 167.542 162.624C167.24 162.576 166.873 162.448 166.837 162.143C166.818 161.972 166.918 161.811 167.022 161.674Z" fill="#2A2825"/>
<path id="Fill 102_2" fill-rule="evenodd" clip-rule="evenodd" d="M180.66 50.8368C180.66 53.0676 174.61 53.0676 174.61 50.8368V42.3855H180.66V50.8368Z" fill="#FFDEA2"/>
<path id="Fill 103_2" fill-rule="evenodd" clip-rule="evenodd" d="M180.66 47.7928C180.66 50.0236 174.61 50.0236 174.61 47.7928V42.0074H180.66V47.7928Z" fill="#EFB67A"/>
<path id="Fill 104_2" fill-rule="evenodd" clip-rule="evenodd" d="M168.056 31.6446C168.556 33.5146 168.06 35.2716 166.95 35.5685C165.839 35.8659 164.534 34.5912 164.034 32.7212C163.534 30.8511 164.03 29.0941 165.14 28.7972C166.251 28.4998 167.556 29.7745 168.056 31.6446Z" fill="#FFDEA2"/>
<path id="Fill 105_2" fill-rule="evenodd" clip-rule="evenodd" d="M188.218 31.6446C187.718 33.5146 188.214 35.2716 189.324 35.5685C190.435 35.8659 191.74 34.5912 192.24 32.7212C192.74 30.8511 192.244 29.0941 191.134 28.7972C190.023 28.4998 188.718 29.7745 188.218 31.6446Z" fill="#FFDEA2"/>
<path id="Fill 106" fill-rule="evenodd" clip-rule="evenodd" d="M180.761 46.0906C180.543 46.1473 180.325 46.198 180.108 46.2426C174.021 47.493 168.265 42.921 167.831 36.7166L167.015 26.6962C167.015 20.73 171.755 15.7719 177.716 15.6726C177.934 15.6691 178.153 15.6676 178.37 15.6681C184.364 15.6752 189.117 20.5263 189.003 26.5239C188.927 30.5462 188.614 33.4351 188.325 36.9117C187.965 41.2521 184.974 44.9977 180.761 46.0906Z" fill="#FFDEA2"/>
<path id="Fill 107" fill-rule="evenodd" clip-rule="evenodd" d="M183.245 16.9802C187.241 15.6691 191.637 16.3768 193.003 31.2651V41.0124C193.003 47.0182 187.708 50.8368 180.66 50.8368L180.761 46.0905C185.186 44.2651 187.5 41.0124 186.804 32.7714L171.339 24.1412L168.276 29.4462L169.023 41.0986C170.861 43.9196 172.993 45.2166 174.61 46.0151V51.078L173.977 51.3146L169.448 61.5858L167.015 61.1931C162.171 60.2705 161.767 38.9291 162.566 33.1589C165.214 14.0427 173.05 14.3877 178.786 14.5484C180.576 14.598 182.231 15.5044 183.245 16.9802Z" fill="#793522"/>
<path id="Fill 108" fill-rule="evenodd" clip-rule="evenodd" d="M182.682 34.0942C182.682 35.038 182.208 35.8036 181.623 35.8036C181.038 35.8036 180.564 35.038 180.564 34.0942C180.564 33.1503 181.038 32.3853 181.623 32.3853C182.208 32.3853 182.682 33.1503 182.682 34.0942Z" fill="white"/>
<path id="Fill 108_2" fill-rule="evenodd" clip-rule="evenodd" d="M181.8 34.2575C181.8 34.6842 181.57 35.0303 181.285 35.0303C181.001 35.0303 180.77 34.6842 180.77 34.2575C180.77 33.8307 181.001 33.4849 181.285 33.4849C181.57 33.4849 181.8 33.8307 181.8 34.2575Z" fill="black"/>
<path id="Fill 109" fill-rule="evenodd" clip-rule="evenodd" d="M172.951 34.0942C172.951 35.038 172.477 35.8036 171.892 35.8036C171.307 35.8036 170.833 35.038 170.833 34.0942C170.833 33.1503 171.307 32.3853 171.892 32.3853C172.477 32.3853 172.951 33.1503 172.951 34.0942Z" fill="white"/>
<path id="Fill 109_2" fill-rule="evenodd" clip-rule="evenodd" d="M172.015 34.2575C172.015 34.6842 171.785 35.0303 171.5 35.0303C171.215 35.0303 170.985 34.6842 170.985 34.2575C170.985 33.8307 171.215 33.4849 171.5 33.4849C171.785 33.4849 172.015 33.8307 172.015 34.2575Z" fill="black"/>
<path id="Fill 110" fill-rule="evenodd" clip-rule="evenodd" d="M181.901 32.0909C182.47 32.5213 183.217 32.7961 183.96 32.3533C184.178 32.2235 184.465 32.3754 184.349 32.5761C184.024 33.1374 183.502 33.3875 182.707 33.4739C181.983 33.5528 181.177 33.1975 180.85 32.7145C180.508 32.2101 181.343 31.6691 181.901 32.0909Z" fill="#773322"/>
<path id="Fill 111" fill-rule="evenodd" clip-rule="evenodd" d="M169.813 32.5535C170.128 32.7709 170.663 32.8073 171.025 32.7061C171.33 32.6205 171.509 32.2869 171.691 32.0758C171.984 31.7363 172.66 32.0902 172.508 32.4875C172.298 33.0381 171.743 33.3596 171.121 33.4596C170.398 33.5759 169.896 33.2809 169.482 32.7854C169.326 32.5974 169.641 32.4349 169.813 32.5535Z" fill="#773322"/>
<path id="Fill 112" fill-rule="evenodd" clip-rule="evenodd" d="M174.075 41.8261C174.911 42.2963 175.93 41.6141 176.935 41.6551C177.764 41.2634 178.234 41.7841 178.749 41.0519C178.871 40.8782 179.222 40.8407 179.265 41.1127C179.443 42.2314 178.176 42.0361 177.252 42.3958C175.862 42.4222 174.794 43.0623 173.908 42.0495C173.806 41.9335 173.931 41.745 174.075 41.8261Z" fill="#E6935C"/>
<path id="Fill 113" fill-rule="evenodd" clip-rule="evenodd" d="M175.231 30.7462C175.195 30.6469 175.356 30.5775 175.4 30.6733C176.131 32.2403 176.257 33.8631 175.811 35.5371C175.741 35.799 175.33 35.6962 175.404 35.4373C175.852 33.8798 175.779 32.2712 175.231 30.7462Z" fill="#E6935C"/>
<path id="Fill 114" fill-rule="evenodd" clip-rule="evenodd" d="M174.065 36.0899C174.328 35.5863 175.111 35.5554 175.573 35.3568C175.675 35.3132 175.798 35.4044 175.736 35.5164C175.538 35.8711 175.143 35.9577 174.788 36.0884C174.044 36.362 174.686 36.9776 174.581 37.4741C174.57 37.5237 174.512 37.5622 174.462 37.546C173.912 37.3682 173.834 36.5317 174.065 36.0899Z" fill="#E6935C"/>
<path id="Fill 115" fill-rule="evenodd" clip-rule="evenodd" d="M169.489 29.4579C170.032 28.7891 170.504 28.3808 171.377 28.2399C172.213 28.1047 173.064 28.3889 173.743 28.8616C174.19 29.1727 173.757 29.9149 173.327 29.5947C172.184 28.7456 170.78 28.6964 169.705 29.6732C169.557 29.8075 169.367 29.6084 169.489 29.4579Z" fill="#793522"/>
<path id="Fill 116" fill-rule="evenodd" clip-rule="evenodd" d="M178.161 29.7812C178.912 28.3712 181.229 28.3119 182.307 29.3743C182.538 29.6018 182.435 30.1069 182.038 30.0274C181.426 29.9058 180.936 29.5137 180.301 29.4215C179.599 29.3196 178.993 29.7082 178.411 30.0315C178.269 30.1105 178.086 29.9215 178.161 29.7812Z" fill="#793522"/>
</g>
</g>
</g>
<g id="red-ribbon">
<g id="Page 1_2">
<g id="Group 3">
<path id="Fill 4_2" fill-rule="evenodd" clip-rule="evenodd" d="M337.498 170H343V167.273H337.498V170Z" fill="#A3A19D"/>
<path id="Fill 5_2" fill-rule="evenodd" clip-rule="evenodd" d="M340.911 170H342.876V167.273H340.911V170Z" fill="#8E8D89"/>
<path id="Fill 6_2" fill-rule="evenodd" clip-rule="evenodd" d="M338.067 166.918H342.432V166.133H338.067V166.918Z" fill="#A3A19D"/>
<path id="Fill 7_2" fill-rule="evenodd" clip-rule="evenodd" d="M340.911 166.918H342.47V166.133H340.911V166.918Z" fill="#8E8D89"/>
<path id="Fill 8_2" fill-rule="evenodd" clip-rule="evenodd" d="M338.635 166.162H342.135V107.406H338.635V166.162Z" fill="#A3A19D"/>
<path id="Fill 9_2" fill-rule="evenodd" clip-rule="evenodd" d="M340.911 166.162H342.161V107.406H340.911V166.162Z" fill="#8E8D89"/>
<path id="Fill 10_2" fill-rule="evenodd" clip-rule="evenodd" d="M338.067 107.796H342.098V106.836H338.067V107.796Z" fill="#A3A19D"/>
<path id="Fill 11_2" fill-rule="evenodd" clip-rule="evenodd" d="M340.911 107.796H342.351V106.836H340.911V107.796Z" fill="#8E8D89"/>
<path id="Fill 12_2" fill-rule="evenodd" clip-rule="evenodd" d="M338.067 106.932H342.763V101.135H338.067V106.932Z" fill="#A3A19D"/>
<path id="Fill 13_2" fill-rule="evenodd" clip-rule="evenodd" d="M340.911 106.932H342.589V101.135H340.911V106.932Z" fill="#8E8D89"/>
<path id="Fill 14_2" fill-rule="evenodd" clip-rule="evenodd" d="M338.067 101.153H342.094V99.9944H338.067V101.153Z" fill="#A3A19D"/>
<path id="Fill 15_2" fill-rule="evenodd" clip-rule="evenodd" d="M340.911 101.153H342.35V99.9944H340.911V101.153Z" fill="#8E8D89"/>
<path id="Fill 16" fill-rule="evenodd" clip-rule="evenodd" d="M338.635 105.836H339.234V101.705H338.635V105.836Z" fill="#312F2B"/>
<path id="Fill 17_2" fill-rule="evenodd" clip-rule="evenodd" d="M341.48 105.836H342.078V101.705H341.48V105.836Z" fill="#312F2B"/>
<path id="Fill 140" fill-rule="evenodd" clip-rule="evenodd" d="M183.345 169.43H188.848V166.703H183.345V169.43Z" fill="#A3A19D"/>
<path id="Fill 141" fill-rule="evenodd" clip-rule="evenodd" d="M183.345 169.43H185.311V166.703H183.345V169.43Z" fill="#8E8D89"/>
<path id="Fill 142_2" fill-rule="evenodd" clip-rule="evenodd" d="M183.914 166.918H188.279V166.133H183.914V166.918Z" fill="#A3A19D"/>
<path id="Fill 143_2" fill-rule="evenodd" clip-rule="evenodd" d="M183.914 166.918H185.473V166.133H183.914V166.918Z" fill="#8E8D89"/>
<path id="Fill 144_2" fill-rule="evenodd" clip-rule="evenodd" d="M184.483 166.161H187.982V107.406H184.483V166.161Z" fill="#A3A19D"/>
<path id="Fill 145_2" fill-rule="evenodd" clip-rule="evenodd" d="M184.483 166.161H185.733V107.406H184.483V166.161Z" fill="#8E8D89"/>
<path id="Fill 146_2" fill-rule="evenodd" clip-rule="evenodd" d="M183.914 107.227H187.946V106.266H183.914V107.227Z" fill="#A3A19D"/>
<path id="Fill 147_2" fill-rule="evenodd" clip-rule="evenodd" d="M183.914 107.227H185.354V106.266H183.914V107.227Z" fill="#8E8D89"/>
<path id="Fill 148_2" fill-rule="evenodd" clip-rule="evenodd" d="M183.914 106.361H188.61V100.565H183.914V106.361Z" fill="#A3A19D"/>
<path id="Fill 149_2" fill-rule="evenodd" clip-rule="evenodd" d="M183.914 106.361H185.592V100.565H183.914V106.361Z" fill="#8E8D89"/>
<path id="Fill 150_2" fill-rule="evenodd" clip-rule="evenodd" d="M183.914 100.582H187.941V99.4242H183.914V100.582Z" fill="#A3A19D"/>
<path id="Fill 151_2" fill-rule="evenodd" clip-rule="evenodd" d="M183.914 100.582H185.352V99.4242H183.914V100.582Z" fill="#8E8D89"/>
<path id="Fill 152_2" fill-rule="evenodd" clip-rule="evenodd" d="M187.327 105.266H187.926V101.135H187.327V105.266Z" fill="#312F2B"/>
<path id="Fill 153_2" fill-rule="evenodd" clip-rule="evenodd" d="M184.483 105.266H185.081V101.135H184.483V105.266Z" fill="#312F2B"/>
<path id="Fill 154_2" fill-rule="evenodd" clip-rule="evenodd" d="M191.563 107.977C192.018 107.977 192.386 108.346 192.386 108.802C192.386 109.257 192.018 109.627 191.563 109.627C191.109 109.627 190.74 109.257 190.74 108.802C190.74 108.346 191.109 107.977 191.563 107.977Z" fill="#595552"/>
<path id="Fill 155_2" fill-rule="evenodd" clip-rule="evenodd" d="M190.217 105.022H190.216V105.021C189.861 105.021 189.539 105.166 189.307 105.4C189.074 105.633 188.93 105.955 188.929 106.311H188.93V106.314H188.929C188.929 106.67 189.073 106.993 189.307 107.226C189.539 107.459 189.861 107.604 190.215 107.604V107.603H190.218V107.604C190.573 107.604 190.895 107.459 191.128 107.226C191.361 106.993 191.505 106.67 191.506 106.315H191.505V106.312H191.506C191.506 105.956 191.361 105.633 191.129 105.4C190.895 105.166 190.573 105.021 190.22 105.021V105.022H190.217ZM190.216 104.557V104.556H190.22V104.557C190.702 104.557 191.139 104.754 191.456 105.07C191.773 105.388 191.969 105.827 191.969 106.312H191.97V106.315H191.969C191.969 106.799 191.773 107.237 191.457 107.554C191.14 107.872 190.702 108.068 190.218 108.069V108.07H190.215V108.069C189.733 108.068 189.295 107.872 188.98 107.555C188.662 107.238 188.466 106.799 188.465 106.314H188.465V106.311H188.465C188.466 105.827 188.662 105.389 188.978 105.072C189.295 104.754 189.733 104.557 190.216 104.557Z" fill="#8E8D89"/>
<path id="Fill 156_2" fill-rule="evenodd" clip-rule="evenodd" d="M190.241 106.853V106.852C190.306 106.817 190.388 106.842 190.424 106.907L190.972 107.922C191.008 107.987 190.983 108.069 190.918 108.105H190.918C190.853 108.139 190.771 108.115 190.736 108.05L190.187 107.036C190.152 106.971 190.177 106.888 190.241 106.853Z" fill="#312F2B"/>
<path id="Fill 157_2" fill-rule="evenodd" clip-rule="evenodd" d="M187.896 105.365H190.054V105.126H187.896V105.365Z" fill="#312F2B"/>
<path id="Stroke 158" fill-rule="evenodd" clip-rule="evenodd" d="M187.896 105.365H190.054V105.126H187.896V105.365Z" stroke="#191714" stroke-width="0.216"/>
<path id="Fill 159_2" fill-rule="evenodd" clip-rule="evenodd" d="M193.034 108.547C198.137 120.845 204.392 128.357 210.968 132.336C216.402 135.625 222.08 136.494 227.502 135.666C233.001 134.826 238.254 132.255 242.746 128.688C249.453 123.366 254.44 115.87 256.024 108.62L259.658 109.407C257.898 117.468 252.408 125.758 245.044 131.603C240.062 135.558 234.211 138.413 228.054 139.353C221.82 140.305 215.292 139.308 209.048 135.528C201.836 131.163 195.039 123.08 189.602 109.975L193.034 108.547Z" fill="#DD3B37"/>
<path id="Fill 160_2" fill-rule="evenodd" clip-rule="evenodd" d="M193.034 108.547C193.464 109.583 193.902 110.584 194.348 111.553L191.042 113.258C190.552 112.2 190.072 111.107 189.602 109.975L193.034 108.547ZM255.148 111.713C255.505 110.681 255.799 109.648 256.024 108.62L259.658 109.407C259.366 110.746 258.969 112.091 258.48 113.431L255.148 111.713Z" fill="#DCDCD6"/>
<path id="Fill 161_2" fill-rule="evenodd" clip-rule="evenodd" d="M258.117 107.977C257.662 107.977 257.293 108.346 257.293 108.802C257.293 109.257 257.662 109.627 258.117 109.627C258.571 109.627 258.939 109.257 258.939 108.802C258.939 108.346 258.571 107.977 258.117 107.977Z" fill="#595552"/>
<path id="Fill 162_2" fill-rule="evenodd" clip-rule="evenodd" d="M259.046 105.022H259.047V105.021C259.402 105.021 259.724 105.166 259.956 105.4C260.189 105.633 260.333 105.955 260.334 106.311H260.333V106.314H260.334C260.334 106.67 260.189 106.993 259.957 107.226C259.724 107.459 259.402 107.604 259.048 107.604V107.603H259.045V107.604C258.69 107.604 258.367 107.459 258.135 107.226C257.902 106.993 257.758 106.67 257.757 106.315H257.758V106.312H257.757C257.757 105.956 257.902 105.633 258.135 105.4C258.367 105.166 258.689 105.021 259.044 105.021V105.022H259.046ZM259.047 104.557V104.556H259.044V104.557C258.561 104.557 258.124 104.754 257.808 105.07C257.49 105.388 257.294 105.827 257.294 106.312H257.293V106.315H257.294C257.295 106.799 257.49 107.237 257.806 107.554C258.123 107.872 258.561 108.068 259.045 108.069V108.07H259.048V108.069C259.531 108.068 259.968 107.872 260.284 107.555C260.601 107.238 260.798 106.799 260.798 106.314H260.799V106.311H260.798C260.798 105.827 260.601 105.389 260.285 105.072C259.969 104.754 259.53 104.557 259.047 104.557Z" fill="#8E8D89"/>
<path id="Fill 163_2" fill-rule="evenodd" clip-rule="evenodd" d="M258.608 106.853V106.852C258.544 106.817 258.462 106.842 258.426 106.907L257.878 107.922C257.843 107.987 257.867 108.069 257.932 108.105C257.997 108.139 258.079 108.115 258.114 108.05L258.663 107.036C258.698 106.971 258.673 106.888 258.608 106.853Z" fill="#312F2B"/>
<path id="Fill 164" fill-rule="evenodd" clip-rule="evenodd" d="M259.568 105.365H261.726V105.126H259.568V105.365Z" fill="#312F2B"/>
<path id="Stroke 165" fill-rule="evenodd" clip-rule="evenodd" d="M259.568 105.365H261.726V105.126H259.568V105.365Z" stroke="#191714" stroke-width="0.216"/>
<path id="Fill 166" fill-rule="evenodd" clip-rule="evenodd" d="M260.137 170H265.639V167.273H260.137V170Z" fill="#A3A19D"/>
<path id="Fill 167" fill-rule="evenodd" clip-rule="evenodd" d="M264.119 170H266.084V167.273H264.119V170Z" fill="#8E8D89"/>
<path id="Fill 168" fill-rule="evenodd" clip-rule="evenodd" d="M260.706 166.918H265.071V166.133H260.706V166.918Z" fill="#A3A19D"/>
<path id="Fill 169" fill-rule="evenodd" clip-rule="evenodd" d="M263.55 166.918H265.109V166.133H263.55V166.918Z" fill="#8E8D89"/>
<path id="Fill 170" fill-rule="evenodd" clip-rule="evenodd" d="M261.275 166.162H264.775V107.406H261.275V166.162Z" fill="#A3A19D"/>
<path id="Fill 171" fill-rule="evenodd" clip-rule="evenodd" d="M263.55 166.162H264.8V107.406H263.55V166.162Z" fill="#8E8D89"/>
<path id="Fill 172" fill-rule="evenodd" clip-rule="evenodd" d="M261.275 107.796H265.306V106.836H261.275V107.796Z" fill="#A3A19D"/>
<path id="Fill 173" fill-rule="evenodd" clip-rule="evenodd" d="M263.55 107.796H264.99V106.836H263.55V107.796Z" fill="#8E8D89"/>
<path id="Fill 174" fill-rule="evenodd" clip-rule="evenodd" d="M260.706 106.932H265.403V101.135H260.706V106.932Z" fill="#A3A19D"/>
<path id="Fill 175" fill-rule="evenodd" clip-rule="evenodd" d="M263.55 106.932H265.228V101.135H263.55V106.932Z" fill="#8E8D89"/>
<path id="Fill 176" fill-rule="evenodd" clip-rule="evenodd" d="M261.275 101.153H265.302V99.9944H261.275V101.153Z" fill="#A3A19D"/>
<path id="Fill 177" fill-rule="evenodd" clip-rule="evenodd" d="M263.55 101.153H264.988V99.9944H263.55V101.153Z" fill="#8E8D89"/>
<path id="Fill 178" fill-rule="evenodd" clip-rule="evenodd" d="M261.275 105.836H261.873V101.705H261.275V105.836Z" fill="#312F2B"/>
<path id="Fill 179" fill-rule="evenodd" clip-rule="evenodd" d="M264.688 105.836H265.286V101.705H264.688V105.836Z" fill="#312F2B"/>
<path id="Fill 180" fill-rule="evenodd" clip-rule="evenodd" d="M268.354 107.977C268.809 107.977 269.177 108.346 269.177 108.802C269.177 109.257 268.809 109.627 268.354 109.627C267.9 109.627 267.532 109.257 267.532 108.802C267.532 108.346 267.9 107.977 268.354 107.977Z" fill="#595552"/>
<path id="Fill 181" fill-rule="evenodd" clip-rule="evenodd" d="M267.578 105.022H267.577V105.021C267.222 105.021 266.9 105.166 266.667 105.4C266.435 105.633 266.29 105.955 266.29 106.311H266.291V106.314H266.29C266.29 106.67 266.434 106.993 266.667 107.226C266.9 107.459 267.222 107.604 267.576 107.604V107.603H267.579V107.604C267.934 107.604 268.256 107.459 268.489 107.226C268.722 106.993 268.866 106.67 268.866 106.315H268.865V106.312H268.866C268.866 105.956 268.722 105.633 268.489 105.4C268.256 105.166 267.935 105.021 267.58 105.021V105.022H267.578ZM267.577 104.557V104.556H267.58V104.557C268.063 104.557 268.5 104.754 268.816 105.07C269.133 105.388 269.33 105.827 269.33 106.312H269.331V106.315H269.33C269.329 106.799 269.134 107.237 268.818 107.554C268.501 107.872 268.063 108.068 267.579 108.069V108.07H267.576V108.069C267.093 108.068 266.656 107.872 266.34 107.555C266.023 107.238 265.827 106.799 265.827 106.314H265.825V106.311H265.827C265.827 105.827 266.022 105.389 266.338 105.072C266.655 104.754 267.093 104.557 267.577 104.557Z" fill="#8E8D89"/>
<path id="Fill 182" fill-rule="evenodd" clip-rule="evenodd" d="M267.602 106.853V106.852C267.667 106.817 267.749 106.842 267.785 106.907L268.333 107.922C268.368 107.987 268.344 108.069 268.279 108.105C268.214 108.139 268.132 108.115 268.097 108.05L267.548 107.036C267.513 106.971 267.537 106.888 267.602 106.853Z" fill="#312F2B"/>
<path id="Fill 183" fill-rule="evenodd" clip-rule="evenodd" d="M264.688 105.365H266.846V105.126H264.688V105.365Z" fill="#312F2B"/>
<path id="Stroke 184" fill-rule="evenodd" clip-rule="evenodd" d="M264.688 105.365H266.846V105.126H264.688V105.365Z" stroke="#191714" stroke-width="0.216"/>
<path id="Fill 185" fill-rule="evenodd" clip-rule="evenodd" d="M270.394 108.547C275.497 120.845 281.752 128.357 288.327 132.336C293.761 135.625 299.44 136.494 304.862 135.666C310.361 134.826 315.614 132.255 320.106 128.688C326.813 123.366 331.8 115.87 333.383 108.62L337.018 109.407C335.258 117.468 329.768 125.758 322.404 131.603C317.423 135.558 311.571 138.413 305.414 139.353C299.18 140.305 292.652 139.308 286.408 135.528C279.196 131.163 272.399 123.08 266.963 109.975L270.394 108.547Z" fill="#DD3B37"/>
<path id="Fill 186" fill-rule="evenodd" clip-rule="evenodd" d="M270.394 108.547C270.824 109.583 271.262 110.584 271.708 111.553L268.402 113.258C267.912 112.2 267.432 111.107 266.963 109.975L270.394 108.547ZM332.508 111.713C332.865 110.681 333.159 109.648 333.383 108.62L337.018 109.407C336.726 110.746 336.33 112.091 335.84 113.431L332.508 111.713Z" fill="#DCDCD6"/>
<path id="Fill 187" fill-rule="evenodd" clip-rule="evenodd" d="M335.476 107.977C335.022 107.977 334.654 108.346 334.654 108.802C334.654 109.257 335.022 109.627 335.476 109.627C335.931 109.627 336.299 109.257 336.299 108.802C336.299 108.346 335.931 107.977 335.476 107.977Z" fill="#595552"/>
<path id="Fill 188" fill-rule="evenodd" clip-rule="evenodd" d="M336.406 105.022H336.407V105.021C336.762 105.021 337.085 105.166 337.317 105.4C337.55 105.633 337.695 105.955 337.695 106.311H337.694V106.314H337.695C337.695 106.67 337.551 106.993 337.317 107.226C337.085 107.459 336.763 107.604 336.408 107.604V107.603H336.406V107.604C336.05 107.604 335.729 107.459 335.496 107.226C335.262 106.993 335.118 106.67 335.118 106.315H335.119V106.312H335.118C335.118 105.956 335.262 105.633 335.495 105.4C335.729 105.166 336.05 105.021 336.404 105.021V105.022H336.406ZM336.407 104.557V104.556H336.404V104.557C335.922 104.557 335.484 104.754 335.168 105.07C334.851 105.388 334.655 105.827 334.654 106.312H334.654V106.315H334.654C334.655 106.799 334.851 107.237 335.167 107.554C335.484 107.872 335.922 108.068 336.406 108.069V108.07H336.408V108.069C336.891 108.068 337.328 107.872 337.645 107.555C337.962 107.238 338.158 106.799 338.158 106.314H338.159V106.311H338.158C338.158 105.827 337.962 105.389 337.646 105.072C337.329 104.754 336.891 104.557 336.407 104.557Z" fill="#8E8D89"/>
<path id="Fill 189" fill-rule="evenodd" clip-rule="evenodd" d="M335.97 106.853L335.969 106.852C335.904 106.817 335.822 106.842 335.787 106.907L335.238 107.922C335.204 107.987 335.228 108.069 335.292 108.105H335.293C335.358 108.139 335.44 108.115 335.474 108.05L336.023 107.036C336.059 106.971 336.035 106.888 335.97 106.853Z" fill="#312F2B"/>
<path id="Fill 190" fill-rule="evenodd" clip-rule="evenodd" d="M336.929 105.365H339.087V105.126H336.929V105.365Z" fill="#312F2B"/>
<path id="Stroke 191" fill-rule="evenodd" clip-rule="evenodd" d="M336.929 105.365H339.087V105.126H336.929V105.365Z" stroke="#191714" stroke-width="0.216"/>
</g>
</g>
</g>
<path id="Vector 14 (Stroke)" fill-rule="evenodd" clip-rule="evenodd" d="M64.206 41.255C64.4551 41.1177 64.7683 41.2083 64.9056 41.4575C65.012 41.6506 65.34 41.8832 66.0133 42.0744C66.6678 42.2617 67.4826 42.3666 68.3926 42.4209C70.2185 42.5314 72.2639 42.4145 73.6077 42.272C73.8906 42.242 74.1442 42.447 74.1741 42.73C74.2041 43.0129 73.9991 43.2666 73.7163 43.2965C72.3474 43.4414 70.2168 43.5617 68.3309 43.4494C67.3852 43.3923 66.4602 43.2708 65.732 43.0655C65.0226 42.8641 64.3248 42.5379 64.0035 41.9548C63.8663 41.7057 63.9569 41.3923 64.206 41.255Z" fill="#E6935C"/>
</g>
</svg>
