<svg width="55" height="23" viewBox="0 0 55 23" fill="none" xmlns="http://www.w3.org/2000/svg">
<g id="apple pay">
<path id="XMLID 34" d="M10.835 3.41424C10.2033 4.14251 9.19248 4.71692 8.1817 4.63486C8.05535 3.65016 8.55021 2.60392 9.12931 1.95771C9.76104 1.20893 10.8666 0.675551 11.7615 0.634521C11.8668 1.66025 11.4562 2.66546 10.835 3.41424ZM11.751 4.82975C10.2875 4.74769 9.03455 5.64007 8.33964 5.64007C7.6342 5.64007 6.57077 4.87078 5.41259 4.89129C3.90695 4.91181 2.5066 5.74264 1.73799 7.06583C0.158651 9.71221 1.32736 13.6305 2.85406 15.7845C3.60161 16.8513 4.49657 18.0206 5.67581 17.9796C6.79188 17.9385 7.2341 17.2718 8.5818 17.2718C9.94003 17.2718 10.3296 17.9796 11.5088 17.9591C12.7302 17.9385 13.4988 16.8923 14.2464 15.8255C15.0992 14.6152 15.4467 13.4356 15.4677 13.3741C15.4467 13.3535 13.1092 12.4817 13.0882 9.85581C13.0671 7.66076 14.9308 6.61451 15.015 6.55297C13.9621 5.03489 12.3196 4.87078 11.751 4.82975ZM20.2057 1.85514V17.8462H22.7538V12.3791H26.2809C29.5028 12.3791 31.7665 10.2251 31.7665 7.10686C31.7665 3.98865 29.5449 1.85514 26.3652 1.85514H20.2057ZM22.7538 3.94762H25.6913C27.9024 3.94762 29.1659 5.09644 29.1659 7.11712C29.1659 9.1378 27.9024 10.2969 25.6808 10.2969H22.7538V3.94762ZM36.4203 17.9693C38.0207 17.9693 39.5053 17.1795 40.1791 15.9281H40.2318V17.8462H42.5903V9.88658C42.5903 7.5787 40.6951 6.09139 37.7785 6.09139C35.0726 6.09139 33.0721 7.59921 32.9984 9.67118H35.2937C35.4832 8.68648 36.4203 8.04027 37.7048 8.04027C39.2631 8.04027 40.137 8.74803 40.137 10.0507V10.9328L36.9573 11.1175C33.9987 11.2918 32.3983 12.4714 32.3983 14.5229C32.3983 16.5948 34.0513 17.9693 36.4203 17.9693ZM37.1047 16.0717C35.7465 16.0717 34.8831 15.4358 34.8831 14.4613C34.8831 13.4561 35.7149 12.8715 37.3047 12.7791L40.137 12.6048V13.5074C40.137 15.005 38.8314 16.0717 37.1047 16.0717ZM45.7384 22.1953C48.2233 22.1953 49.392 21.2722 50.4133 18.4719L54.8881 6.24525H52.298L49.2972 15.6922H49.2446L46.2438 6.24525H43.58L47.8969 17.8873L47.6652 18.595C47.2756 19.7951 46.6439 20.2567 45.5173 20.2567C45.3173 20.2567 44.9277 20.2362 44.7698 20.2157V22.1338C44.9172 22.1748 45.5489 22.1953 45.7384 22.1953Z" fill="black"/>
</g>
</svg>
