<svg width="72" height="76" viewBox="0 0 72 76" fill="none" xmlns="http://www.w3.org/2000/svg">
<path d="M32.1826 53.9186C32.9734 54.7186 34.0791 55.1186 35.1078 55.1186C36.2135 55.1186 37.2422 54.7186 38.0329 53.9186L57.1683 34.5595C58.8302 32.8783 58.8302 30.2409 57.1683 28.5596C55.5065 26.8783 52.8995 26.8783 51.2377 28.5596L39.2989 40.7187V4.2406C39.2989 1.9219 37.4024 0 35.1073 0C32.8154 0 30.9157 1.9187 30.9157 4.2406V40.7995L18.897 28.5588C17.2352 26.8775 14.6282 26.8775 12.9664 28.5588C11.3045 30.2401 11.3045 32.8775 12.9664 34.5588L32.1826 53.9186Z" fill="white"/>
<path d="M66.0277 50.5593C63.7358 50.5593 61.8361 52.478 61.8361 54.7999V67.5998H8.30291V54.7999C8.30291 52.4812 6.40637 50.5593 4.11128 50.5593C1.81628 50.5593 0 52.4 0 54.7187V71.7593C0 74.078 1.89654 75.9999 4.19162 75.9999H66.1084C68.4003 75.9999 70.3 74.0812 70.3 71.7593L70.2969 54.7187C70.2166 52.4 68.4004 50.5593 66.0281 50.5593H66.0277Z" fill="white"/>
</svg>
