<svg width="19" height="25" viewBox="0 0 19 25" fill="none" xmlns="http://www.w3.org/2000/svg">
<g id="pay pass">
<g id="Vector">
<path d="M0.622898 9.74033C0.921311 10.1409 1.15306 10.5875 1.3091 11.0627C1.64002 12.0503 1.6396 13.1198 1.3079 14.1072C1.15234 14.5824 0.92096 15.029 0.622784 15.4296C0.525852 15.5586 0.455319 15.7056 0.415275 15.8621C0.37523 16.0187 0.36646 16.1816 0.389479 16.3416C0.412498 16.5016 0.466845 16.6554 0.549378 16.7941C0.631911 16.9329 0.740993 17.0538 0.870309 17.1499C0.999626 17.2459 1.14662 17.3153 1.30277 17.3539C1.45893 17.3926 1.62114 17.3997 1.78005 17.3749C1.93896 17.3501 2.09141 17.2938 2.22856 17.2095C2.36572 17.1251 2.48486 17.0142 2.57911 16.8832C3.02675 16.2785 3.37674 15.6066 3.6162 14.8923C4.11191 13.3944 4.11191 11.7754 3.6162 10.2774C3.37851 9.56189 3.02848 8.88919 2.57936 8.28481C2.38601 8.02771 2.09953 7.85769 1.78217 7.8117C1.46481 7.76572 1.14222 7.84747 0.884492 8.03921C0.626768 8.23095 0.454736 8.51717 0.405778 8.83568C0.356819 9.15419 0.43476 9.47935 0.622898 9.74033Z" fill="#231F20"/>
<path d="M4.79812 7.45601C5.73562 9.00006 6.23161 10.774 6.23161 12.5828C6.23161 14.3917 5.73562 16.1656 4.79812 17.7097C4.71254 17.846 4.65471 17.9981 4.62797 18.1571C4.60123 18.3161 4.60612 18.4788 4.64236 18.6359C4.67859 18.793 4.74545 18.9413 4.83907 19.0722C4.93269 19.2031 5.0512 19.3141 5.18776 19.3987C5.32432 19.4833 5.47622 19.5398 5.63466 19.565C5.7931 19.5903 5.95494 19.5836 6.11082 19.5456C6.2667 19.5075 6.41353 19.4388 6.5428 19.3433C6.67208 19.2479 6.78125 19.1276 6.86399 18.9894C8.04356 17.0616 8.66806 14.8427 8.66806 12.5795C8.66806 10.3162 8.04356 8.09733 6.86399 6.16951C6.78004 6.03296 6.67014 5.91438 6.54057 5.82055C6.41101 5.72672 6.26432 5.6595 6.10888 5.6227C5.95344 5.5859 5.79231 5.58025 5.6347 5.60609C5.47709 5.63192 5.32609 5.68874 5.19034 5.77328C5.05459 5.85782 4.93675 5.96842 4.84355 6.09876C4.75036 6.22911 4.68364 6.37664 4.64722 6.53292C4.61079 6.68921 4.60537 6.85118 4.63126 7.00957C4.65715 7.16796 4.71386 7.31966 4.79812 7.45601Z" fill="#231F20"/>
<path d="M9.21179 5.14132C10.5233 7.40089 11.214 9.97013 11.2133 12.5861C11.2126 15.2021 10.5204 17.771 9.20766 20.0298C9.04443 20.3107 8.99888 20.6452 9.08104 20.9599C9.1632 21.2745 9.36634 21.5434 9.64577 21.7075C9.9252 21.8716 10.258 21.9174 10.571 21.8348C10.8841 21.7522 11.1516 21.548 11.3148 21.2671C12.8417 18.6304 13.6461 15.634 13.6461 12.5831C13.6461 9.53228 12.8417 6.5359 11.3148 3.89916C11.2337 3.76036 11.1262 3.63898 10.9983 3.54195C10.8705 3.44492 10.7249 3.37414 10.5699 3.33366C10.4149 3.29318 10.2535 3.2838 10.0948 3.30604C9.9362 3.32827 9.78347 3.38169 9.64538 3.46325C9.50729 3.54481 9.38653 3.65291 9.29 3.78138C9.19347 3.90985 9.12306 4.05619 9.08279 4.21201C9.04252 4.36783 9.03318 4.53009 9.0553 4.68955C9.07742 4.849 9.13065 5.00251 9.21179 5.14132Z" fill="#231F20"/>
<path d="M13.622 2.80228C15.3046 5.78431 16.1891 9.15397 16.1891 12.5822C16.1891 16.0105 15.3046 19.3801 13.622 22.3622C13.5421 22.5017 13.4905 22.6557 13.47 22.8153C13.4495 22.9749 13.4605 23.1371 13.5025 23.2924C13.5444 23.4477 13.6165 23.5932 13.7145 23.7205C13.8125 23.8478 13.9345 23.9544 14.0735 24.0342C14.2126 24.114 14.3659 24.1654 14.5248 24.1856C14.6837 24.2057 14.845 24.1941 14.9994 24.1514C15.1538 24.1088 15.2983 24.0359 15.4246 23.937C15.551 23.8381 15.6566 23.7152 15.7356 23.5751C17.6266 20.2235 18.6207 16.4362 18.6207 12.5831C18.6207 8.73003 17.6266 4.94277 15.7356 1.59115C15.5755 1.31002 15.311 1.10424 15.0001 1.01897C14.6892 0.93369 14.3573 0.975893 14.0774 1.13632C13.7974 1.29674 13.5922 1.56227 13.5068 1.87462C13.4215 2.18696 13.4629 2.52059 13.622 2.80228Z" fill="#231F20"/>
</g>
</g>
</svg>
