<svg width="54" height="34" viewBox="0 0 54 34" fill="none" xmlns="http://www.w3.org/2000/svg">
<g id="visa">
<path id="Vector" d="M53.7507 29.2219H0.463228V34.0001H53.7507V29.2219Z" fill="#F7B600"/>
<path id="Vector_2" d="M53.7507 0.829102H0.463228V5.60731H53.7507V0.829102Z" fill="#1A1F71"/>
<path id="Vector_3" d="M21.792 10.8706L16.2867 23.9933H12.6857L9.98502 13.502C9.81189 12.8442 9.67339 12.6364 9.18865 12.3594C8.1219 11.846 6.9929 11.4735 5.83005 11.2514L5.8993 10.8706H11.6816C12.0599 10.8723 12.425 11.0094 12.7108 11.2571C12.9967 11.5048 13.1843 11.8468 13.2397 12.2209L14.6594 19.8037L18.1911 10.8706H21.792ZM35.8843 19.6999C35.8843 16.2374 31.1061 16.0296 31.1407 14.5061C31.1407 14.0214 31.5908 13.5367 32.595 13.3982C33.747 13.2906 34.9068 13.4939 35.9536 13.9868L36.5422 11.2168C35.5256 10.8264 34.4457 10.6269 33.3567 10.6282C29.9981 10.6282 27.6436 12.4287 27.609 14.9563C27.5744 16.8606 29.3056 17.8994 30.5867 18.5226C31.8678 19.1459 32.3526 19.596 32.3526 20.15C32.3526 21.0156 31.2792 21.4311 30.3097 21.4311C29.0914 21.4648 27.8856 21.1782 26.8126 20.6001L26.1894 23.474C27.3884 23.9552 28.6718 24.1907 29.9635 24.1664C33.5298 24.2011 35.8497 22.4352 35.8843 19.6999ZM44.7482 23.9933H47.8991L45.1637 10.8706H42.2553C41.9434 10.8668 41.6377 10.9574 41.3782 11.1304C41.1187 11.3034 40.9175 11.5507 40.801 11.84L35.6766 23.9933H39.2429L39.9354 22.0197H44.2981L44.7482 23.9933ZM40.9395 19.3536L42.74 14.4369L43.7788 19.3536H40.9395ZM26.6395 10.8706L23.8349 23.9933H20.4417L23.2463 10.8706H26.6395Z" fill="#1A1F71"/>
</g>
</svg>
