<svg width="161" height="20" viewBox="0 0 161 20" fill="none" xmlns="http://www.w3.org/2000/svg">
<g id="invend checkin-logo">
<g id="Page 1">
<g id="Group">
<path id="Fill 23" fill-rule="evenodd" clip-rule="evenodd" d="M79.909 17.8967C79.909 17.9659 79.9417 18.0334 80.0071 18.0967C80.0724 18.1604 80.1407 18.1922 80.213 18.1922H82.2341C82.3064 18.1922 82.3747 18.1604 82.4411 18.0967C82.5064 18.0334 82.5382 17.9659 82.5382 17.8967V3.69869C82.5382 3.62847 82.5064 3.56079 82.4411 3.49727C82.3747 3.43488 82.3064 3.40312 82.2341 3.40312H80.213C80.1407 3.40312 80.0724 3.43488 80.0071 3.49727C79.9417 3.56079 79.909 3.62847 79.909 3.69869V17.8967Z" fill="#1E44FD"/>
<path id="Fill 24" fill-rule="evenodd" clip-rule="evenodd" d="M58.8054 3.8052C58.8054 3.69253 58.844 3.59708 58.921 3.5201C58.9989 3.44318 59.0932 3.40377 59.2069 3.40377H61.0439C61.1576 3.40377 61.2556 3.44318 61.3403 3.5201C61.4242 3.59708 61.4665 3.69253 61.4665 3.8052V9.23498C61.4665 9.34782 61.5128 9.4248 61.6042 9.46709C61.6957 9.50954 61.7842 9.48815 61.8681 9.40453L67.0235 3.57326H67.0447C67.1293 3.46041 67.242 3.40377 67.3826 3.40377H69.5161C69.6576 3.40377 69.7586 3.46728 69.8232 3.59421C69.8865 3.72029 69.8685 3.84079 69.7702 3.95347L64.4462 10.0166C64.3056 10.1718 64.2421 10.2981 64.2556 10.3972C64.27 10.4952 64.3269 10.601 64.4252 10.7137C64.4531 10.7561 64.6108 10.9496 64.9005 11.2944C65.1885 11.64 65.5379 12.0627 65.9462 12.5624C66.3543 13.0619 66.7982 13.5974 67.2778 14.1684C67.7551 14.739 68.2029 15.2736 68.6188 15.773C69.0337 16.2738 69.386 16.7003 69.6749 17.0514C69.9638 17.404 70.1284 17.6013 70.1709 17.6436C70.242 17.7552 70.2487 17.8757 70.1929 18.0029C70.1361 18.1288 70.0302 18.1925 69.876 18.1925H67.5511C67.3826 18.1925 67.2777 18.1568 67.2343 18.0875L66.5587 17.2634C66.3891 17.0514 66.1743 16.7879 65.9144 16.471C65.6536 16.1542 65.3367 15.7625 64.9632 15.2983C64.5897 14.8335 64.1508 14.2874 63.6434 13.6606C63.1369 13.0339 62.5516 12.3053 61.8893 11.4744C61.8189 11.3895 61.7312 11.3616 61.6254 11.3895C61.5204 11.4174 61.4665 11.4955 61.4665 11.6216V17.7909C61.4665 17.9046 61.4242 17.999 61.3403 18.0771C61.2556 18.1541 61.1576 18.1925 61.0439 18.1925H59.2069C59.0932 18.1925 58.9989 18.1541 58.921 18.0771C58.844 17.999 58.8054 17.9046 58.8054 17.7909V3.8052Z" fill="black"/>
<path id="Fill 25" fill-rule="evenodd" clip-rule="evenodd" d="M42.613 10.8197C42.613 9.76697 42.8137 8.77636 43.2138 7.85028C43.614 6.92319 44.1552 6.11885 44.8357 5.4384C45.5171 4.75715 46.3203 4.21686 47.2465 3.81632C48.1735 3.41635 49.163 3.21667 50.2168 3.21667C51.2974 3.21667 52.2419 3.38189 53.0489 3.71198C53.856 4.04111 54.618 4.5287 55.334 5.17548C55.474 5.32904 55.474 5.47669 55.334 5.61797L54.0279 6.96531C53.9021 7.0911 53.7753 7.0844 53.6486 6.94442C53.1862 6.53645 52.6622 6.22438 52.0796 6.00747C51.4971 5.78989 50.8973 5.68025 50.2792 5.68025C49.5775 5.68025 48.9279 5.81365 48.331 6.08056C47.734 6.34741 47.2225 6.71202 46.7936 7.17557C46.3655 7.63906 46.0285 8.17941 45.7829 8.79759C45.5372 9.41548 45.4145 10.0683 45.4145 10.7561C45.4145 11.4434 45.5372 12.0931 45.7829 12.7046C46.0285 13.3149 46.3693 13.8486 46.8041 14.3054C47.2399 14.7611 47.7552 15.1231 48.3521 15.3889C48.9491 15.6565 49.5988 15.7891 50.3003 15.7891C50.9606 15.7891 51.568 15.6779 52.1219 15.4523C52.6765 15.2277 53.1862 14.933 53.6486 14.5683C53.7187 14.4981 53.7897 14.4665 53.8589 14.4732C53.9299 14.4801 53.9865 14.5117 54.0279 14.5683V14.5469L55.3764 15.9165C55.4319 15.9858 55.4531 16.0596 55.4386 16.1372C55.4252 16.2142 55.3907 16.2814 55.334 16.3371H55.3551C54.6382 17.0394 53.8416 17.555 52.9645 17.885C52.0863 18.2151 51.1708 18.3804 50.2168 18.3804C49.163 18.3804 48.1735 18.1834 47.2465 17.7901C46.3203 17.3964 45.5171 16.8601 44.8357 16.1786C44.1552 15.4983 43.614 14.6976 43.2138 13.7785C42.8137 12.8582 42.613 11.8724 42.613 10.8197Z" fill="black"/>
<path id="Fill 26" fill-rule="evenodd" clip-rule="evenodd" d="M33.963 5.76998C33.8792 5.76998 33.837 5.81261 33.837 5.8964V9.36218C33.837 9.44569 33.8792 9.48815 33.963 9.48815H38.8442C38.9144 9.48815 38.9808 9.51991 39.0444 9.58359C39.108 9.64598 39.1397 9.71339 39.1397 9.78456V11.5803C39.1397 11.6641 39.108 11.7351 39.0444 11.791C38.9808 11.847 38.9144 11.8758 38.8442 11.8758H33.963C33.8792 11.8758 33.837 11.918 33.837 12.002V15.6999C33.837 15.7835 33.8792 15.826 33.963 15.826H39.879C39.9638 15.826 40.0342 15.8615 40.09 15.9328C40.1469 16.0021 40.1746 16.0734 40.1746 16.1438V17.8969C40.1746 17.9671 40.1469 18.0346 40.09 18.098C40.0342 18.1608 39.9638 18.1925 39.879 18.1925H31.5977C31.5129 18.1925 31.4425 18.1608 31.3857 18.098C31.3298 18.0346 31.302 17.9671 31.302 17.8969V3.69923C31.302 3.62997 31.3298 3.56245 31.3857 3.49887C31.4425 3.43536 31.5129 3.40377 31.5977 3.40377H39.879C39.9638 3.40377 40.0342 3.43536 40.09 3.49887C40.1469 3.56245 40.1746 3.62997 40.1746 3.69923V5.45346C40.1746 5.52368 40.1469 5.59407 40.09 5.66395C40.0342 5.73439 39.9638 5.76998 39.879 5.76998H33.963Z" fill="black"/>
<path id="Fill 27" fill-rule="evenodd" clip-rule="evenodd" d="M26.3275 3.3927C26.4812 3.3927 26.6081 3.43899 26.7063 3.53032C26.8043 3.62177 26.8544 3.73017 26.8544 3.8572V17.6756C26.8544 17.8161 26.8043 17.9352 26.7063 18.0344C26.6081 18.1325 26.4812 18.1815 26.3275 18.1815H24.9768C24.8076 18.1815 24.674 18.1325 24.5758 18.0344C24.4768 17.9352 24.4279 17.8161 24.4279 17.6756V11.9796C24.4279 11.8952 24.3934 11.8529 24.3231 11.8529H18.1414C18.0579 11.8529 18.0147 11.8952 18.0147 11.9796V17.6756C18.0147 17.8161 17.9617 17.9352 17.8569 18.0344C17.7513 18.1325 17.6357 18.1815 17.5088 18.1815H16.116C15.9612 18.1815 15.8312 18.1325 15.7255 18.0344C15.6208 17.9352 15.568 17.8161 15.568 17.6756V3.8572C15.568 3.73017 15.6208 3.62177 15.7255 3.53032C15.8312 3.43899 15.9612 3.3927 16.116 3.3927H17.5088C17.6357 3.3927 17.7513 3.43899 17.8569 3.53032C17.9617 3.62177 18.0147 3.73017 18.0147 3.8572V9.25713C18.0147 9.34256 18.0579 9.38484 18.1414 9.38484H24.3231C24.3934 9.38484 24.4279 9.34256 24.4279 9.25713V3.8572C24.4279 3.73017 24.4768 3.62177 24.5758 3.53032C24.674 3.43899 24.8076 3.3927 24.9768 3.3927H26.3275Z" fill="black"/>
<path id="Fill 28" fill-rule="evenodd" clip-rule="evenodd" d="M-1.77215e-09 10.8197C-1.77215e-09 9.76697 0.200465 8.77636 0.600605 7.85028C1.0008 6.92319 1.5411 6.11885 2.22251 5.4384C2.90296 4.75715 3.70617 4.21686 4.63327 3.81632C5.5603 3.41635 6.54979 3.21667 7.60267 3.21667C8.68423 3.21667 9.62759 3.38189 10.4348 3.71198C11.243 4.04111 12.0038 4.5287 12.7198 5.17548C12.8609 5.32904 12.8609 5.47669 12.7198 5.61797L11.4147 6.96531C11.2889 7.0911 11.1612 7.0844 11.0356 6.94442C10.5721 6.53645 10.049 6.22438 9.46638 6.00747C8.8839 5.78989 8.28409 5.68025 7.66602 5.68025C6.96451 5.68025 6.31469 5.81365 5.71786 6.08056C5.12091 6.34741 4.60933 6.71202 4.18042 7.17557C3.75229 7.63906 3.41533 8.17941 3.16971 8.79759C2.92402 9.41548 2.80132 10.0683 2.80132 10.7561C2.80132 11.4434 2.92402 12.0931 3.16971 12.7046C3.41533 13.3149 3.75612 13.8486 4.19095 14.3054C4.62578 14.7611 5.14197 15.1231 5.73892 15.3889C6.33592 15.6565 6.98461 15.7891 7.68708 15.7891C8.34743 15.7891 8.95401 15.6779 9.50867 15.4523C10.0634 15.2277 10.5721 14.933 11.0356 14.5683C11.1055 14.4981 11.1756 14.4665 11.2457 14.4732C11.3167 14.4801 11.3724 14.5117 11.4147 14.5683V14.5469L12.762 15.9165C12.8187 15.9858 12.8399 16.0596 12.8254 16.1372C12.812 16.2142 12.7764 16.2814 12.7198 16.3371H12.741C12.0251 17.0394 11.2286 17.555 10.3503 17.885C9.47325 18.2151 8.55764 18.3804 7.60267 18.3804C6.54979 18.3804 5.5603 18.1834 4.63327 17.7901C3.70617 17.3964 2.90296 16.8601 2.22251 16.1786C1.5411 15.4983 1.0008 14.6976 0.600605 13.7785C0.200465 12.8582 -1.77215e-09 11.8724 -1.77215e-09 10.8197Z" fill="black"/>
<path id="Fill 29" fill-rule="evenodd" clip-rule="evenodd" d="M153.231 15.7838C153.949 15.7838 154.608 15.6576 155.207 15.4036C155.806 15.1503 156.323 14.8018 156.76 14.3591C157.196 13.915 157.538 13.3865 157.784 12.7742C158.03 12.1609 158.154 11.4956 158.154 10.7773C158.154 10.0583 158.03 9.39667 157.784 8.79122C157.538 8.18577 157.196 7.66096 156.76 7.21802C156.323 6.77328 155.806 6.42562 155.207 6.17138C154.608 5.91726 153.949 5.79129 153.231 5.79129H151.202C151.119 5.79129 151.076 5.83347 151.076 5.91725V15.6576C151.076 15.7425 151.119 15.7838 151.202 15.7838H153.231ZM153.484 3.40356C154.498 3.40356 155.457 3.59716 156.358 3.98508C157.259 4.37216 158.048 4.89967 158.724 5.56976C159.4 6.2389 159.932 7.02054 160.319 7.91407C160.706 8.80958 160.9 9.76358 160.9 10.7773C160.9 11.8056 160.706 12.7702 160.319 13.6716C159.932 14.5725 159.4 15.3581 158.724 16.0274C158.048 16.6965 157.259 17.2239 156.358 17.6121C155.457 17.999 154.498 18.1927 153.484 18.1927H148.858C148.787 18.1927 148.724 18.1609 148.668 18.0982C148.611 18.0346 148.583 17.9674 148.583 17.897V3.69919C148.583 3.62993 148.611 3.56242 148.668 3.49884C148.724 3.43532 148.787 3.40356 148.858 3.40356H153.484Z" fill="#1E44FD"/>
<path id="Fill 30" fill-rule="evenodd" clip-rule="evenodd" d="M144.149 3.42635C144.219 3.42635 144.286 3.458 144.349 3.52135C144.412 3.5847 144.444 3.65193 144.444 3.72102V18.1056C144.444 18.1757 144.412 18.2399 144.349 18.2954C144.286 18.3513 144.219 18.3802 144.149 18.3802H143.811C143.587 18.3802 143.391 18.2954 143.222 18.1267L134.798 8.83923C134.784 8.81147 134.741 8.79694 134.671 8.79694C134.615 8.82583 134.587 8.86699 134.587 8.9237L134.566 17.8742C134.566 17.9444 134.538 18.0114 134.482 18.0747C134.426 18.1372 134.356 18.1688 134.271 18.1688H132.334C132.264 18.1688 132.196 18.1372 132.134 18.0747C132.071 18.0114 132.039 17.9444 132.039 17.8742V3.48959C132.039 3.41948 132.071 3.35613 132.134 3.30061C132.196 3.24379 132.264 3.21614 132.334 3.21614H132.714C132.924 3.21614 133.106 3.30061 133.261 3.46853L141.663 12.5879C141.692 12.6436 141.734 12.6581 141.791 12.6302C141.832 12.6158 141.853 12.5813 141.853 12.5245L141.874 3.72102C141.874 3.65193 141.902 3.5847 141.959 3.52135C142.015 3.458 142.084 3.42635 142.169 3.42635H144.149Z" fill="#1E44FD"/>
<path id="Fill 31" fill-rule="evenodd" clip-rule="evenodd" d="M122.639 5.77006C122.554 5.77006 122.512 5.81224 122.512 5.89603V9.36204C122.512 9.44583 122.554 9.48828 122.639 9.48828H127.519C127.59 9.48828 127.656 9.51987 127.72 9.58356C127.783 9.64629 127.815 9.71347 127.815 9.7847V11.5804C127.815 11.6642 127.783 11.7352 127.72 11.7913C127.656 11.8468 127.59 11.8757 127.519 11.8757H122.639C122.554 11.8757 122.512 11.9183 122.512 12.0021V15.7C122.512 15.7838 122.554 15.8261 122.639 15.8261H128.555C128.639 15.8261 128.709 15.8619 128.766 15.9329C128.822 16.0022 128.85 16.0735 128.85 16.1438V17.897C128.85 17.9674 128.822 18.0346 128.766 18.0982C128.709 18.1609 128.639 18.1927 128.555 18.1927H120.272C120.188 18.1927 120.118 18.1609 120.062 18.0982C120.005 18.0346 119.977 17.9674 119.977 17.897V3.69919C119.977 3.62993 120.005 3.56242 120.062 3.49884C120.118 3.43532 120.188 3.40356 120.272 3.40356H128.555C128.639 3.40356 128.709 3.43532 128.766 3.49884C128.822 3.56242 128.85 3.62993 128.85 3.69919V5.45343C128.85 5.52348 128.822 5.59387 128.766 5.66408C128.709 5.73436 128.639 5.77006 128.555 5.77006H122.639Z" fill="#1E44FD"/>
<path id="Fill 32" fill-rule="evenodd" clip-rule="evenodd" d="M116.993 3.40377C117.104 3.40377 117.192 3.44273 117.255 3.51915C117.318 3.59595 117.328 3.68374 117.286 3.78127C117.286 3.78127 117.189 3.98112 116.993 4.37968C116.797 4.77841 116.545 5.31252 116.237 5.98464C115.93 6.65456 115.581 7.41756 115.189 8.27027C114.797 9.12388 114.395 9.99348 113.982 10.8816C113.569 11.7697 113.164 12.6405 112.766 13.4941C112.367 14.3468 112.014 15.1088 111.706 15.7797C111.399 16.4517 111.151 16.9936 110.962 17.4059C110.772 17.8189 110.679 18.0243 110.679 18.0243C110.623 18.1362 110.525 18.1924 110.384 18.1924H110.175C110.049 18.1924 109.959 18.1362 109.903 18.0243L103.357 3.80216C103.302 3.70463 103.302 3.61397 103.357 3.52985C103.414 3.44561 103.498 3.40377 103.61 3.40377H105.749C105.889 3.40377 105.973 3.45996 106.002 3.57185L110.092 12.6129C110.105 12.6548 110.147 12.676 110.217 12.676H110.384C110.426 12.676 110.462 12.6548 110.49 12.6129L114.58 3.57185C114.608 3.45996 114.692 3.40377 114.832 3.40377H116.993Z" fill="#1E44FD"/>
<path id="Fill 33" fill-rule="evenodd" clip-rule="evenodd" d="M101.24 3.42635C101.31 3.42635 101.377 3.458 101.44 3.52135C101.503 3.5847 101.535 3.65193 101.535 3.72102V18.1056C101.535 18.1757 101.503 18.2399 101.44 18.2954C101.377 18.3513 101.31 18.3802 101.24 18.3802H100.902C100.678 18.3802 100.482 18.2954 100.313 18.1267L91.8893 8.83923C91.875 8.81147 91.8327 8.79694 91.7628 8.79694C91.7061 8.82583 91.6782 8.86699 91.6782 8.9237L91.6571 17.8742C91.6571 17.9444 91.6291 18.0114 91.5736 18.0747C91.517 18.1372 91.4469 18.1688 91.3625 18.1688H89.4246C89.3547 18.1688 89.2875 18.1372 89.225 18.0747C89.1617 18.0114 89.13 17.9444 89.13 17.8742V3.48959C89.13 3.41948 89.1617 3.35613 89.225 3.30061C89.2875 3.24379 89.3547 3.21614 89.4246 3.21614H89.8037C90.0151 3.21614 90.1974 3.30061 90.3517 3.46853L98.7544 12.5879C98.7833 12.6436 98.8255 12.6581 98.881 12.6302C98.9233 12.6158 98.9445 12.5813 98.9445 12.5245L98.9656 3.72102C98.9656 3.65193 98.9934 3.5847 99.0499 3.52135C99.1056 3.458 99.1757 3.42635 99.2602 3.42635H101.24Z" fill="#1E44FD"/>
<path id="Fill 34" fill-rule="evenodd" clip-rule="evenodd" d="M75.3081 19.6959C75.3081 19.7672 75.3408 19.8364 75.4061 19.9018C75.4715 19.9673 75.5399 20 75.6122 20H77.6332C77.7055 20 77.7788 19.9633 77.8403 19.9018C77.9016 19.8413 77.9373 19.7582 77.9373 19.6959V14.0047C77.9373 13.9413 77.9056 13.8621 77.8403 13.798C77.7748 13.7335 77.7055 13.7008 77.6332 13.7008H75.6122C75.5399 13.7008 75.4666 13.7373 75.4061 13.798C75.3448 13.8582 75.3081 13.9325 75.3081 14.0047V19.6959Z" fill="#1E44FD"/>
<path id="Fill 35" fill-rule="evenodd" clip-rule="evenodd" d="M84.5098 9.95611C84.5098 10.0275 84.5424 10.0969 84.6078 10.162C84.6731 10.2275 84.7414 10.2602 84.8137 10.2602H86.835C86.9071 10.2602 86.9785 10.2254 87.0418 10.162C87.1052 10.0998 87.1389 10.0225 87.1389 9.95611V0.303907C87.1389 0.236559 87.1073 0.161385 87.0418 0.0971915C86.9766 0.0325473 86.9071 5.10166e-10 86.835 5.10166e-10H84.8137C84.7414 5.10166e-10 84.6702 0.0346308 84.6078 0.0971915C84.5444 0.159302 84.5098 0.231604 84.5098 0.303907V9.95611Z" fill="#1E44FD"/>
<path id="Fill 59" fill-rule="evenodd" clip-rule="evenodd" d="M79.909 17.8967C79.909 17.9659 79.9417 18.0334 80.0071 18.0967C80.0724 18.1604 80.1407 18.1922 80.213 18.1922H82.2341C82.3064 18.1922 82.3747 18.1604 82.4411 18.0967C82.5064 18.0334 82.5382 17.9659 82.5382 17.8967V3.69869C82.5382 3.62847 82.5064 3.56079 82.4411 3.49727C82.3747 3.43488 82.3064 3.40312 82.2341 3.40312H80.213C80.1407 3.40312 80.0724 3.43488 80.0071 3.49727C79.9417 3.56079 79.909 3.62847 79.909 3.69869V17.8967Z" fill="#1E44FD"/>
<path id="Fill 60" fill-rule="evenodd" clip-rule="evenodd" d="M58.8054 3.8052C58.8054 3.69253 58.844 3.59708 58.921 3.5201C58.9989 3.44318 59.0932 3.40377 59.2069 3.40377H61.0439C61.1576 3.40377 61.2556 3.44318 61.3403 3.5201C61.4242 3.59708 61.4665 3.69253 61.4665 3.8052V9.23498C61.4665 9.34782 61.5128 9.4248 61.6042 9.46709C61.6957 9.50954 61.7842 9.48815 61.8681 9.40453L67.0235 3.57326H67.0447C67.1293 3.46041 67.242 3.40377 67.3826 3.40377H69.5161C69.6576 3.40377 69.7586 3.46728 69.8232 3.59421C69.8865 3.72029 69.8685 3.84079 69.7702 3.95347L64.4462 10.0166C64.3056 10.1718 64.2421 10.2981 64.2556 10.3972C64.27 10.4952 64.3269 10.601 64.4252 10.7137C64.4531 10.7561 64.6108 10.9496 64.9005 11.2944C65.1885 11.64 65.5379 12.0627 65.9462 12.5624C66.3543 13.0619 66.7982 13.5974 67.2778 14.1684C67.7551 14.739 68.2029 15.2736 68.6188 15.773C69.0337 16.2738 69.386 16.7003 69.6749 17.0514C69.9638 17.404 70.1284 17.6013 70.1709 17.6436C70.242 17.7552 70.2487 17.8757 70.1929 18.0029C70.1361 18.1288 70.0302 18.1925 69.876 18.1925H67.5511C67.3826 18.1925 67.2777 18.1568 67.2343 18.0875L66.5587 17.2634C66.3891 17.0514 66.1743 16.7879 65.9144 16.471C65.6536 16.1542 65.3367 15.7625 64.9632 15.2983C64.5897 14.8335 64.1508 14.2874 63.6434 13.6606C63.1369 13.0339 62.5516 12.3053 61.8893 11.4744C61.8189 11.3895 61.7312 11.3616 61.6254 11.3895C61.5204 11.4174 61.4665 11.4955 61.4665 11.6216V17.7909C61.4665 17.9046 61.4242 17.999 61.3403 18.0771C61.2556 18.1541 61.1576 18.1925 61.0439 18.1925H59.2069C59.0932 18.1925 58.9989 18.1541 58.921 18.0771C58.844 17.999 58.8054 17.9046 58.8054 17.7909V3.8052Z" fill="black"/>
<path id="Fill 61" fill-rule="evenodd" clip-rule="evenodd" d="M42.613 10.8197C42.613 9.76697 42.8137 8.77636 43.2138 7.85028C43.614 6.92319 44.1552 6.11885 44.8357 5.4384C45.5171 4.75715 46.3203 4.21686 47.2465 3.81632C48.1735 3.41635 49.163 3.21667 50.2168 3.21667C51.2974 3.21667 52.2419 3.38189 53.0489 3.71198C53.856 4.04111 54.618 4.5287 55.334 5.17548C55.474 5.32904 55.474 5.47669 55.334 5.61797L54.0279 6.96531C53.9021 7.0911 53.7753 7.0844 53.6486 6.94442C53.1862 6.53645 52.6622 6.22438 52.0796 6.00747C51.4971 5.78989 50.8973 5.68025 50.2792 5.68025C49.5775 5.68025 48.9279 5.81365 48.331 6.08056C47.734 6.34741 47.2225 6.71202 46.7936 7.17557C46.3655 7.63906 46.0285 8.17941 45.7829 8.79759C45.5372 9.41548 45.4145 10.0683 45.4145 10.7561C45.4145 11.4434 45.5372 12.0931 45.7829 12.7046C46.0285 13.3149 46.3693 13.8486 46.8041 14.3054C47.2399 14.7611 47.7552 15.1231 48.3521 15.3889C48.9491 15.6565 49.5988 15.7891 50.3003 15.7891C50.9606 15.7891 51.568 15.6779 52.1219 15.4523C52.6765 15.2277 53.1862 14.933 53.6486 14.5683C53.7187 14.4981 53.7897 14.4665 53.8589 14.4732C53.9299 14.4801 53.9865 14.5117 54.0279 14.5683V14.5469L55.3764 15.9165C55.4319 15.9858 55.4531 16.0596 55.4386 16.1372C55.4252 16.2142 55.3907 16.2814 55.334 16.3371H55.3551C54.6382 17.0394 53.8416 17.555 52.9645 17.885C52.0863 18.2151 51.1708 18.3804 50.2168 18.3804C49.163 18.3804 48.1735 18.1834 47.2465 17.7901C46.3203 17.3964 45.5171 16.8601 44.8357 16.1786C44.1552 15.4983 43.614 14.6976 43.2138 13.7785C42.8137 12.8582 42.613 11.8724 42.613 10.8197Z" fill="black"/>
<path id="Fill 62" fill-rule="evenodd" clip-rule="evenodd" d="M33.963 5.76998C33.8792 5.76998 33.837 5.81261 33.837 5.8964V9.36218C33.837 9.44569 33.8792 9.48815 33.963 9.48815H38.8442C38.9144 9.48815 38.9808 9.51991 39.0444 9.58359C39.108 9.64598 39.1397 9.71339 39.1397 9.78456V11.5803C39.1397 11.6641 39.108 11.7351 39.0444 11.791C38.9808 11.847 38.9144 11.8758 38.8442 11.8758H33.963C33.8792 11.8758 33.837 11.918 33.837 12.002V15.6999C33.837 15.7835 33.8792 15.826 33.963 15.826H39.879C39.9638 15.826 40.0342 15.8615 40.09 15.9328C40.1469 16.0021 40.1746 16.0734 40.1746 16.1438V17.8969C40.1746 17.9671 40.1469 18.0346 40.09 18.098C40.0342 18.1608 39.9638 18.1925 39.879 18.1925H31.5977C31.5129 18.1925 31.4425 18.1608 31.3857 18.098C31.3298 18.0346 31.302 17.9671 31.302 17.8969V3.69923C31.302 3.62997 31.3298 3.56245 31.3857 3.49887C31.4425 3.43536 31.5129 3.40377 31.5977 3.40377H39.879C39.9638 3.40377 40.0342 3.43536 40.09 3.49887C40.1469 3.56245 40.1746 3.62997 40.1746 3.69923V5.45346C40.1746 5.52368 40.1469 5.59407 40.09 5.66395C40.0342 5.73439 39.9638 5.76998 39.879 5.76998H33.963Z" fill="black"/>
<path id="Fill 63" fill-rule="evenodd" clip-rule="evenodd" d="M26.3275 3.3927C26.4812 3.3927 26.6081 3.43899 26.7063 3.53032C26.8043 3.62177 26.8544 3.73017 26.8544 3.8572V17.6756C26.8544 17.8161 26.8043 17.9352 26.7063 18.0344C26.6081 18.1325 26.4812 18.1815 26.3275 18.1815H24.9768C24.8076 18.1815 24.674 18.1325 24.5758 18.0344C24.4768 17.9352 24.4279 17.8161 24.4279 17.6756V11.9796C24.4279 11.8952 24.3934 11.8529 24.3231 11.8529H18.1414C18.0579 11.8529 18.0147 11.8952 18.0147 11.9796V17.6756C18.0147 17.8161 17.9617 17.9352 17.8569 18.0344C17.7513 18.1325 17.6357 18.1815 17.5088 18.1815H16.116C15.9612 18.1815 15.8312 18.1325 15.7255 18.0344C15.6208 17.9352 15.568 17.8161 15.568 17.6756V3.8572C15.568 3.73017 15.6208 3.62177 15.7255 3.53032C15.8312 3.43899 15.9612 3.3927 16.116 3.3927H17.5088C17.6357 3.3927 17.7513 3.43899 17.8569 3.53032C17.9617 3.62177 18.0147 3.73017 18.0147 3.8572V9.25713C18.0147 9.34256 18.0579 9.38484 18.1414 9.38484H24.3231C24.3934 9.38484 24.4279 9.34256 24.4279 9.25713V3.8572C24.4279 3.73017 24.4768 3.62177 24.5758 3.53032C24.674 3.43899 24.8076 3.3927 24.9768 3.3927H26.3275Z" fill="black"/>
<path id="Fill 64" fill-rule="evenodd" clip-rule="evenodd" d="M-1.77215e-09 10.8197C-1.77215e-09 9.76697 0.200465 8.77636 0.600605 7.85028C1.0008 6.92319 1.5411 6.11885 2.22251 5.4384C2.90296 4.75715 3.70617 4.21686 4.63327 3.81632C5.5603 3.41635 6.54979 3.21667 7.60267 3.21667C8.68423 3.21667 9.62759 3.38189 10.4348 3.71198C11.243 4.04111 12.0038 4.5287 12.7198 5.17548C12.8609 5.32904 12.8609 5.47669 12.7198 5.61797L11.4147 6.96531C11.2889 7.0911 11.1612 7.0844 11.0356 6.94442C10.5721 6.53645 10.049 6.22438 9.46638 6.00747C8.8839 5.78989 8.28409 5.68025 7.66602 5.68025C6.96451 5.68025 6.31469 5.81365 5.71786 6.08056C5.12091 6.34741 4.60933 6.71202 4.18042 7.17557C3.75229 7.63906 3.41533 8.17941 3.16971 8.79759C2.92402 9.41548 2.80132 10.0683 2.80132 10.7561C2.80132 11.4434 2.92402 12.0931 3.16971 12.7046C3.41533 13.3149 3.75612 13.8486 4.19095 14.3054C4.62578 14.7611 5.14197 15.1231 5.73892 15.3889C6.33592 15.6565 6.98461 15.7891 7.68708 15.7891C8.34743 15.7891 8.95401 15.6779 9.50867 15.4523C10.0634 15.2277 10.5721 14.933 11.0356 14.5683C11.1055 14.4981 11.1756 14.4665 11.2457 14.4732C11.3167 14.4801 11.3724 14.5117 11.4147 14.5683V14.5469L12.762 15.9165C12.8187 15.9858 12.8399 16.0596 12.8254 16.1372C12.812 16.2142 12.7764 16.2814 12.7198 16.3371H12.741C12.0251 17.0394 11.2286 17.555 10.3503 17.885C9.47325 18.2151 8.55764 18.3804 7.60267 18.3804C6.54979 18.3804 5.5603 18.1834 4.63327 17.7901C3.70617 17.3964 2.90296 16.8601 2.22251 16.1786C1.5411 15.4983 1.0008 14.6976 0.600605 13.7785C0.200465 12.8582 -1.77215e-09 11.8724 -1.77215e-09 10.8197Z" fill="black"/>
<path id="Fill 65" fill-rule="evenodd" clip-rule="evenodd" d="M153.231 15.7838C153.949 15.7838 154.608 15.6576 155.207 15.4036C155.806 15.1503 156.323 14.8018 156.76 14.3591C157.196 13.915 157.538 13.3865 157.784 12.7742C158.03 12.1609 158.154 11.4956 158.154 10.7773C158.154 10.0583 158.03 9.39667 157.784 8.79122C157.538 8.18577 157.196 7.66096 156.76 7.21802C156.323 6.77328 155.806 6.42562 155.207 6.17138C154.608 5.91726 153.949 5.79129 153.231 5.79129H151.202C151.119 5.79129 151.076 5.83347 151.076 5.91725V15.6576C151.076 15.7425 151.119 15.7838 151.202 15.7838H153.231ZM153.484 3.40356C154.498 3.40356 155.457 3.59716 156.358 3.98508C157.259 4.37216 158.048 4.89967 158.724 5.56976C159.4 6.2389 159.932 7.02054 160.319 7.91407C160.706 8.80958 160.9 9.76358 160.9 10.7773C160.9 11.8056 160.706 12.7702 160.319 13.6716C159.932 14.5725 159.4 15.3581 158.724 16.0274C158.048 16.6965 157.259 17.2239 156.358 17.6121C155.457 17.999 154.498 18.1927 153.484 18.1927H148.858C148.787 18.1927 148.724 18.1609 148.668 18.0982C148.611 18.0346 148.583 17.9674 148.583 17.897V3.69919C148.583 3.62993 148.611 3.56242 148.668 3.49884C148.724 3.43532 148.787 3.40356 148.858 3.40356H153.484Z" fill="#1E44FD"/>
<path id="Fill 66" fill-rule="evenodd" clip-rule="evenodd" d="M144.149 3.42635C144.219 3.42635 144.286 3.458 144.349 3.52135C144.412 3.5847 144.444 3.65193 144.444 3.72102V18.1056C144.444 18.1757 144.412 18.2399 144.349 18.2954C144.286 18.3513 144.219 18.3802 144.149 18.3802H143.811C143.587 18.3802 143.391 18.2954 143.222 18.1267L134.798 8.83923C134.784 8.81147 134.741 8.79694 134.671 8.79694C134.615 8.82583 134.587 8.86699 134.587 8.9237L134.566 17.8742C134.566 17.9444 134.538 18.0114 134.482 18.0747C134.426 18.1372 134.356 18.1688 134.271 18.1688H132.334C132.264 18.1688 132.196 18.1372 132.134 18.0747C132.071 18.0114 132.039 17.9444 132.039 17.8742V3.48959C132.039 3.41948 132.071 3.35613 132.134 3.30061C132.196 3.24379 132.264 3.21614 132.334 3.21614H132.714C132.924 3.21614 133.106 3.30061 133.261 3.46853L141.663 12.5879C141.692 12.6436 141.734 12.6581 141.791 12.6302C141.832 12.6158 141.853 12.5813 141.853 12.5245L141.874 3.72102C141.874 3.65193 141.902 3.5847 141.959 3.52135C142.015 3.458 142.084 3.42635 142.169 3.42635H144.149Z" fill="#1E44FD"/>
<path id="Fill 67" fill-rule="evenodd" clip-rule="evenodd" d="M122.639 5.77006C122.554 5.77006 122.512 5.81224 122.512 5.89603V9.36204C122.512 9.44583 122.554 9.48828 122.639 9.48828H127.519C127.59 9.48828 127.656 9.51987 127.72 9.58356C127.783 9.64629 127.815 9.71347 127.815 9.7847V11.5804C127.815 11.6642 127.783 11.7352 127.72 11.7913C127.656 11.8468 127.59 11.8757 127.519 11.8757H122.639C122.554 11.8757 122.512 11.9183 122.512 12.0021V15.7C122.512 15.7838 122.554 15.8261 122.639 15.8261H128.555C128.639 15.8261 128.709 15.8619 128.766 15.9329C128.822 16.0022 128.85 16.0735 128.85 16.1438V17.897C128.85 17.9674 128.822 18.0346 128.766 18.0982C128.709 18.1609 128.639 18.1927 128.555 18.1927H120.272C120.188 18.1927 120.118 18.1609 120.062 18.0982C120.005 18.0346 119.977 17.9674 119.977 17.897V3.69919C119.977 3.62993 120.005 3.56242 120.062 3.49884C120.118 3.43532 120.188 3.40356 120.272 3.40356H128.555C128.639 3.40356 128.709 3.43532 128.766 3.49884C128.822 3.56242 128.85 3.62993 128.85 3.69919V5.45343C128.85 5.52348 128.822 5.59387 128.766 5.66408C128.709 5.73436 128.639 5.77006 128.555 5.77006H122.639Z" fill="#1E44FD"/>
<path id="Fill 68" fill-rule="evenodd" clip-rule="evenodd" d="M116.993 3.40377C117.104 3.40377 117.192 3.44273 117.255 3.51915C117.318 3.59595 117.328 3.68374 117.286 3.78127C117.286 3.78127 117.189 3.98112 116.993 4.37968C116.797 4.77841 116.545 5.31252 116.237 5.98464C115.93 6.65456 115.581 7.41756 115.189 8.27027C114.797 9.12388 114.395 9.99348 113.982 10.8816C113.569 11.7697 113.164 12.6405 112.766 13.4941C112.367 14.3468 112.014 15.1088 111.706 15.7797C111.399 16.4517 111.151 16.9936 110.962 17.4059C110.772 17.8189 110.679 18.0243 110.679 18.0243C110.623 18.1362 110.525 18.1924 110.384 18.1924H110.175C110.049 18.1924 109.959 18.1362 109.903 18.0243L103.357 3.80216C103.302 3.70463 103.302 3.61397 103.357 3.52985C103.414 3.44561 103.498 3.40377 103.61 3.40377H105.749C105.889 3.40377 105.973 3.45996 106.002 3.57185L110.092 12.6129C110.105 12.6548 110.147 12.676 110.217 12.676H110.384C110.426 12.676 110.462 12.6548 110.49 12.6129L114.58 3.57185C114.608 3.45996 114.692 3.40377 114.832 3.40377H116.993Z" fill="#1E44FD"/>
<path id="Fill 69" fill-rule="evenodd" clip-rule="evenodd" d="M101.24 3.42635C101.31 3.42635 101.377 3.458 101.44 3.52135C101.503 3.5847 101.535 3.65193 101.535 3.72102V18.1056C101.535 18.1757 101.503 18.2399 101.44 18.2954C101.377 18.3513 101.31 18.3802 101.24 18.3802H100.902C100.678 18.3802 100.482 18.2954 100.313 18.1267L91.8893 8.83923C91.875 8.81147 91.8327 8.79694 91.7628 8.79694C91.7061 8.82583 91.6782 8.86699 91.6782 8.9237L91.6571 17.8742C91.6571 17.9444 91.6291 18.0114 91.5736 18.0747C91.517 18.1372 91.4469 18.1688 91.3625 18.1688H89.4246C89.3547 18.1688 89.2875 18.1372 89.225 18.0747C89.1617 18.0114 89.13 17.9444 89.13 17.8742V3.48959C89.13 3.41948 89.1617 3.35613 89.225 3.30061C89.2875 3.24379 89.3547 3.21614 89.4246 3.21614H89.8037C90.0151 3.21614 90.1974 3.30061 90.3517 3.46853L98.7544 12.5879C98.7833 12.6436 98.8255 12.6581 98.881 12.6302C98.9233 12.6158 98.9445 12.5813 98.9445 12.5245L98.9656 3.72102C98.9656 3.65193 98.9934 3.5847 99.0499 3.52135C99.1056 3.458 99.1757 3.42635 99.2602 3.42635H101.24Z" fill="#1E44FD"/>
<path id="Fill 70" fill-rule="evenodd" clip-rule="evenodd" d="M75.3081 19.6959C75.3081 19.7672 75.3408 19.8364 75.4061 19.9018C75.4715 19.9673 75.5399 20 75.6122 20H77.6332C77.7055 20 77.7788 19.9633 77.8403 19.9018C77.9016 19.8413 77.9373 19.7582 77.9373 19.6959V14.0047C77.9373 13.9413 77.9056 13.8621 77.8403 13.798C77.7748 13.7335 77.7055 13.7008 77.6332 13.7008H75.6122C75.5399 13.7008 75.4666 13.7373 75.4061 13.798C75.3448 13.8582 75.3081 13.9325 75.3081 14.0047V19.6959Z" fill="#1E44FD"/>
<path id="Fill 71" fill-rule="evenodd" clip-rule="evenodd" d="M84.5098 9.95611C84.5098 10.0275 84.5424 10.0969 84.6078 10.162C84.6731 10.2275 84.7414 10.2602 84.8137 10.2602H86.835C86.9071 10.2602 86.9785 10.2254 87.0418 10.162C87.1052 10.0998 87.1389 10.0225 87.1389 9.95611V0.303907C87.1389 0.236559 87.1073 0.161385 87.0418 0.0971915C86.9765 0.0325473 86.9071 0 86.835 0H84.8137C84.7414 0 84.6702 0.0346308 84.6078 0.0971915C84.5444 0.159302 84.5098 0.231604 84.5098 0.303907V9.95611Z" fill="#1E44FD"/>
</g>
</g>
</g>
</svg>
